<svg width="265" height="182" viewBox="0 0 265 182" fill="none" xmlns="http://www.w3.org/2000/svg">
<g clip-path="url(#clip0_69_9105)">
<path d="M201.516 39.4095V30.9543C201.516 26.5118 196.93 22.7858 192.631 22.7858H188.762V8.1685C188.762 3.72598 184.319 0 179.876 0H170.275C165.832 0 163.253 3.86929 163.253 8.1685V9.88819H149.209C147.919 5.58898 144.193 3.00945 139.75 3.00945C134.305 3.00945 122 7.41102 122 13C122 18.4457 134.305 22.7858 139.75 22.7858C144.193 22.7858 148.062 19.9197 149.209 15.6205H163.253V22.7858H157.521C153.078 22.7858 150.499 26.6551 150.499 30.9543V39.4095C146.199 41.5591 134.878 50.1575 134.878 62.6252V171.539C134.878 177.414 138.747 182 144.48 182H205.958C211.691 182 217.28 177.271 217.28 171.539V62.6252C217.28 50.1575 204.382 41.5591 201.516 39.4095Z" fill="#F47160" stroke="#F47160" stroke-width="0.0748031"/>
</g>
<g clip-path="url(#clip1_69_9105)">
<path d="M63.0555 39.4095V30.9543C63.0555 26.5118 67.6413 22.7858 71.9405 22.7858H75.8098V8.1685C75.8098 3.72598 80.2523 0 84.6948 0H94.2964C98.7389 0 101.318 3.86929 101.318 8.1685V9.88819H115.363C116.652 5.58898 120.378 3.00945 124.821 3.00945C130.266 3.00945 139.5 5.91102 139.5 11.5C139.5 16.9457 130.266 22.7858 124.821 22.7858C120.378 22.7858 116.509 19.9197 115.363 15.6205H101.318V22.7858H107.051C111.493 22.7858 114.073 26.6551 114.073 30.9543V39.4095C118.372 41.5591 129.693 50.1575 129.693 62.6252V171.539C129.693 177.414 125.824 182 120.092 182H58.6129C52.8807 182 47.2917 177.271 47.2917 171.539V62.6252C47.2917 50.1575 60.1893 41.5591 63.0555 39.4095Z" fill="#F47160" stroke="#F47160" stroke-width="0.0748031"/>
</g>
<defs>
<clipPath id="clip0_69_9105">
<rect width="182" height="182" fill="white" transform="translate(82.5713)"/>
</clipPath>
<clipPath id="clip1_69_9105">
<rect width="182" height="182" fill="white" transform="matrix(-1 0 0 1 182 0)"/>
</clipPath>
</defs>
</svg>
