<svg width="181" height="181" viewBox="0 0 181 181" fill="none" xmlns="http://www.w3.org/2000/svg">
<path d="M61.7282 59.0571C60.3929 57.7218 58.2346 57.7218 56.8993 59.0571L39.3252 76.6312C37.9899 77.9665 37.9899 80.1249 39.3252 81.4602C39.9911 82.1261 40.8654 82.4608 41.7397 82.4608C42.6139 82.4608 43.4882 82.1261 44.1541 81.4602L61.7282 63.8861C63.0635 62.5508 63.0635 60.3924 61.7282 59.0571Z" fill="#F47160" stroke="#F47160" stroke-width="15.0943"/>
<path d="M65.6417 72.219C64.3064 70.8837 62.148 70.8837 60.8127 72.219L50.0689 82.9629C48.7336 84.2982 48.7336 86.4565 50.0689 87.7918C50.7348 88.4578 51.6091 88.7925 52.4833 88.7925C53.3576 88.7925 54.2319 88.4578 54.8978 87.7918L65.6417 77.048C66.9736 75.7161 66.9736 73.5543 65.6417 72.219Z" fill="#F47160" stroke="#F47160" stroke-width="15.0943"/>
<path d="M64.2277 85.8793L60.314 89.793C58.9787 91.1283 58.9787 93.2867 60.314 94.622C60.9799 95.2879 61.8542 95.6226 62.7285 95.6226C63.6027 95.6226 64.477 95.2879 65.1429 94.622L69.0566 90.7083C70.3919 89.373 70.3919 87.2146 69.0566 85.8793C67.7213 84.544 65.5596 84.5475 64.2277 85.8793Z" fill="#F47160" stroke="#F47160" stroke-width="15.0943"/>
<path d="M124.101 59.0571C122.766 57.7218 120.608 57.7218 119.272 59.0571C117.937 60.3924 117.937 62.5508 119.272 63.8861L136.847 81.4602C137.512 82.1261 138.387 82.4608 139.261 82.4608C140.135 82.4608 141.01 82.1261 141.675 81.4602C143.011 80.1249 143.011 77.9665 141.675 76.6312L124.101 59.0571Z" fill="#F47160" stroke="#F47160" stroke-width="15.0943"/>
<path d="M120.188 72.219C118.853 70.8837 116.694 70.8837 115.359 72.219C114.024 73.5543 114.024 75.7127 115.359 77.048L126.103 87.7918C126.769 88.4578 127.643 88.7925 128.517 88.7925C129.392 88.7925 130.266 88.4578 130.932 87.7918C132.267 86.4565 132.267 84.2982 130.932 82.9629L120.188 72.219Z" fill="#F47160" stroke="#F47160" stroke-width="15.0943"/>
<path d="M116.773 85.8794C115.438 84.5441 113.279 84.5441 111.944 85.8794C110.609 87.2147 110.609 89.3731 111.944 90.7084L115.858 94.6221C116.523 95.288 117.398 95.6227 118.272 95.6227C119.146 95.6227 120.021 95.288 120.687 94.6221C122.022 93.2868 122.022 91.1284 120.687 89.7931L116.773 85.8794Z" fill="#F47160" stroke="#F47160" stroke-width="15.0943"/>
<path d="M148.557 20.4906H117.821V7.87521C117.821 3.53121 114.29 0 109.949 0H71.0513C66.7107 0 63.1795 3.53121 63.1795 7.87521V20.4906H32.4436C23.0282 20.4906 15.3682 28.1506 15.3682 37.566V150.264C15.3682 159.68 23.0282 167.34 32.4436 167.34H42.6889V173.125C42.6889 177.465 46.2201 181 50.5607 181H130.44C134.78 181 138.312 177.469 138.312 173.125V167.34H148.557C157.972 167.34 165.632 159.68 165.632 150.264V37.566C165.632 28.1506 157.972 20.4906 148.557 20.4906ZM29.4725 86.4599C21.669 73.1957 26.1086 56.0588 39.366 48.2519C43.6554 45.7281 48.5424 44.3928 53.4977 44.3928C63.3537 44.3928 72.5778 49.6657 77.5707 58.1488C84.6399 70.1563 92.4947 105.424 78.0283 113.941C76.0032 115.136 73.6365 115.738 70.9932 115.738C56.1683 115.744 35.3909 96.5174 29.4725 86.4599ZM97.3304 140.019H83.6701C81.7849 140.019 80.255 138.492 80.255 136.604C80.255 134.715 81.7849 133.189 83.6701 133.189H97.3304C99.2156 133.189 100.746 134.715 100.746 136.604C100.746 138.492 99.2156 140.019 97.3304 140.019ZM151.528 86.4599C145.613 96.514 124.836 115.741 110.004 115.741C107.361 115.741 104.994 115.136 102.969 113.948C88.5024 105.427 96.3571 70.1597 103.426 58.1522C108.423 49.6691 117.643 44.3962 127.499 44.3962C132.455 44.3962 137.338 45.7315 141.631 48.2587C154.892 56.0588 159.331 73.1991 151.528 86.4599Z" fill="#F47160"/>
</svg>
