<svg width="207" height="201" viewBox="0 0 207 201" fill="none" xmlns="http://www.w3.org/2000/svg">
<g clip-path="url(#clip0_13_10890)">
<path d="M190.864 46.3294C191.046 46.6253 192.926 51.6441 196.676 61.6815C198.715 67.1783 200.379 72.8229 202.567 78.2514C205.758 86.1379 208.424 91.2136 206.168 95.026C205.507 96.164 204.573 96.8924 204.208 98.6791C203.604 101.615 205.245 103.869 206.043 105.678C208.641 111.539 203.376 114.873 201.325 128.985C200.493 134.675 201.108 135.813 199.638 139.045C197.656 143.438 195.08 144.633 192.095 148.559C188.368 153.498 188.186 157.277 186.511 162.022C180.813 177.955 164.677 186.9 160.814 188.88C154.799 191.921 148.296 193.882 141.601 194.672C135.903 195.287 135.595 194.354 130.08 194.991C117.408 196.471 115.995 201.819 108.759 200.898C100.668 199.907 100.782 193.091 91.1529 191.429C84.9537 190.371 83.9851 193.022 75.974 192.078C71.1537 191.509 71.5525 190.553 61.1598 187.355C50.1403 183.941 47.4852 184.373 44.0665 181.027C41.0239 178.114 42.1634 176.896 38.5283 172.982C33.8903 167.929 31.1326 168.885 26.7795 165.015C20.4663 159.428 23.7027 155.171 16.9793 146.943C12.4211 141.344 10.142 142.448 6.09656 136.701C3.12946 132.632 1.21524 127.894 0.524138 122.908C-0.774954 111.812 6.57517 109.513 5.51539 99.2254C4.63793 90.7356 -0.638207 89.6203 0.0683164 81.6086C0.341809 78.4107 1.903 75.2469 5.02538 68.9308C6.83727 65.3119 7.88566 63.6617 12.6376 55.6613C20.0447 43.1429 19.6117 43.5981 20.4208 42.6536C26.2097 35.9505 29.8107 37.282 37.1494 30.6245C43.417 24.9343 41.2062 23.6142 48.1347 16.2853C53.1715 10.9479 59.724 4.00585 69.1823 2.62882C72.7605 2.08257 74.4128 2.69711 82.082 1.70701C87.9963 0.94453 88.0305 0.455174 91.7226 0.136524C98.3435 -0.432494 100.201 0.978671 108.816 1.63873C116.212 2.20775 115.505 1.21766 123.63 1.63873C131.755 2.05981 136.029 2.3557 141.134 4.44968C148.336 7.3972 146.683 9.76431 155.709 14.0433C160.814 16.4673 163.948 16.9567 167.617 20.5643C170.01 22.92 170.796 24.7864 172.289 27.2446C178.91 38.0559 184.87 36.8268 190.864 46.3294Z" fill="#3A0404"/>
<path opacity="0.68" d="M91.905 53.5674C92.4406 48.9014 96.4633 46.1588 99.7224 43.9737C102.982 41.7887 106.89 39.1257 111.813 40.0475C116.736 40.9693 121.932 45.5215 121.818 50.415C121.818 53.0097 120.326 56.3101 118.183 56.7197C115.152 57.2774 113.329 51.5189 109.99 51.9286C107.961 52.1676 107.711 54.3981 103.369 59.0527C100.452 62.1482 99.0045 63.7073 97.2951 63.6049C94.2867 63.3204 91.3694 58.1081 91.905 53.5674Z" fill="#3A0202"/>
<path opacity="0.36" d="M152.7 144.019C153.798 146.13 155.648 147.754 157.885 148.571C161.634 149.709 165.099 147.694 167.207 146.443C171.924 143.643 174.363 140.058 177.463 135.176C180.095 131.079 181.394 128.985 180.881 126.834C179.993 123.295 175.332 120.677 171.924 121.474C169.474 122.054 169.805 123.887 166.227 126.823C162.227 130.089 160.107 129.19 155.184 133.184C152.677 135.222 152.028 136.417 151.766 137.395C151.474 138.506 151.406 139.664 151.567 140.801C151.727 141.938 152.113 143.032 152.7 144.019Z" fill="#3A0202"/>
<path opacity="0.68" d="M16.3526 96.608C14.8826 99.6238 13.5721 102.298 14.5863 103.436C15.8854 104.779 20.2043 102.457 21.4237 101.809C24.5574 100.125 28.4889 97.9964 28.9447 93.945C29.3322 90.5309 27.167 86.4339 24.7284 86.1494C21.6516 85.7397 18.8938 91.3275 16.3526 96.608Z" fill="#3A0202"/>
<path opacity="0.82" d="M161.076 41.197C161.19 42.9496 163.355 44.3266 165.099 44.7705C165.361 44.8387 168.722 45.6581 170.477 43.5186C171.235 42.4058 171.529 41.0422 171.297 39.7166C171.065 38.3911 170.326 37.2078 169.235 36.4173C166.261 34.7216 160.837 38.3405 161.076 41.197Z" fill="#2B1401"/>
<path opacity="0.68" d="M48.9211 43.8486C47.4739 40.093 48.9211 33.9249 53.3654 32.4682C54.8787 32.0475 56.4869 32.1198 57.9563 32.6744C59.4256 33.229 60.6796 34.2372 61.536 35.5523C62.573 37.339 62.9376 40.1044 61.7411 41.049C60.1457 42.2781 57.2627 39.1257 55.0633 40.332C52.6475 41.6635 53.9238 46.8075 52.2486 47.2285C51.28 47.5699 49.6276 45.658 48.9211 43.8486Z" fill="#3A0202"/>
<path opacity="0.68" d="M69.0684 161.863C66.55 164.378 68.8747 172.936 74.4129 176.965C78.7091 180.083 83.6205 179.514 90.7655 178.695C97.9105 177.875 102.993 177.283 104.44 173.733C106.081 169.659 102.332 163.069 98.0131 162.159C93.2726 161.169 90.7086 167.621 85.1361 166.609C81.8884 166.017 81.5921 163.616 76.5439 162.056C74.4015 161.431 70.6524 160.27 69.0684 161.863Z" fill="#3A0202"/>
<path opacity="0.68" d="M33.1839 155.706C34.9502 154.181 37.2407 155.786 39.7477 154.955C44.1236 153.51 44.4085 150.164 48.0094 147.808C52.7614 144.701 55.861 148.218 63.1655 146.738C70.0826 145.339 74.5611 140.718 79.7916 135.358C83.9672 131.247 87.3884 126.436 89.8995 121.144C97.1242 105.428 90.7199 94.6278 98.5601 88.5165C100.839 86.7412 105.135 84.7382 108.691 86.0356C111.597 87.094 111.824 89.5749 116.804 93.0687C118.666 94.3475 120.651 95.4378 122.73 96.3234C127.471 98.4288 128.656 97.837 132.166 99.4986C135.064 100.845 137.684 102.721 139.892 105.029C144.347 110.025 146.968 118.766 143.892 125.195C141.612 129.952 138.627 128.393 133.955 134.3C128.12 141.686 130.468 147.023 125.351 150.107C120.964 152.747 117.545 149.845 113.955 152.975C110.742 155.809 109.716 161.544 111.745 163.49C114.024 165.698 120.394 163.149 124.348 160.19C129.681 156.207 128.519 153.089 134.866 146.158C139.493 141.117 140.667 142.164 144.541 137.213C148.7 131.91 147.96 129.907 151.504 126.971C156.609 122.783 161.475 124.217 162.284 121.463C163.218 118.253 156.586 116.433 155.709 110.242C154.922 104.802 159.549 103.049 158.239 97.1087C157.451 94.3829 156.33 91.7645 154.9 89.3131C154.9 89.3131 150.535 85.091 149.92 82.576C149.304 80.0609 149.92 76.1461 152.324 74.6097C155.093 72.7547 157.851 75.5657 166.101 75.0194C169.873 74.769 171.446 73.301 171.446 73.301C171.446 73.301 170.865 68.874 172.46 66.7686C173.463 65.4485 174.511 65.9948 175.765 64.6177C177.269 62.9562 176.779 58.0854 176.779 58.0854C174.284 55.8794 171.38 54.1821 168.232 53.0894C164.086 51.9511 159.845 51.1893 155.561 50.8134C155.561 50.8134 147.789 55.3655 141.464 55.3655C138.046 55.3655 138.137 54.2275 128.929 51.9514C123.847 50.7223 121.271 50.1192 119.608 50.8134C115.494 52.3497 116.166 57.3343 112.326 63.7301C107.494 71.6963 97.694 78.1718 91.586 76.055C87.1076 74.4959 84.2929 68.4871 84.2929 68.4871C84.2929 68.4871 65.0572 95.7999 56.4649 94.2408C48.6134 92.8183 43.5082 66.302 43.5082 66.302C43.5082 66.302 40.591 68.4302 31.9645 87.2874C31.2238 88.9148 26.1414 100.045 20.569 111.186C16.3754 119.505 14.2673 123.705 13.3442 123.523C9.31019 122.908 4.03405 91.4185 17.5036 63.309C28.5459 40.2752 47.4055 29.5093 55.8382 24.8548C71.0512 16.456 102.138 4.55218 114.48 16.5812C120.781 22.7152 118.445 31.444 125.624 34.5508C132.257 37.4301 136.382 30.8977 149.692 29.9987C157.545 29.4429 165.435 30.2594 173.007 32.4113C170.078 25.0027 166.443 22.26 163.515 21.1789C160.164 19.9384 156.746 20.5188 151.185 17.6624C149.703 16.8999 148.404 16.0691 147.287 15.3863C144.612 13.6707 142.061 11.7692 139.652 9.69611C134.342 5.30328 124.109 7.81834 109.864 7.54522C95.1984 7.27209 95.3237 4.40424 84.9196 5.26914C76.7233 6.03913 68.7567 8.40119 61.4676 12.2225C54.6986 15.557 50.072 19.119 18.4608 56.4808C11.8172 64.3446 8.30738 68.5895 6.7348 75.5884C4.77476 84.283 9.01391 86.3542 10.4611 101.979C11.9084 117.605 8.5125 121.258 12.8086 128.94C16.1589 134.948 18.7799 133.662 23.4065 141.458C28.4205 149.834 29.9703 159.052 31.4973 158.779C32.1127 158.585 31.7822 156.913 33.1839 155.706Z" fill="#7C4132"/>
<path opacity="0.68" d="M77.9683 5.69023C77.3416 17.8217 83.3128 28.0413 91.643 30.6588C94.5577 31.4955 97.622 31.6764 100.615 31.1884C103.608 30.7004 106.456 29.5556 108.953 27.8364C113.101 24.741 113.773 21.0082 117.272 20.7237C120.77 20.4392 121.465 23.7509 126.525 25.3896C128.788 26.087 131.172 26.3085 133.526 26.0401C135.879 25.7718 138.151 25.0194 140.199 23.8305C142.293 22.5207 144.094 20.7952 145.492 18.7612C146.889 16.7272 147.854 14.428 148.324 12.0063C140.476 7.91381 132.079 4.97028 123.391 3.26621C108.279 0.363298 92.6848 1.19548 77.9683 5.69023Z" fill="#3A0202"/>
<path opacity="0.68" d="M61.5359 108.5C57.2512 111.789 57.4563 119.653 57.593 121.155C57.8323 123.921 58.2768 128.962 62.1512 131.671C66.0257 134.379 71.2677 132.98 73.7177 132.263C78.9711 130.76 78.4925 130.317 87.5861 122.18C94.2981 116.182 94.5032 114.623 94.4234 113.747C94.3095 109.297 87.7114 105.781 83.0279 104.87C80.9987 104.538 78.9225 104.631 76.9313 105.143C74.7319 105.633 73.8317 106.281 71.1537 106.657C69.3418 106.896 69.1139 106.657 67.359 106.873C66.8804 106.976 63.3592 107.123 61.5359 108.5Z" fill="#3A0202"/>
<path opacity="0.25" d="M20.9108 53.1578C19.0191 57.7099 19.5092 60.316 16.1589 66.9963C12.5351 74.2114 10.3471 74.3139 9.11642 78.775C7.11081 85.9332 11.9311 88.5735 12.9567 98.5654C14.0963 109.946 8.52386 112.37 9.65201 121.884C10.4725 128.837 14.2102 133.332 21.7427 142.027C28.033 149.333 48.0892 172.583 58.2084 167.758C62.5387 165.71 60.6471 160.691 67.5414 155.57C68.6125 154.773 74.7661 150.21 82.8 150.551C87.7912 150.756 89.8652 152.713 91.6315 151.336C94.2753 149.288 90.492 144.246 91.5518 137.293C93.056 127.528 101.956 128.325 106.001 116.546C108.349 109.718 106.856 104.973 111.346 100.967C114.32 98.315 115.904 99.5328 118.069 97.3477C124.109 91.1227 113.978 78.2401 119.38 71.5484C123.619 66.3021 132.473 71.0136 137.613 64.1853C139.618 61.5337 139.892 58.7228 143.31 56.6857C146.49 54.7965 148.609 55.8321 149.658 54.1479C151.207 51.6669 147.242 48.4577 146.455 41.8002C146.045 38.386 146.843 36.9635 147.116 33.8339C147.982 23.8875 142.091 10.9366 134.365 9.19541C130.08 8.22808 128.941 11.5511 121.966 11.2325C116.371 10.9821 114.742 8.7402 109.693 7.51112C102.298 5.69026 98.9361 8.854 88.5661 10.7545C72.6124 13.6793 71.0854 8.00047 62.3564 11.5056C52.6132 15.4205 55.8381 21.9528 41.5139 34.6533C30.768 44.3835 24.6144 44.3835 20.9108 53.1578Z" fill="#BC9595"/>
<path opacity="0.4" d="M16.5121 89.1538C17.9479 82.098 17.9935 78.4904 21.0703 73.2213C24.1471 67.9522 26.0844 68.2595 29.7993 62.2393C34.5626 54.5462 32.671 51.997 37.1722 46.8644C40.5909 43.0179 41.9014 44.2128 47.0066 39.3306C52.1118 34.4484 51.166 32.73 55.5191 28.8152C56.8865 27.5975 63.4959 21.6341 71.9742 21.9869C77.3415 22.169 77.672 24.6841 81.6262 24.0126C87.7798 22.9884 88.3838 16.752 95.1641 15.2042C99.4147 14.2255 104.075 15.557 104.372 17.1389C104.725 18.9484 99.4261 21.691 95.1641 23.8875C90.1615 26.4822 88.4977 26.5163 87.2898 28.6444C85.6147 31.6033 87.6659 33.6518 85.8882 36.349C83.8142 39.5241 79.7915 38.5226 78.9939 40.8442C78.105 43.4275 82.8683 45.2939 83.9053 50.1192C84.9423 54.9445 81.9795 61.4996 77.7973 62.7855C71.7919 64.743 65.6497 55.0924 62.0373 57.1864C59.0517 58.9048 62.9717 65.5737 58.9719 72.7775C55.9293 78.2742 51.9978 77.3296 50.619 82.007C49.0122 87.3558 53.9465 89.757 53.3311 97.7119C53.1944 99.5669 52.8069 104.54 49.2971 107.806C45.1491 111.676 41.0239 109.058 37.7306 112.666C34.7108 116 34.7222 122.009 36.0783 125.935C37.2178 129.349 39.0753 130.157 39.2804 133.583C39.3301 136.023 38.6646 138.424 37.366 140.491C36.7392 141.629 33.5598 147.319 30.2665 147.012C26.5858 146.682 27.0074 139.273 20.7512 131.216C15.0535 123.875 11.4525 125.878 8.99105 120.803C5.57239 113.872 12.2844 110.014 16.5121 89.1538Z" fill="#BC9595"/>
<path opacity="0.5" d="M109.488 197.062C109.112 196.186 118.912 189.096 132.109 186.501C139.459 185.067 141.328 186.319 147.424 184.453C154.086 182.156 160.091 178.282 164.928 173.164C177.611 159.154 167.389 144.713 172.426 118.196C176.984 94.2977 200.493 76.0891 200.493 76.0891C202.01 79.389 202.728 82.999 202.59 86.6273C202.316 91.8509 200.22 93.979 199.092 100.215C198.26 104.859 198.989 106.133 198.886 112.062C198.656 118.731 197.646 125.35 195.878 131.785C194.077 137.998 192.801 138.613 185.462 152.929C177.246 168.987 178.899 168.145 175.947 171.969C169.584 179.979 160.894 185.827 151.071 188.709C144.712 190.496 144.484 189.039 133.749 190.826C118.286 193.352 109.796 197.859 109.488 197.062Z" fill="#56251C"/>
<path opacity="0.5" d="M87.6317 185.614C89.0676 186.16 91.2897 187.048 93.9334 188.311C103.175 192.715 105.101 195.742 109.488 197.062C114.89 198.701 117.602 195.822 128.348 192.34C146.364 186.513 148.438 191.463 157.976 186.092C169.543 179.582 175.161 167.428 176.209 164.913C178.944 158.677 178.158 156.503 181.736 149.595C186.67 140.058 189.781 141.082 193.234 134.175C198.134 124.342 192.881 120.131 196.106 100.193C197.633 90.7699 198.955 90.7926 198.647 85.6715C198.203 78.2742 195.354 76.8175 190.67 62.501C188.083 54.5348 188.391 53.044 185.964 49.2884C182.545 43.9055 178.523 41.3222 174.648 38.5454C160.859 28.6445 161.874 25.0255 152.244 18.4476C146.547 14.5328 137.145 9.63925 122.673 7.80701C135.899 12.9103 147.841 20.851 157.657 31.0685C178.728 53.2147 193.303 90.6333 180.824 126.777C171.366 154.09 147.948 178.581 118.035 185.113C108.03 187.254 97.7022 187.424 87.6317 185.614Z" fill="#56251C"/>
</g>
<defs>
<clipPath id="clip0_13_10890">
<rect width="207" height="201" fill="white"/>
</clipPath>
</defs>
</svg>
