<svg width="48" height="48" viewBox="0 0 48 48" fill="none" xmlns="http://www.w3.org/2000/svg">
<circle cx="24" cy="24" r="24" fill="#505086"/>
<path d="M30.9365 22.9584L23.3824 15.4043C23.074 15.0959 22.926 14.7362 22.9384 14.3251C22.9507 13.914 23.1116 13.5543 23.4209 13.2459C23.7292 12.9633 24.089 12.8153 24.5001 12.8019C24.9112 12.7886 25.2709 12.9366 25.5792 13.2459L35.7542 23.4209C35.9084 23.5751 36.0179 23.7421 36.0826 23.922C36.1474 24.1018 36.1787 24.2945 36.1767 24.5001C36.1746 24.7057 36.1422 24.8984 36.0795 25.0782C36.0168 25.2581 35.9079 25.4251 35.7527 25.5793L25.5777 35.7543C25.2951 36.0369 24.9415 36.1782 24.517 36.1782C24.0926 36.1782 23.7267 36.0369 23.4194 35.7543C23.111 35.4459 22.9569 35.0795 22.9569 34.6551C22.9569 34.2306 23.111 33.8647 23.4194 33.5574L30.9365 26.0418L13.7084 26.0418C13.2716 26.0418 12.9052 25.8938 12.6092 25.5978C12.3132 25.3018 12.1657 24.9359 12.1667 24.5001C12.1678 24.0643 12.3158 23.6979 12.6107 23.4009C12.9057 23.1039 13.2716 22.9564 13.7084 22.9584L30.9365 22.9584Z" fill="white"/>
</svg>
