<svg width="96" height="74" viewBox="0 0 96 74" fill="none" xmlns="http://www.w3.org/2000/svg">
<path d="M82.9416 20.5992C83.0244 20.7642 83.0129 20.9629 82.9104 21.1165C82.6958 21.438 82.2135 21.4198 82.0117 21.0901C80.7949 19.102 78.6528 16.2407 77.3565 14.655C76.3278 13.3923 75.1992 12.1142 74.0246 10.9902C73.9817 10.9492 73.9394 10.8952 73.8974 10.8353C73.7104 10.5688 73.7409 10.1583 73.9708 9.9277C74.1794 9.71849 74.5137 9.70318 74.7391 9.89419C78.8825 13.4051 80.4588 15.6502 82.9416 20.5992Z" fill="#222550"/>
<path d="M39.5651 1.27762C39.5676 1.28014 39.5692 1.28341 39.5696 1.28694C39.599 1.53963 39.5537 1.82226 39.569 2.07452C39.8483 8.20761 40.3802 14.3333 40.5145 20.4734C40.5189 20.6753 40.5842 20.8713 40.7022 21.0351L40.8829 21.286C40.9069 21.3194 40.9773 21.35 41.0184 21.3521C41.1842 21.3606 41.1626 21.3771 41.04 21.489C40.5914 21.8984 41.0277 22.0271 40.9603 22.4253C40.8906 22.8365 40.3236 22.6311 40.2989 22.2148C40.1081 19.0058 39.9028 15.7816 39.7225 12.5762C39.4922 8.49562 40.068 0.234418 36.9433 1.11212C35.8071 1.42779 36.5441 2.83674 36.5441 2.94452C36.5902 6.42455 36.9203 9.90457 37.0201 13.3769C37.0523 14.4939 36.4663 14.5135 36.4436 13.3962C36.3781 10.1772 36.3409 6.97846 36.0681 4.0609C36.0681 4.04996 36.0406 4.00665 35.9966 3.94628C35.7611 3.62319 35.4885 2.93799 35.5921 2.55187C35.6228 2.44408 36.4827 0.911945 36.9433 0.796457C37.7648 0.596279 38.356 1.14292 38.5325 1.11212C38.9927 1.0429 39.2997 -0.716938 39.5606 1.26815C39.561 1.27161 39.5626 1.27515 39.5651 1.27762Z" fill="#4A3C54"/>
<path d="M74.3484 9.55775C74.3477 9.55775 74.3471 9.558 74.3467 9.55846L74.1072 9.79858C73.7988 10.1079 73.3028 10.1199 72.9658 9.84199C70.1619 7.52986 65.5346 5.0083 61.9816 3.6233C61.3029 3.35874 60.635 3.73211 60.7806 4.44582C60.8084 4.58226 60.8337 4.71828 60.8453 4.85387C60.8499 4.90839 60.8328 4.96219 60.8001 5.00607C60.6632 5.1899 60.3914 5.09454 60.4147 4.8665C60.4631 4.39359 60.5423 3.89816 60.5788 3.4142C60.6196 2.87282 61.1533 2.40659 61.6732 2.56293C66.758 4.09192 70.1511 6.06078 74.3499 9.55344C74.3516 9.55488 74.3506 9.55775 74.3484 9.55775Z" fill="#766E88"/>
<path d="M39.5758 2.07467C39.5718 2.07467 39.5686 2.07162 39.5684 2.0677C39.5615 1.94136 39.5686 1.80978 39.5742 1.67986C39.5839 1.45675 39.7416 1.25159 39.9611 1.21061C41.9487 0.839561 43.9857 0.302511 46.0024 0.165273C46.8622 0.111378 56.5894 -0.0887997 55.4532 1.52033C55.338 1.68201 52.1826 1.14307 51.722 1.11997C47.5381 0.958295 43.6689 1.31241 39.5771 2.07454C39.5767 2.07462 39.5762 2.07467 39.5758 2.07467Z" fill="#BEADA4"/>
<path d="M60.5243 2.23227C60.5268 2.23478 60.5285 2.23795 60.5292 2.24142C60.7418 3.2798 60.3592 4.53993 60.3669 5.57755C60.4248 11.0112 60.3324 16.4448 60.3605 21.8784C60.3638 22.5128 60.6968 22.8067 61.3189 22.9315C62.5295 23.1886 62.494 23.2099 61.2565 23.1993C60.946 23.1967 60.6753 23.2249 60.4595 23.2949C60.2992 23.3468 60.0387 23.4151 60.0521 23.2471C60.0752 19.744 60.436 3.58347 59.8909 1.75107C59.5454 0.596195 58.9466 3.20621 58.3785 2.70577C57.2661 1.72104 60.0248 -0.163087 60.5193 2.22283C60.52 2.22631 60.5218 2.22976 60.5243 2.23227Z" fill="#4A3C54"/>
<path d="M82.4506 21.819C82.4483 21.8213 82.4478 21.8248 82.4494 21.8276C86.7625 29.6999 87.3018 39.3522 85.859 48.1925C85.5599 50.0249 84.8164 52.0667 84.0359 53.7513C83.4302 55.0497 82.6004 56.2359 81.8412 57.4426C81.8207 57.4752 81.7896 57.4998 81.7531 57.5122C81.6069 57.5619 81.4754 57.4037 81.5488 57.2679C84.556 51.7058 84.9993 44.0435 84.8267 37.8294C84.7888 36.5518 84.8183 33.0736 84.0645 32.3576C84.0465 32.3406 84.0359 32.3179 84.0359 32.2931C84.0359 32.2341 84.0952 32.1937 84.1508 32.2132C84.6635 32.3933 85.1527 32.4115 85.3027 31.6162C85.7941 29.0985 82.0782 28.8984 81.4948 28.6674C80.6886 28.3517 79.9286 28.0207 79.1148 27.7127C78.4074 27.4547 77.2518 26.2096 76.5381 25.9693C75.9092 25.7575 75.1337 25.5097 74.4759 25.147C73.8434 24.7982 73.6793 24.0238 73.7353 23.3038C73.7866 22.6449 73.7968 21.9649 73.9463 21.4048C74.1164 20.7679 74.3411 20.0459 74.0981 19.4331C73.8695 18.8567 74.0275 18.2016 74.4673 17.7645C75.2592 16.9776 76.0082 16.1207 76.7348 15.2862C76.9965 14.991 77.719 15.0749 77.9634 15.3846C79.4471 17.2657 81.516 20.0972 82.4519 21.8105C82.4534 21.8133 82.4529 21.8167 82.4506 21.819Z" fill="#7C9CB0"/>
<path d="M60.2122 70.8751C60.2127 70.8747 60.213 70.8741 60.2131 70.8735C60.248 70.7279 60.3073 70.6512 60.3756 70.6082C60.9631 70.2379 61.3117 69.5203 61.9982 69.4152C70.7963 68.0677 76.8611 65.4508 81.8092 57.501C82.5769 56.2768 83.4214 55.0758 84.0356 53.7592C84.581 52.5702 84.9411 52.775 84.5541 54.0245C83.237 58.2772 81.1441 61.4196 77.2796 64.5149C72.361 68.4471 66.3535 69.9874 60.215 70.8807C60.2119 70.8812 60.21 70.8774 60.2122 70.8751Z" fill="#34849D"/>
<path d="M47.3572 71.9926C46.9673 72.0114 47.1557 71.6698 47.546 71.6751C49.0118 71.6948 50.5023 71.7273 51.9524 71.6672C53.4485 71.6015 55.8702 71.4058 57.773 71.2026C58.5667 71.1179 58.8557 71.4969 58.08 71.6848C58.0338 71.696 57.9889 71.7086 57.9459 71.7232C57.8047 71.7711 57.6626 71.8263 57.5138 71.836C56.4938 71.9022 56.4995 72.3931 57.5164 72.2892C58.6535 72.173 59.7766 72.0323 60.8532 71.8752C61.907 71.7215 62.0178 72.0534 60.9633 72.2028C60.2263 72.3072 59.4928 72.3895 58.9311 72.4602C55.6605 72.8683 52.39 73.0685 49.0887 73.0993C43.9833 73.1455 40.1293 72.876 35.116 71.9829C34.1671 71.8132 34.323 70.9647 35.2775 71.0998C39.2346 71.6598 43.2146 72.3 47.2212 72.1734C47.6122 72.1611 47.7479 71.9737 47.3572 71.9926Z" fill="#5D6084"/>
<path d="M60.6892 69.603C60.6892 69.6019 60.6909 69.602 60.6913 69.6031C61.0902 70.9623 60.4922 70.2966 60.2633 70.7287C60.2219 70.8067 60.1558 70.8746 60.0686 70.8887C59.7964 70.933 59.5288 70.989 59.2613 71.0282C57.5295 71.2505 54.5478 71.523 52.5661 71.6363C52.1677 71.6591 51.6651 71.5259 51.2663 71.5098C50.0293 71.4599 51.1197 70.3812 52.3548 70.2976C53.8119 70.1989 55.2608 70.0488 56.7201 69.9196C58.0326 69.8041 59.3835 69.781 60.6884 69.604C60.6889 69.6039 60.6892 69.6035 60.6892 69.603Z" fill="#5C8FA5"/>
<path d="M95.2368 35.257C95.5923 35.4244 95.6148 35.7389 95.5955 36.1313C95.5355 37.3512 95.5135 38.5789 95.4932 39.8043C95.4807 40.5605 94.7861 41.1188 94.0446 40.9701C93.4858 40.858 93.0799 40.3723 93.0771 39.8023C93.0723 38.8141 93.0807 37.8258 93.0572 36.8376C93.0314 35.7561 94.258 34.7963 95.2368 35.257Z" fill="#B6AFB5"/>
<path d="M95.9848 42.9839C95.9784 43.1808 95.7165 43.2231 95.6438 43.04C95.6341 43.0156 95.6298 42.989 95.6308 42.9628C95.6696 41.9899 95.4679 41.5438 95.4679 41.2476C95.4962 39.4857 95.5115 37.7107 95.6042 35.9528C95.6127 35.7905 95.8033 35.728 95.9018 35.8573C95.9282 35.892 95.9426 35.9359 95.9406 35.9795C95.8318 38.2459 96.0595 40.7017 95.9848 42.9839Z" fill="#222550"/>
<path d="M95.4676 41.248C95.4676 41.5405 95.6672 41.9948 95.6288 43.0034C95.6135 43.3498 95.4983 44.9436 95.3908 45.0745C95.2757 45.213 93.2796 45.3131 93.1644 45.2361C93.036 45.1449 93.053 43.3078 93.0725 41.9991C93.0819 41.3704 93.6689 40.8949 94.2854 41.0186L95.4601 41.2542C95.464 41.2549 95.4676 41.252 95.4676 41.248Z" fill="#395E82"/>
<path d="M35.4383 3.3422C35.4383 3.34379 35.4391 3.34512 35.4406 3.34567C35.5819 3.39785 36.0679 4.01494 36.0755 4.06088C36.6156 9.7583 36.2432 16.5279 36.9434 22.4275C36.9859 22.7858 36.7504 22.9085 36.3903 22.9315C32.5209 23.1702 24.3292 25.172 20.2756 26.273C17.7037 26.9736 14.0263 28.7983 11.6233 28.6597C11.6079 28.6597 11.6693 28.3364 11.5465 28.3441C10.8663 28.3544 10.7835 28.2316 10.9301 27.5673C11.123 26.6929 11.3108 25.7946 11.6233 24.9949C12.3952 23.0369 14.5647 20.0949 15.2329 18.2915C15.4329 17.7517 15.8829 17.5762 16.222 17.111C17.7344 15.0245 19.385 13.1844 21.3044 11.4598C25.4028 7.76531 30.1841 5.00187 35.4335 3.33868C35.4359 3.33793 35.4383 3.3397 35.4383 3.3422Z" fill="#E0DCD9"/>
<path d="M11.6001 28.6675C11.6023 28.6675 11.602 28.6709 11.5999 28.6714C10.7889 28.8821 11.6002 29.4146 11.6154 29.4605C11.9814 30.9671 11.2181 32.8254 10.9773 34.357C10.5447 37.1078 10.9013 41.2974 10.9782 42.9956C11.055 52.1037 13.3889 57.8704 20.191 63.6987C20.2496 63.7516 20.2411 63.9793 20.8514 64.5256C20.9522 64.6158 20.8399 64.812 20.7147 64.7608C20.5904 64.71 20.5173 64.8481 20.6282 64.9236C20.9719 65.1577 21.0733 65.3303 21.1268 66.1105C21.1316 66.1802 21.0696 66.2512 20.9997 66.2492C20.9831 66.2487 20.9667 66.2421 20.953 66.2328C13.4761 61.1482 10.8543 55.9603 9.69611 47.0608C8.89273 40.8622 8.9286 35.6832 10.3698 29.7561C10.496 29.2371 10.9892 28.3598 11.5233 28.3518C11.6538 28.3518 11.5847 28.6675 11.6001 28.6675Z" fill="#FDFEFE"/>
<path d="M58.5459 22.9611C58.6655 22.8897 58.9552 23.032 58.96 23.1712C58.9695 23.4442 58.9286 23.7134 58.8759 23.9812C58.8272 24.2287 58.8404 24.2172 59.0926 24.2172C59.1287 24.2194 59.1636 24.2386 59.2035 24.2636C59.4229 24.4012 59.628 24.6951 59.7298 24.9333C60.4438 26.5655 59.8911 24.3019 59.8911 24.2172C59.868 23.7784 60.0523 23.3087 60.0523 23.2625C60.0369 23.455 60.1981 23.4088 60.2135 23.4242C60.43 23.5912 63.7012 24.1246 65.8824 24.509C66.9828 24.703 68.0003 25.5269 69.1098 25.6591C69.7873 25.7399 69.8815 26.284 70.3131 26.8125C70.3444 26.8508 70.3902 26.8889 70.4551 26.9274C71.0051 27.2473 70.9683 27.2272 70.3503 27.0756C68.7695 26.6877 67.1803 26.3688 65.6107 26.1266C63.1029 25.7405 59.6078 25.7045 57.5723 25.2924C56.5079 25.0769 56.8726 24.5298 57.9103 24.2095C58.0485 24.1634 57.9717 23.9016 57.9871 23.8939C58.1409 23.8261 58.3663 23.7419 58.5036 23.6392C58.691 23.4992 58.3449 23.0809 58.5459 22.9611Z" fill="#B6AFB5"/>
<path d="M40.3595 23.2475C40.3595 23.2524 40.3572 23.2571 40.3536 23.2605C40.2371 23.3733 40.4881 23.4571 39.8835 23.5708C39.7659 23.589 39.6905 23.4168 39.7425 23.3098C40.262 22.2409 39.9468 19.59 38.6167 20.3834C38.3527 20.5405 38.2006 20.9426 38.1378 21.4168C38.0369 22.179 37.8696 24.7681 37.1043 24.8412C36.6598 24.8412 37.0132 23.9991 37.0072 23.5546C37.005 23.3994 37.012 23.243 37.0198 23.0858C37.1445 20.835 37.139 18.5113 37.0926 16.215C37.0591 14.5565 37.5748 14.3072 37.5249 15.9653C37.5098 16.4689 37.4868 17.0019 37.4726 17.5214C37.445 18.5389 38.3363 19.4728 38.8469 18.5922C39.772 16.9966 39.9622 16.6691 40.0744 18.51C40.1708 20.091 40.2674 21.6715 40.3595 23.2475Z" fill="#E0DCD9"/>
<path d="M39.5688 23.5705C39.7229 23.5705 39.8642 23.7377 39.7793 23.8664C39.5641 24.1928 39.1252 23.9374 38.7895 23.7396C38.5809 23.6167 38.371 23.4638 38.2897 23.2357C38.2721 23.1861 38.2555 23.1339 38.2401 23.0795C37.952 22.0613 37.9848 22.3406 38.6361 23.1745C38.8114 23.3989 39.103 23.543 39.5688 23.5705Z" fill="#4A3C54"/>
<path d="M59.9122 1.77218C59.9087 1.76867 59.9019 1.76921 59.9032 1.77398C60.4419 3.67859 60.083 19.7612 60.06 23.2549C60.06 23.3011 59.8835 23.7707 59.8988 24.2096C59.9022 24.2533 59.8967 24.2849 59.8861 24.3078C59.8402 24.4063 59.5963 24.3998 59.4888 24.3835C59.244 24.3464 59.2078 23.9694 59.2454 23.7247C59.4053 22.6857 58.8769 21.2064 58.05 21.4893C57.6544 21.6247 57.7279 21.9075 58.1392 21.8325C58.3542 21.7932 58.5819 21.8444 58.7539 22.2309C58.8985 22.5557 58.8003 23.1344 58.4632 23.2472C57.7088 23.6074 56.2351 23.2934 57.6532 23.7753C57.7754 23.8168 58.0347 24.1672 57.9104 24.2019C57.8183 24.2327 56.229 24.3481 55.922 24.3635C54.2395 24.4453 50.0953 23.887 46.4068 23.8805C42.0347 23.8728 37.4802 25.1509 33.1356 25.6416C31.8305 25.7879 22.0803 28.113 20.2761 28.6674C18.8153 29.1203 17.1924 29.9225 16.0046 30.2687C15.3474 30.4603 14.6277 30.8455 14.0024 31.1238C13.7398 31.2406 13.449 31.3395 13.1615 31.4401C12.5349 31.6594 11.7008 31.3532 11.6688 30.6902C11.6464 30.2251 11.6995 29.8788 11.6414 29.5522C11.6337 29.5091 11.666 29.4681 11.7098 29.4681C11.75 29.4681 11.7806 29.5068 11.7802 29.547C11.7601 31.3094 18.0925 28.1462 21.0746 27.2353C24.0918 26.3191 27.2011 25.6647 30.2874 25.0026C30.4486 24.9487 30.1799 24.6946 30.1261 24.6869C29.6962 24.6176 22.7098 26.4654 21.7118 26.758C19.8308 27.3046 13.1362 29.9454 12.6602 29.9454C12.5527 29.9454 12.4376 29.6298 12.4222 29.6298C13.8195 29.5605 13.4203 28.8599 13.7734 28.6751C17.1668 26.9197 31.6616 23.8631 36.4062 22.9392C36.4317 22.9376 36.4551 22.937 36.4767 22.9375C36.7989 22.9441 37.0185 23.378 37.0348 23.6998C37.054 24.0779 36.6583 24.6445 36.9983 24.8109C37.0581 24.8402 37.1114 24.8581 37.1279 24.8563C37.934 24.7793 37.0511 23.2472 38.4791 23.5859C38.696 23.6377 39.1907 24.0622 39.5428 24.037C39.9209 24.01 40.0992 23.5214 40.383 23.2703C41.6391 22.1411 42.4005 21.2573 44.0892 21.2294C47.7904 21.1683 52.4761 20.8051 56.2875 21.2769C56.6256 21.3188 56.9625 21.6796 56.8953 22.0136C56.8695 22.1416 56.7483 22.1534 56.6177 22.1526C55.9786 22.1486 55.9607 22.143 56.5054 22.4772C56.8202 22.6697 56.2214 23.5166 56.5054 23.5936C56.5786 23.6136 56.6735 23.4629 56.7741 23.2326C57.2701 22.0972 57.3223 20.7988 57.2974 19.56C57.2419 16.7919 57.4497 14.0274 57.5233 11.2633C57.5355 10.8043 57.962 10.467 58.4103 10.5661C58.7383 10.6386 58.974 10.927 58.9679 11.2629C58.9673 11.2927 58.9667 11.3226 58.9661 11.3524C58.9468 12.2562 59.3184 12.2174 59.2947 11.3137C59.2387 9.17206 59.1436 6.98596 59.2846 5.12332C59.2846 5.10023 59.7453 5.18492 59.7606 5.04633C59.9208 3.25674 59.2022 1.71784 59.9075 1.78041C59.912 1.78081 59.9154 1.77539 59.9122 1.77218Z" fill="#E0DCD9"/>
<path d="M57.5069 10.3549C57.5093 10.3574 57.5107 10.3607 57.5107 10.3642C57.4742 13.26 57.2335 16.1654 57.2601 19.0728C57.2743 20.6215 57.9712 23.9756 56.4743 23.5782C56.1902 23.5012 56.7891 22.6543 56.4743 22.4618C55.9575 22.1447 55.8891 22.1328 56.4954 22.1366C56.6862 22.1378 56.8722 22.059 56.8769 21.8683C56.8814 21.6883 56.8474 21.4699 56.8658 21.3455C57.1499 19.413 57.1038 6.90182 57.0271 3.74516C57.0117 3.05224 56.4513 1.5817 56.5511 1.03506C56.6125 0.688595 57.7948 -0.658759 57.979 0.396027C58.0174 0.627002 57.3956 1.03506 57.3418 1.51241C57.2498 2.3511 57.5334 7.48829 57.5031 10.3457C57.5031 10.3492 57.5044 10.3524 57.5069 10.3549Z" fill="#392947"/>
<path d="M59.2616 5.1002C59.1351 6.77089 59.1986 8.70182 59.2535 10.6275C59.2837 11.6878 58.9576 11.7274 58.9469 10.6667C58.9085 8.20719 58.8473 3.46886 59.2595 5.08413C59.2608 5.08908 59.2616 5.09509 59.2616 5.1002Z" fill="#7D7B8A"/>
<path d="M36.3755 22.9467C36.3779 22.9455 36.3776 22.9417 36.375 22.9422C31.6145 23.8697 17.155 26.9139 13.7577 28.6751C13.4481 28.837 13.7166 29.3953 12.8468 29.5774C12.5596 29.6375 12.2922 29.4944 12.0011 29.457C11.9411 29.4493 11.8712 29.4503 11.7872 29.4648C11.7754 29.4669 11.7632 29.4681 11.7512 29.4681C11.6665 29.4681 11.5678 29.4263 11.5048 29.3697C11.3308 29.2132 11.0349 28.9147 11.4248 28.7365C11.5411 28.6834 11.6725 28.6801 11.8004 28.682C14.2038 28.7184 17.7562 26.9705 20.2604 26.2883C24.3215 25.1874 32.5051 23.178 36.3746 22.9469C36.3749 22.9469 36.3752 22.9468 36.3755 22.9467Z" fill="#B6AFB5"/>
<path d="M11.9804 29.9545C11.6964 29.7802 12.0385 29.428 12.3293 29.5908C12.3987 29.6297 12.4352 29.6641 12.4714 29.7349C12.5183 29.8267 12.587 29.9452 12.6529 29.9452C13.1289 29.9452 19.8235 27.3044 21.7045 26.7578C22.7025 26.4652 29.6966 24.6174 30.1188 24.6867C30.1726 24.6944 30.4413 24.9485 30.28 25.0024C27.2014 25.6568 24.0844 26.3189 21.0673 27.2351C18.4104 28.0399 13.0943 30.6384 11.9804 29.9545Z" fill="#392947"/>
<path d="M35.3621 23.7321C36.4772 23.6761 36.2478 23.8249 35.4197 24.0273C34.9241 24.1484 34.8526 23.7571 35.3621 23.7321Z" fill="#9C96A9"/>
<path d="M59.1046 24.2101C59.1021 24.2101 59.1 24.2116 59.0992 24.2139C59.0911 24.2391 59.0417 24.3835 58.9655 24.4552C58.8723 24.5428 58.801 24.3735 58.8276 24.2483C58.9189 23.8187 59.0133 23.3782 58.9469 22.9321C58.939 22.8811 58.9307 22.8324 58.9219 22.7858C58.6891 21.5421 58.5961 21.0436 59.0709 22.2164C59.3207 22.8337 59.3667 23.6842 59.1097 24.207C59.1087 24.209 59.1068 24.2101 59.1046 24.2101Z" fill="#766E88"/>
<path d="M58.4277 23.6897C58.1866 23.8328 57.8373 23.8468 57.5723 23.7552C56.6045 23.4208 57.1887 23.5082 57.8505 23.4174C58.2423 23.3637 58.7678 23.4878 58.4277 23.6897Z" fill="#393C5B"/>
<path d="M59.7202 24.6452C59.7208 24.4912 59.9105 24.3632 59.8987 24.2097C59.8987 24.2944 60.4515 26.558 59.7375 24.9257C59.7255 24.8977 59.7198 24.7716 59.7202 24.6452Z" fill="#5D6084"/>
<path d="M20.9957 66.2549C20.9951 66.2549 20.9951 66.2556 20.9956 66.2557C21.0474 66.2615 21.0992 66.2475 21.151 66.2549C21.4427 66.3242 24.1221 67.9641 26.6326 68.8033C29.0279 69.604 32.1526 70.2893 34.6554 70.7127C38.6916 71.4066 42.0917 71.6051 46.0945 71.6587C46.5098 71.6643 47.1044 72.0082 47.5192 71.9848C47.8446 71.9664 47.6781 72.1585 47.3523 72.1704C41.9469 72.3669 36.5849 71.1431 31.2709 70.591C29.6214 70.4197 27.9728 70.1629 26.4193 69.5825C24.3989 68.8276 22.529 67.9544 20.5214 66.8862C20.2242 66.6875 20.0331 66.2389 20.3484 66.4076C20.4903 66.4835 20.6811 66.5706 20.9207 66.5706C21.0461 66.5706 20.9872 66.2721 20.996 66.2555C20.9962 66.2551 20.9961 66.2549 20.9957 66.2549Z" fill="#393C5B"/>
<path d="M10.3492 26.4416C10.349 26.442 10.3489 26.4423 10.3488 26.4427C10.3091 26.5709 10.2717 26.7007 10.2362 26.8316C9.68722 28.8567 7.42116 30.2064 6.91102 32.2417C6.88461 32.347 6.86593 32.4567 6.85577 32.5707C6.6408 35.1268 7.93827 31.9856 8.6062 33.5254C8.86194 34.1138 8.85891 35.1924 8.8073 35.8319C8.57457 38.7151 8.50584 41.6136 8.6062 44.5121C8.60831 44.5738 8.61129 44.6358 8.61507 44.698C8.88443 49.1425 5.75834 45.7733 5.65365 41.322C5.55137 36.9728 5.68647 32.6187 5.89593 28.2676C5.90018 28.1792 5.82968 28.1052 5.74118 28.1052C5.65671 28.1052 5.58781 28.1729 5.58631 28.2573L5.21394 49.2774C5.19939 50.0987 4.52757 50.4981 4.16103 49.7629C3.50845 48.5542 3.0862 34.38 3.52381 32.8017C3.5588 32.6779 3.59968 32.5618 3.64518 32.4527C4.17914 31.1729 4.58546 27.9992 5.82701 27.3815C6.66021 26.9675 9.13739 26.752 10.341 26.431C10.3472 26.4293 10.3521 26.4359 10.3492 26.4416Z" fill="#CBBEB9"/>
<path d="M2.89224 34.4153C2.89061 34.412 2.8857 34.413 2.88549 34.4167C2.68159 37.8967 2.89585 41.4884 3.02911 44.9783C3.04165 45.3068 2.91516 45.5892 2.58738 45.614C1.9086 45.6655 0.717849 45.5476 0.667523 45.4747C0.640964 45.4365 0.6118 45.2875 0.58246 45.0595C0.369647 43.4054 2.31602 36.4172 0.90552 35.5274C0.791547 35.4547 0.646112 35.5292 0.518753 35.6019C0.439694 35.647 0.365933 35.573 0.354196 35.4827C0.340774 35.3794 0.262019 35.2531 0.329984 35.1742C0.910837 34.5003 2.07156 34.7579 2.89042 34.4202C2.89234 34.4194 2.89316 34.4171 2.89224 34.4153Z" fill="#CBBEB9"/>
<path d="M3.80214 30.3813C4.19609 30.1117 4.8268 30.0799 5.1039 30.4687C5.3908 30.8712 4.07766 31.1824 3.58011 32.629C3.54379 32.7346 3.44682 32.8095 3.33517 32.8095C3.18374 32.8095 3.06705 32.6751 3.08022 32.5243C3.14993 31.7256 3.09603 30.8646 3.80214 30.3813Z" fill="#AF9F9F"/>
<path d="M7.17378 31.6282C7.91327 30.4678 9.2779 31.6867 9.09548 33.0506C9.08494 33.1294 9.0746 33.2086 9.06442 33.2882C8.9689 34.0362 8.90728 34.2172 8.6067 33.5257C7.94645 31.9858 6.64131 35.1271 6.85627 32.571C6.88606 32.2145 7.00009 31.9008 7.17378 31.6282Z" fill="#E0DCD9"/>
<path d="M11.6179 25.0026C11.6166 25.0026 11.6155 25.0034 11.6151 25.0045C11.1703 26.1436 10.9784 27.4824 10.6638 28.6674C8.95178 35.0577 8.85966 40.4856 9.71184 47.0607C10.8558 55.8588 13.4278 61.0206 20.6959 66.0456C20.784 66.1065 21.0201 66.5627 20.9131 66.5627C20.4024 66.5627 19.4524 66.2529 18.9979 66.0202C18.4425 65.7359 17.8735 65.4581 17.4058 65.2708C17.1559 65.1707 16.9217 65.0292 16.7363 64.834C13.9312 61.8801 12.2801 59.3055 10.7937 55.9874C10.0726 54.3775 6.3239 54.406 5.94369 52.6834C5.67578 51.4696 4.98095 51.713 4.19049 50.7537C3.01486 49.327 3.49024 46.7736 3.04792 46.26C2.74083 45.8981 0.652592 46.1137 0.345499 45.7827C0.0259032 45.4343 -0.111356 37.7465 0.104422 35.7692C0.133088 35.5065 0.334054 35.402 0.345499 35.666C0.435105 38.0622 0.305653 40.5964 0.421553 42.9916C0.481928 44.2393 0.585041 45.345 0.667947 45.4593C1.58139 46.7825 3.01771 44.6374 2.951 43.0309C2.83149 40.1529 2.71911 37.2329 2.88669 34.3879C2.91369 33.948 2.95847 33.4368 3.02105 32.9797C3.03567 32.8728 3.12754 32.7942 3.23537 32.7942C3.38017 32.7942 3.49091 32.9263 3.4707 33.0697C3.11647 35.5817 3.53696 48.5993 4.16113 49.7554C4.55109 50.4665 5.19964 50.083 5.214 49.2722L5.58642 28.2497C5.58792 28.1653 5.65677 28.0977 5.7412 28.0977C5.82971 28.0977 5.9002 28.1718 5.89585 28.2602C5.68155 32.613 5.54788 36.9689 5.65203 41.3197C5.75851 45.7679 8.88768 49.1368 8.61549 44.6957C8.61157 44.6317 8.60847 44.568 8.6063 44.5046C8.49114 41.1786 8.6063 37.8525 8.92107 34.5496C9.07462 32.9943 9.26655 31.7779 9.55829 30.2534C9.79629 29.0062 9.98055 27.6434 10.3491 26.4347C10.5145 25.8969 10.8173 25.3328 11.0866 24.7725C11.139 24.6635 11.4967 24.7248 11.5404 24.8375C11.5625 24.8945 11.5889 24.9485 11.6205 24.9979C11.6218 24.9999 11.6203 25.0026 11.6179 25.0026Z" fill="#392947"/>
<path d="M6.3013 51.7457C5.62282 50.4719 7.65549 48.9107 8.98491 49.4723C10.5722 50.1428 8.22627 52.8845 6.68503 52.114C6.51878 52.0309 6.38988 51.9119 6.3013 51.7457Z" fill="#CBBEB9"/>
<path d="M0.502596 39.3343C0.503789 39.3355 0.505811 39.3345 0.505531 39.3328C0.33312 38.3103 0.369159 37.2986 0.358631 36.2751C0.35495 35.9172 0.596319 35.3192 0.897982 35.5117C1.38136 35.8195 1.04426 42.5636 0.499753 39.3364C0.499473 39.3347 0.501405 39.3331 0.502596 39.3343Z" fill="#E0DCD9"/>
<path d="M73.5491 10.3588C73.941 10.7144 74.2207 11.2703 73.8592 11.6567C73.3408 12.2109 72.2936 12.8871 72.1979 12.9073C70.9465 13.1844 70.0406 12.1758 69.342 11.9526C69.0468 11.8602 68.7419 11.8188 68.4399 11.7846C67.0069 11.6224 65.3493 11.145 64.0196 11.7032C62.3793 12.3917 61.0168 11.0316 60.9843 9.25292C60.958 7.81878 60.9095 6.38766 60.8432 4.94633C60.8022 3.93444 61.4995 3.43455 62.4376 3.81602C66.1904 5.34201 70.9526 8.01461 73.5491 10.3588Z" fill="#FDFEFE"/>
<path d="M74.0251 10.996C74.0251 10.9937 74.0278 10.9925 74.0295 10.9941C75.0851 11.9982 76.0917 13.1248 77.0274 14.2535C77.2356 14.5046 77.2536 15.0191 76.9677 15.1761C76.7288 15.3073 76.5658 15.304 76.2933 15.3079C74.1322 15.3387 72.6337 14.7487 71.036 15.045C70.1942 15.2011 69.365 15.4774 68.5269 15.3025C68.1038 15.2141 67.665 15.1185 67.2228 15.1023C66.0777 15.0603 64.879 15.4628 63.7643 15.1971L61.7115 14.7077C61.2024 14.5864 60.8387 14.4838 60.9044 13.9645C60.9854 13.3239 61.5512 12.4628 62.183 12.3293C62.8571 12.1869 63.5162 11.9193 64.1805 11.6384C65.4385 11.1063 66.957 11.6215 68.3147 11.7704C68.6573 11.808 69.0059 11.8472 69.3419 11.9523C70.0483 12.1756 70.9542 13.1842 72.1979 12.907C72.3437 12.8762 74.697 11.3235 74.0267 10.9984C74.0258 10.998 74.0251 10.997 74.0251 10.996Z" fill="#E0DCD9"/>
<path d="M61.004 12.4222C61.004 13.6309 60.8505 14.2469 60.8428 14.4933C60.8351 15.6866 60.7277 22.1462 60.8428 22.5389C60.8438 22.5426 60.8451 22.5461 60.8466 22.5495C61.014 22.9266 60.9321 23.0106 60.5253 22.9409C60.3752 22.9152 60.3661 22.7808 60.365 22.6284C60.3238 16.9758 60.4264 11.3161 60.3677 5.67103C60.3671 5.61543 60.3848 5.56117 60.418 5.51657C60.5606 5.32517 60.864 5.41825 60.8739 5.65672C60.9676 7.91716 61.011 10.1577 61.004 12.4299V12.4222Z" fill="#7C88A5"/>
<path d="M76.7218 15.2887C76.7247 15.2916 76.7248 15.2963 76.7221 15.2994C75.7716 16.391 74.7828 17.5206 73.7098 18.4813C71.6138 20.3445 71.1762 19.5977 68.1514 24.2172C68.0823 24.325 67.9057 23.8938 67.6754 24.5329C67.6177 24.6679 67.5121 24.8086 67.3683 24.7785C66.268 24.5488 63.4156 24.0901 61.6592 23.7573C60.9465 23.6222 60.945 23.1731 61.6681 23.2301C61.841 23.2438 62.0226 23.2641 62.2107 23.2897C63.2528 23.4314 63.3005 23.2769 62.2621 23.1103C62.1944 23.0995 62.127 23.0884 62.0597 23.0771C61.6506 23.0085 60.9514 22.9391 60.8426 22.5388C60.7761 22.3168 60.7838 20.074 60.8036 17.9849C60.8206 16.1989 62.5023 14.8888 64.2396 15.303C65.0532 15.4969 65.9038 15.2142 66.7343 15.1146C67.3469 15.0412 67.9619 15.18 68.5452 15.3015C69.3711 15.4736 70.1878 15.1987 71.017 15.0437C72.7186 14.7256 74.3098 15.4169 76.7157 15.2864C76.7179 15.2863 76.7202 15.2871 76.7218 15.2887Z" fill="#BFC3C9"/>
<path d="M75.8377 25.7277C77.3261 26.2514 76.6336 26.6078 75.1174 26.1713C74.0379 25.8606 72.9527 25.5733 71.8687 25.2805C69.9946 24.7744 69.1487 22.5422 70.4592 21.1101C71.2942 20.1976 71.8679 19.8853 72.6183 19.3507C73.1744 18.9546 73.9844 19.1461 74.2361 19.7808C74.3974 20.1876 74.2448 20.651 74.0684 21.0515C73.8675 21.5074 73.8159 22.0892 73.7765 22.6897C73.7043 23.7921 74.0174 24.9739 75.0303 25.4149C75.2976 25.5313 75.5716 25.6341 75.8377 25.7277Z" fill="#ADB3C0"/>
<path d="M76.5659 27.7168C76.5659 27.7149 76.5678 27.7137 76.5695 27.7144C78.4329 28.4606 79.4997 29.0994 81.1723 30.0997C81.8927 30.5286 83.4567 31.9139 83.9928 32.1559C84.0144 32.1656 84.0282 32.1864 84.0282 32.21C84.0282 32.2586 83.968 32.2925 83.9256 32.2688C83.3169 31.9289 80.3831 30.5682 79.1232 30.0014C78.7984 29.8553 78.5116 29.6417 78.2137 29.4466C76.3094 28.1995 70.8001 27.1249 70.4547 26.9199C69.948 26.6274 70.6083 26.3425 70.2167 25.8035C70.0359 25.5593 68.4679 25.0749 67.8383 24.8945C67.7387 24.866 67.6616 24.7741 67.661 24.6705C67.6605 24.5777 67.7295 24.5282 67.8214 24.541C68.3671 24.6169 70.098 25.1099 71.1251 25.5023C71.5362 25.6594 71.2583 26.0437 71.673 26.1912C72.5819 26.5145 75.0883 27.1285 76.5624 27.7192C76.5641 27.7199 76.5659 27.7186 76.5659 27.7168Z" fill="#939AAF"/>
<path d="M68.0582 24.2008C68.1694 24.2641 68.2366 24.2365 68.3588 24.2748C71.3947 25.225 74.5004 25.8883 77.5181 26.9196C78.1065 27.1184 78.7249 27.4926 78.9863 27.6459C79.0601 27.6892 79.1157 27.765 79.1293 27.8494C79.1557 28.0133 79.0095 28.1492 78.8536 28.0922C78.3214 27.8975 77.7926 27.5547 77.2831 27.514C76.8109 27.4762 76.3007 27.6045 75.8524 27.4515C74.1145 26.8583 71.7192 26.2826 71.3734 26.0546C71.188 25.9323 71.6313 25.7027 71.4271 25.6156C70.6118 25.2677 68.9753 24.7786 68.1507 24.5957C67.9395 24.5489 67.8701 24.0938 68.0582 24.2008Z" fill="#5E7495"/>
<path d="M79.1483 27.9715C79.1298 27.8564 79.2426 27.7645 79.3513 27.8066C79.6458 27.9208 79.9351 28.0375 80.223 28.1549C80.7314 28.3622 81.3038 29.2143 81.3837 29.7575C81.4215 30.0136 81.0284 30.0137 80.8062 29.8809C79.7832 29.2697 78.9676 28.7912 77.9857 28.3266C77.3805 28.0402 77.4199 27.4681 78.0341 27.7346C78.3431 27.8687 78.6561 28.0321 78.9698 28.1326C79.0713 28.1651 79.1653 28.0767 79.1483 27.9715Z" fill="#2D4368"/>
<path d="M50.2178 70.3971C50.2134 70.3971 50.2096 70.4007 50.209 70.4051C50.1838 70.5859 50.1702 70.7379 50.1673 70.8657C50.1543 71.4354 50.2442 71.7039 49.6744 71.7009C48.7394 71.696 47.8018 71.6759 46.8782 71.6675C43.2719 71.6355 40.1945 71.5081 36.7901 71.0432C36.2406 70.9682 36.1953 70.9846 36.6095 70.6158C36.9223 70.3372 37.2248 69.8023 37.6409 69.8505C41.8065 70.3328 46.0224 70.4914 50.2178 70.3971Z" fill="#7C9CB0"/>
<path d="M20.5026 63.8617C20.5099 63.8657 20.5168 63.8707 20.5227 63.8766C22.1645 65.4941 24.3254 66.0017 26.3869 66.7318C31.047 68.3794 34.5786 69.0108 39.5689 69.4419C45.2115 69.9222 50.8176 69.832 56.4441 69.3208C56.6573 69.3014 56.8262 69.4983 56.7738 69.7059C56.7416 69.8337 56.632 69.927 56.5008 69.9389C54.4026 70.1276 52.3241 70.352 50.2096 70.3966C45.7568 70.4967 41.2886 70.3196 36.8664 69.7576C32.452 69.2033 25.2353 67.7327 21.6193 65.1381C20.4923 64.3326 20.3046 63.9323 20.2329 63.7768C20.2214 63.7519 20.2466 63.7061 20.274 63.7061C20.301 63.7061 20.3568 63.7547 20.3758 63.7739C20.3983 63.7966 20.4371 63.8257 20.5026 63.8617Z" fill="#DCE6E4"/>
<path d="M21.6014 65.1278C21.6182 65.1347 21.6338 65.1433 21.6486 65.1538C24.7303 67.3524 30.3971 68.7358 34.7329 69.4453C35.9341 69.6419 36.6922 70.7341 35.4842 70.5842C34.9843 70.5222 34.3787 70.6673 33.8832 70.5764C31.5312 70.1451 28.7884 69.524 26.6246 68.8029C24.3948 68.0576 22.0379 66.6806 21.3289 66.3334C21.2202 66.2802 21.1382 66.1709 21.1284 66.0503C21.1183 65.9249 21.1068 65.8161 21.0929 65.7208C21.0536 65.45 21.3481 65.0242 21.6014 65.1278Z" fill="#ADB3C0"/>
<path d="M68.5843 25.1209C69.1367 25.2969 69.0599 25.6844 68.4982 25.5409C68.4479 25.528 68.3988 25.5139 68.3514 25.4984C67.9185 25.3571 68.1504 24.9826 68.5843 25.1209Z" fill="#7C88A5"/>
<path d="M39.9725 21.8011C40.0438 22.9759 38.5451 23.7388 38.4154 22.569C38.274 21.2925 39.7094 20.131 39.9264 21.3968C39.9488 21.5277 39.9641 21.6636 39.9725 21.8011Z" fill="#CFCACE"/>
<path d="M39.7298 12.576C39.7298 12.581 39.7285 12.5859 39.7258 12.5901C38.9787 13.7917 39.3941 15.9859 39.1791 17.5493C38.9714 19.0595 37.4887 17.4616 37.5335 15.9379C37.5865 14.1358 36.9705 11.6827 36.8688 9.88276C36.7382 7.57145 36.5821 5.25787 36.5514 2.9443C36.5514 2.83651 35.8144 1.43526 36.9507 1.1119C40.0753 0.234194 39.4995 8.4954 39.7298 12.576Z" fill="#FDFEFE"/>
<path d="M37.9036 4.30762C38.4026 8.95021 38.6252 13.6544 38.5408 18.3201L37.9036 4.30762Z" fill="#9F9A9E"/>
<path d="M37.5808 2.07474C38.3486 1.75907 38.1106 3.25271 37.8956 3.3451C37.1279 3.69156 37.1893 2.22872 37.5808 2.07474Z" fill="#574C5D"/>
<path d="M84.0362 32.1706C83.7257 32.0508 82.9783 31.4482 82.2822 30.9043C81.7753 30.5082 80.9193 29.6863 81.0829 29.0642C81.1513 28.8043 81.6421 28.7157 81.9055 28.769C83.0387 28.9985 85.7253 29.4454 85.3029 31.6163C85.134 32.4709 84.5812 32.3862 84.0362 32.1706Z" fill="#222550"/>
<path d="M83.4754 30.423C83.7902 30.2767 84.6347 30.8618 84.6654 30.9773C85.1798 32.6711 82.3622 30.9311 83.4754 30.423Z" fill="#392947"/>
<path d="M55.922 24.3713C56.0294 25.5053 60.015 25.5758 63.4854 25.8827C64.6936 25.9896 65.4338 26.8621 64.6118 27.7541C63.8093 28.6248 62.5384 29.358 61.39 29.0696C60.7477 28.9083 60.0251 28.7545 59.3384 28.6751C55.9143 28.5288 52.5286 28.0438 49.0968 28.0361C43.5691 28.0207 39.1854 28.9215 34.0109 29.3064C32.0358 29.4546 28.7623 28.9067 25.2353 29.6162C22.2675 30.2131 19.0774 30.6013 16.4073 32.0276C15.5771 32.4711 14.9617 33.0736 14.3854 33.7817C12.3158 36.3241 10.9716 39.7173 10.9866 42.9955C10.8791 40.6242 10.2265 33.387 11.9386 32.0088C13.5186 30.732 16.2361 30.239 18.1165 29.4702C18.8294 29.1787 19.5716 28.8781 20.2761 28.6597C22.088 28.1053 31.8382 25.7802 33.1357 25.6339C33.8542 25.5528 34.5798 25.5431 35.3081 25.556C38.2896 25.6087 41.2589 24.1833 44.2315 23.9477C48.291 23.626 53.8653 24.4504 55.9076 24.3565C55.916 24.3561 55.922 24.3629 55.922 24.3713Z" fill="#271234"/>
<path d="M78.6278 29.7877C78.6302 29.7853 78.633 29.7844 78.636 29.7856C79.3262 30.0774 83.799 32.1402 84.0288 32.3322C84.8119 32.9867 84.7889 36.5283 84.8196 37.8294C84.9962 44.1889 84.5279 52.0652 81.3264 57.6548C81.3059 57.6905 81.2844 57.7272 81.2619 57.7649C81.0923 58.0492 81.1542 57.8766 81.0116 57.5778C80.8427 57.2467 80.2669 57.9858 80.3744 57.2621C80.3975 57.0927 81.5567 55.3142 81.9636 54.2364C83.5221 50.0865 85.4722 39.1229 82.7544 35.6044C79.759 31.7049 73.46 31.2096 68.62 30.3419C68.1946 30.2656 67.7693 30.1892 67.346 30.1072C66.7189 29.9857 66.1033 29.9189 65.4916 29.8615C64.3621 29.7554 63.8707 28.5452 64.6405 27.7118C65.3997 26.8897 66.5587 26.2698 67.6574 26.4825C71.393 27.2056 75.1701 28.3466 78.619 29.7894C78.622 29.7907 78.6255 29.79 78.6278 29.7877Z" fill="#0D142C"/>
<path d="M60.6894 69.5923C60.6894 69.5945 60.6878 69.5964 60.6856 69.5967C59.5261 69.7537 58.3304 69.7894 57.1575 69.8765C56.9435 69.8924 56.775 69.6945 56.8275 69.4864C56.8598 69.3583 56.9688 69.2646 57.1003 69.2521C64.6455 68.5355 72.9282 67.3206 78.2413 61.4713C78.6178 61.0568 79.0179 60.662 79.3992 60.2519C80.1089 59.4887 80.8915 58.4089 81.3041 57.6985C81.3235 57.6651 81.354 57.6402 81.3906 57.6277C81.5313 57.5799 81.6519 57.7371 81.5717 57.8622C76.4243 65.8975 70.0585 68.314 60.6932 69.5879C60.6911 69.5882 60.6894 69.5901 60.6894 69.5923Z" fill="#82BCC2"/>
<path d="M34.0004 29.3011C34.0066 29.3043 34.011 29.3104 34.0125 29.3172C34.1159 29.8053 34.9494 29.7848 35.6009 29.8514C36.0827 29.9007 35.9183 30.1633 35.4382 30.0991C34.4632 29.9759 33.5726 29.8989 32.5823 29.9374C32.5571 29.9383 32.5314 29.9393 32.5051 29.9404C30.5395 30.0235 28.2156 30.242 26.3099 30.7304C20.859 32.1702 21.0663 33.5098 18.7631 38.0523C17.9646 39.6307 16.9743 39.9925 16.5366 42.9875C15.9301 47.1681 17.0894 52.5268 18.6018 56.4456C18.7938 56.9384 20.3753 60.4261 20.5903 60.5031C20.9522 60.6451 21.2056 60.4541 20.8313 60.5592C20.736 60.586 20.6743 60.6398 20.667 60.7418C20.667 61.1486 20.7833 61.3739 20.3825 61.4439C19.219 61.6471 18.9605 62.6346 20.2277 63.6043C20.2633 63.6315 20.2453 63.6906 20.2004 63.6906C20.1894 63.6906 20.1786 63.6865 20.1703 63.6793C13.3783 57.8549 11.0473 52.0898 10.9706 42.9875C10.9407 39.7094 12.2998 36.3161 14.3694 33.7736C14.9458 33.0655 15.5611 32.463 16.3913 32.0196C19.0614 30.5933 22.2515 30.2051 25.2193 29.6081C28.7428 28.8994 32.0132 29.4454 33.9889 29.2988C33.9929 29.2985 33.9968 29.2993 34.0004 29.3011Z" fill="#54204D"/>
<path d="M21.4659 61.4713C21.4659 61.4726 21.4664 61.4739 21.4671 61.475C21.6326 61.7165 21.7038 61.8966 21.7509 62.0456C21.8319 62.3014 22.1875 62.2985 22.3967 62.1304C22.4128 62.1174 22.4279 62.1062 22.4456 62.0954C22.6024 62.0002 22.7482 61.9188 22.8837 61.8502C24.753 60.9041 23.8248 64.2313 21.7324 64.1255C21.2518 64.1012 20.8173 64.0184 20.5139 63.86C20.3721 63.7838 20.2844 63.6528 20.1589 63.5518C18.6693 62.3523 19.4947 61.1572 21.4602 61.4647C21.4634 61.4652 21.4659 61.468 21.4659 61.4713Z" fill="#CD5966"/>
<path d="M26.3873 66.7321C25.4663 66.4071 24.5287 66.1262 23.6269 65.7719C23.0363 65.5398 23.8256 63.9815 24.4147 63.7455C24.8115 63.5865 25.2036 63.8704 25.4125 64.2434C26.0871 65.4482 26.9669 66.8973 26.3873 66.7321Z" fill="#5F2E6C"/>
<path d="M23.5317 60.8345C23.5317 60.8393 23.529 60.8437 23.5249 60.8461C22.8943 61.2076 22.8699 61.706 22.4185 62.1126C22.2126 62.3076 21.8246 62.29 21.7368 62.0203C21.69 61.8769 21.6193 61.7034 21.4665 61.4735C21.1134 60.95 20.6681 60.8576 20.6758 60.7575C20.6855 60.5865 20.8498 60.5512 21.0693 60.5511C21.9005 60.5509 23.4492 60.0074 23.5317 60.8345Z" fill="#E0DCD9"/>
<path d="M63.3885 29.626C63.3909 29.6236 63.3944 29.6225 63.3977 29.623C63.8372 29.692 64.2742 29.7389 64.7115 29.7805C66.1692 29.919 67.1246 31.2968 67.2284 32.7575C67.269 33.3284 67.3288 33.8533 67.3398 34.3215C67.3621 35.2629 66.9475 36.5512 67.7728 37.0049C68.1218 37.1967 68.524 37.0066 68.9402 36.479C69.1655 36.1934 69.5039 35.9998 69.8573 36.0865C70.3393 36.2048 70.6319 36.6864 70.7156 37.1757C70.873 38.0946 71.4919 38.1328 71.4919 38.2991C71.4919 40.8809 69.2389 42.5139 69.1107 45.0926C68.7529 52.2908 63.4267 59.1725 57.4347 62.744C51.5366 66.2548 46.0154 66.7704 40.011 65.3181C37.0637 64.6052 34.6941 66.1608 36.5524 68.5568C37.0203 69.1656 37.0743 69.1931 36.3126 69.0962C32.8923 68.6615 29.9756 67.9909 26.3876 66.7244C27.117 66.9323 25.5354 64.5764 24.9597 63.383C24.719 62.8838 24.8446 61.6422 24.0011 61.5457C23.8048 61.5232 23.3598 60.9399 23.5317 60.8423C23.7498 60.7183 25.1038 60.3182 26.7519 59.5766C30.7796 57.7642 34.3354 54.8577 37.8845 52.2289C44.3152 47.4659 49.4975 41.0011 55.5429 35.7427C56.9646 34.5061 58.3093 33.7813 56.483 33.3177C52.4855 32.3029 53.0639 28.2402 57.177 28.5451C57.8964 28.5984 58.6167 28.6443 59.3387 28.6752C61.1228 28.8816 63.1568 29.5892 63.3803 29.6291C63.3836 29.6297 63.3861 29.6284 63.3885 29.626Z" fill="#3A184B"/>
<path d="M30.5294 59.5206C30.5443 59.2871 30.8472 59.2237 30.9611 59.428C30.9827 59.4668 30.9931 59.5131 30.9911 59.5574C30.8546 62.655 30.3824 61.8204 30.5294 59.5206Z" fill="#E8E6EF"/>
<path d="M41.2349 54.9443C41.5113 54.9443 41.5113 55.5834 41.2349 55.5834C40.9585 55.5834 40.9585 54.9443 41.2349 54.9443Z" fill="#FDFEFE"/>
<path d="M34.41 57.9707C34.5175 57.9476 34.8169 58.4635 34.5712 58.6098C34.4714 58.6713 34.1643 58.0246 34.41 57.9707Z" fill="#AAA8BB"/>
<path d="M43.3009 54.9447C43.3511 54.9354 43.1504 54.9371 43.2006 54.9462C43.2297 54.9515 43.2631 54.9513 43.3009 54.9447Z" fill="#9D91B9"/>
<path d="M61.7189 38.2218C61.9569 38.1371 62.0644 38.4528 61.8801 38.5375C61.6498 38.6376 61.527 38.2911 61.7189 38.2218Z" fill="#BFC3C9"/>
<path d="M38.2178 58.7711C38.4558 58.6864 38.5633 59.0021 38.379 59.0868C38.1487 59.1869 38.0259 58.8404 38.2178 58.7711Z" fill="#BFC3C9"/>
<path d="M34.7253 59.0869C34.9114 58.9891 34.2814 58.9084 34.4063 59.0775C34.456 59.1447 34.5623 59.1733 34.7253 59.0869Z" fill="#67518B"/>
<path d="M61.2116 36.2461C61.2283 36.1941 61.2847 36.1663 61.3362 36.1846C61.4031 36.2084 61.4224 36.2938 61.3722 36.344L61.2943 36.4222C61.2659 36.4507 61.2196 36.4496 61.1926 36.4198C61.1758 36.4012 61.1701 36.3751 61.1778 36.3512L61.2116 36.2461Z" fill="#CCD9EB"/>
<path d="M35.4389 30.0976C35.4389 30.0988 35.4393 30.1 35.4399 30.101C37.6869 33.9191 32.2831 37.021 29.2433 37.4213C26.8416 37.745 25.8046 37.3696 25.9028 34.8854C25.9074 34.7709 25.9321 34.662 25.9765 34.5565C26.3578 33.6492 27.0175 34.12 27.1399 35.0965C27.1962 35.5457 27.352 35.8257 27.5774 35.8199C27.86 35.8199 30.7096 33.4965 32.0253 31.6943C32.5168 31.0212 33.7036 29.9104 34.5334 29.9875C34.8288 30.0149 35.1268 30.0499 35.4331 30.0909C35.4364 30.0914 35.4389 30.0942 35.4389 30.0976Z" fill="#D484B8"/>
<path d="M36.3908 30.2648C36.3908 30.2628 36.3929 30.2614 36.3948 30.2618C43.1213 31.7488 36.7432 36.7131 32.9744 38.3835C31.7789 38.9169 29.3055 39.9884 27.4626 39.967C25.8397 39.9482 26.4423 38.617 28.0252 38.2583C28.9303 38.0532 29.7778 37.3808 30.6607 37.0946C33.499 36.1746 36.9528 33.6777 35.7074 30.6456C35.6149 30.4203 35.792 30.153 36.0318 30.1957C36.1457 30.216 36.2616 30.2392 36.387 30.2678C36.389 30.2682 36.3908 30.2667 36.3908 30.2648Z" fill="#AB479A"/>
<path d="M21.1513 40.293C21.568 41.0543 21.3803 42.0143 21.0381 42.8118C20.6947 43.6123 20.2017 44.4681 19.6479 44.957C18.4619 46.0041 17.3696 43.758 17.6581 42.2024C18.0343 40.2006 19.5161 37.298 21.1513 40.293Z" fill="#E8E6EF"/>
<path d="M29.4043 30.4229C31.2867 29.6983 32.5761 31.1988 31.2177 32.6899C29.7939 34.2527 27.8145 35.8309 27.5771 35.8354C26.9782 35.8431 26.8707 33.849 27.8151 32.0166C28.2527 31.162 28.483 30.7771 29.4043 30.4229Z" fill="#FDFEFE"/>
<path d="M19.3406 47.3765C19.1781 47.4328 18.9513 47.4025 18.8039 47.3141C18.1628 46.9295 19.6875 45.0226 20.1382 44.4261C20.1666 44.3886 20.1947 44.3503 20.2225 44.3113C20.6686 43.6864 21.976 43.7814 21.9378 44.5483C21.8758 45.7917 21.2313 46.7224 19.3406 47.3765Z" fill="#DB9FC8"/>
<path d="M21.4364 40.2041C21.5481 40.1662 21.6708 40.2091 21.7275 40.3125C22.1295 41.0457 22.4532 42.074 22.6163 43.136C23.011 45.7058 22.1 44.0928 21.4664 41.5712C21.4273 41.4144 21.4767 41.0578 21.2812 40.5722C21.2227 40.4268 21.2881 40.2545 21.4364 40.2041Z" fill="#C16EAC"/>
<path d="M21.628 40.1391C21.6275 40.1391 21.6271 40.1392 21.6267 40.1394L21.5491 40.1657C21.3191 40.2438 21.0674 40.1404 20.9345 39.9371C19.6216 37.9283 18.4374 39.5864 17.8887 41.3034C17.7566 41.7169 17.2659 42.2029 17.0777 42.594C16.9263 42.9088 16.5872 42.7009 16.655 42.3582C16.9858 40.6866 17.5169 39.9714 18.0594 39.2051C18.5611 38.4966 19.9619 37.1026 19.9575 37.9706C19.9568 38.1117 19.859 38.2844 19.8846 38.3067C20.6432 39.0368 20.9811 39.0688 21.6312 40.133C21.6328 40.1356 21.631 40.1391 21.628 40.1391Z" fill="#AB479A"/>
<path d="M29.2427 37.435C29.2427 37.4332 29.2403 37.4326 29.2392 37.4341C28.4193 38.6479 27.0679 38.2465 25.9257 38.3828C25.5715 38.425 25.154 38.0987 25.1105 37.7447C25.0303 37.0919 26.5479 37.2976 27.1871 37.4527C27.7054 37.5785 28.3863 37.552 29.2411 37.4369C29.242 37.4368 29.2427 37.436 29.2427 37.435Z" fill="#BA5AA3"/>
<path d="M49.0965 28.0499C49.0965 28.048 49.0993 28.0479 49.0998 28.0498C50.1291 32.2819 55.6923 33.0195 57.3603 33.557C57.7107 33.6699 57.6653 33.9791 57.3779 34.209C49.1117 40.8196 42.7306 50.0571 33.3223 55.1562C32.5801 55.5585 31.9273 56.1061 31.3136 56.6858C29.359 58.5323 26.6055 59.6932 24.9433 60.315C24.2812 60.5627 22.9712 60.0493 22.2642 60.0493C22.1798 60.0493 20.7748 60.5959 20.5983 60.5266C20.391 60.4496 18.8018 56.9619 18.6098 56.4691C17.2074 52.8353 16.1086 47.9636 16.4398 43.941C16.4835 43.4095 16.9554 42.8013 17.199 42.327C17.3823 41.97 17.6018 42.4677 17.5614 42.8669C17.5019 43.4563 17.5537 43.8798 17.6578 44.6047C17.8267 45.8212 17.7884 46.8837 19.0858 47.4688C23.7153 49.563 23.1625 42.6799 21.627 40.1469C20.9821 39.0767 20.6366 39.0459 19.8766 38.3145C19.4456 37.9363 19.2605 37.0712 19.5064 36.5532C21.0981 33.2002 21.5151 32.0187 26.3102 30.7539C26.5617 30.6867 26.9863 30.5878 27.4441 30.5033C28.2836 30.3484 28.4035 30.9387 27.9951 31.6882C27.89 31.8811 27.707 32.0819 27.5284 32.2098C26.6977 32.8051 26.2918 33.8393 25.911 34.7421C25.2891 36.2049 24.7978 36.8055 25.2737 38.5609C26.0492 41.4173 31.0932 39.2384 32.9741 38.3992C36.5174 36.8288 42.3669 32.3537 37.4648 30.5816C36.845 30.3576 36.2202 29.927 35.5642 29.8636C34.694 29.7795 34.7732 29.2656 35.6435 29.1827C40.1338 28.7551 44.1582 28.0379 49.0948 28.0515C49.0958 28.0515 49.0965 28.0508 49.0965 28.0499Z" fill="#77297C"/>
<path d="M35.3465 51.4367C35.6138 51.1688 34.9626 50.9864 34.9626 51.3648C34.9626 51.6564 35.1899 51.5936 35.3465 51.4367Z" fill="#E8E6EF"/>
<path d="M32.498 55.4298C32.5692 55.3862 32.3302 55.2992 32.3885 55.3589C32.4376 55.4093 32.4864 55.4368 32.498 55.4298Z" fill="#FDFEFE"/>
<path d="M30.5948 50.1714C30.9326 49.9251 30.7867 50.7335 30.5948 50.6488C30.4719 50.5949 30.4643 50.2715 30.5948 50.1714Z" fill="#EBDAEB"/>
<path d="M28.4193 52.4374C28.3083 52.2096 27.9639 52.5219 28.2148 52.5579C28.3996 52.5894 28.4596 52.5199 28.4193 52.4374Z" fill="#CFCACE"/>
<path d="M22.8175 54.7907C23.0555 54.706 23.163 55.0216 22.9788 55.1063C22.7485 55.2064 22.6256 54.86 22.8175 54.7907Z" fill="#CFCACE"/>
<path d="M30.5945 55.4565C30.5945 55.3856 30.6795 55.3492 30.7308 55.3982C30.7467 55.4134 30.7557 55.4345 30.7557 55.4565V55.5031C30.7557 55.5476 30.7196 55.5837 30.6751 55.5837C30.6306 55.5837 30.5945 55.5476 30.5945 55.5031V55.4565Z" fill="#E0DCD9"/>
<path d="M28.8934 48.8469C28.9444 48.7941 29.0332 48.8138 29.057 48.8833C29.0748 48.9352 29.0466 48.9917 28.9943 49.0086L28.8906 49.0421C28.8664 49.05 28.8398 49.0442 28.821 49.027C28.7914 49.0001 28.7899 48.954 28.8177 48.9253L28.8934 48.8469Z" fill="#A37CA8"/>
<path d="M78.7959 60.842C78.7935 60.842 78.7912 60.8431 78.7896 60.845C73.4613 67.302 64.749 68.5413 56.881 69.2803C52.1935 69.7241 47.5263 69.8786 42.8341 69.6573C40.7953 69.5612 37.7951 70.1827 36.5514 68.5643C34.6871 66.1604 37.0532 64.6103 40.01 65.3255C46.0144 66.7778 51.5356 66.2623 57.4338 62.7514C63.4265 59.1859 68.7534 52.3039 69.1099 45.1001C69.2375 42.5205 71.4909 40.8892 71.4909 38.3065C71.4909 38.1163 70.6809 38.0937 70.6786 36.7285C70.6783 36.5067 70.9156 36.3737 71.1184 36.4635C71.3213 36.5534 71.4638 36.355 71.4327 36.1353C70.9928 33.0235 71.27 35.7528 70.9382 35.9968C70.9083 36.0182 70.872 36.0327 70.8307 36.0414C69.6372 36.2925 68.9949 37.4775 67.8528 37.0496C66.9673 36.7179 67.3619 35.2681 67.3387 34.3229C67.3361 34.217 67.331 34.1083 67.3243 33.9968C67.193 31.8287 69.0805 30.3525 71.1961 30.8442C71.952 31.0198 72.6971 31.2307 73.4207 31.509C75.0728 32.1444 76.9007 32.587 78.5956 33.0972C80.2706 33.6014 81.9891 34.5952 82.7689 35.6041C85.4867 39.1227 83.529 50.0863 81.9782 54.2361C81.579 55.314 80.4197 57.0925 80.389 57.2619C80.2815 57.9856 80.8573 57.2465 81.0262 57.5776C81.1181 57.7542 79.0861 60.4899 78.8018 60.8395C78.8003 60.8414 78.7983 60.842 78.7959 60.842Z" fill="#222550"/>
<path d="M70.6931 36.3128C69.7946 36.1239 69.4251 35.7464 70.3116 35.9853C70.5705 36.0551 70.806 36.0867 70.9311 35.9971C71.2468 35.772 71.0112 33.2908 71.3664 35.7243C71.4305 36.1633 71.1269 36.4054 70.6931 36.3128Z" fill="#7BB5C7"/>
<path d="M52.5909 66.0933C52.6816 66.0933 52.7578 66.1627 52.7649 66.2531C52.8992 67.9454 52.3138 67.468 52.4193 66.2478C52.4269 66.1595 52.5023 66.0933 52.5909 66.0933Z" fill="#8BD2D4"/>
<path d="M52.7452 65.939C52.7444 66.0216 52.6791 66.0933 52.5964 66.0933C52.5117 66.0933 52.4465 66.0183 52.4667 65.9361C52.4914 65.8353 52.5244 65.7369 52.5588 65.6393C52.6272 65.4458 52.7648 65.4196 52.7577 65.6246C52.7542 65.7242 52.7462 65.8349 52.7452 65.939Z" fill="#41788B"/>
<path d="M76.8039 38.5455C77.0419 38.4609 77.1494 38.7765 76.9651 38.8612C76.7348 38.9613 76.6119 38.6148 76.8039 38.5455Z" fill="#DBE8F1"/>
<path d="M67.4377 60.8424C67.6757 60.7577 67.7831 61.0734 67.5989 61.1581C67.3686 61.2582 67.2457 60.9117 67.4377 60.8424Z" fill="#9BBBCD"/>
<path d="M68.9976 57.9072C69.0137 57.8572 69.0673 57.8298 69.1173 57.8459C69.1847 57.8678 69.2054 57.9532 69.1553 58.0034L69.0745 58.0844C69.0481 58.1109 69.0053 58.1109 68.979 58.0844C68.9612 58.0666 68.9548 58.0402 68.9625 58.0162L68.9976 57.9072Z" fill="#98A8B6"/>
<path d="M53.6701 66.519C53.721 66.468 53.8077 66.4876 53.8317 66.5555C53.8497 66.6064 53.8231 66.6623 53.7723 66.6804L53.6701 66.7167C53.6434 66.7262 53.6136 66.7195 53.5935 66.6994C53.565 66.6708 53.565 66.6244 53.5935 66.5958L53.6701 66.519Z" fill="#2F546C"/>
<path d="M89.77 43.9071C89.77 43.9098 89.7664 43.9109 89.7646 43.9089C88.9561 43.034 88.419 43.4371 87.477 43.396C87.0429 43.3771 86.7579 42.9745 86.7593 42.54C86.7652 40.7793 86.7041 39.0332 86.6467 37.2804C86.6144 36.2963 87.02 34.9476 87.5435 34.1138C88.0594 33.3244 89.8994 34.2824 89.9119 35.2253C89.9551 38.4837 89.8325 42.7406 89.77 43.9071Z" fill="#5E7495"/>
<path d="M90.6451 31.1728C91.0827 31.0419 91.5664 31.4731 91.6739 31.8888C92.027 33.2285 91.9963 48.6961 91.0367 50.2051C89.2248 53.0538 90.2152 45.832 90.2459 44.4692C90.2736 42.9024 90.0086 34.0375 90.1742 31.8669C90.1978 31.5576 90.3509 31.2711 90.6451 31.1728Z" fill="#5E7495"/>
<path d="M89.0949 43.4211C89.5642 43.597 89.7525 44.1972 89.7388 44.6982C89.7258 45.177 89.7211 45.6569 89.7085 46.1365C89.6654 47.7808 88.3891 49.8778 86.8827 49.217C86.2089 48.9214 86.4371 47.7682 86.6199 45.6999C86.7275 44.4829 87.9509 42.9923 89.0949 43.4211Z" fill="#395E82"/>
<path d="M89.074 30.9387C89.4992 31.0918 89.6372 31.5709 89.6331 32.0229C89.6182 33.669 89.0232 31.863 87.5518 34.1215C86.9971 34.9723 86.5735 34.6809 86.515 33.667C86.503 33.4595 86.4911 33.2521 86.4801 33.0446C86.4118 31.7521 87.4284 30.5789 88.6969 30.836C88.8318 30.8634 88.9588 30.8972 89.074 30.9387Z" fill="#395E82"/>
<path d="M87.4505 49.9482C88.3865 49.8102 89.0586 50.7215 88.9731 51.6637C88.9532 51.8827 88.9251 52.0841 88.8873 52.2354C88.8362 52.4401 88.6357 52.4985 88.4247 52.4948C87.3111 52.4754 86.3031 51.4282 86.7863 50.4247C86.9132 50.1611 87.1043 49.9993 87.4505 49.9482Z" fill="#395E82"/>
<path d="M86.5152 27.6697C86.7257 27.5198 86.3258 28.3799 86.3705 28.1255C86.4148 27.8732 86.4756 27.6983 86.5152 27.6697Z" fill="#0D142C"/>
<path d="M88.9796 50.1135C88.9796 50.1171 88.976 50.1197 88.9725 50.1189C87.0681 49.6715 86.8119 50.0355 86.5984 51.0493C86.4202 51.8957 85.4465 52.4937 85.4864 51.6296C85.5709 49.5049 88.6869 48.7888 88.9795 50.1122C88.9796 50.1126 88.9796 50.1131 88.9796 50.1135Z" fill="#2D4368"/>
</svg>
