<svg width="342" height="350" viewBox="0 0 342 350" fill="none" xmlns="http://www.w3.org/2000/svg">
<line x1="33" y1="1" x2="33" y2="322" stroke="black" stroke-opacity="0.5" stroke-width="4"/>
<line x1="19" y1="311.998" x2="340" y2="311.998" stroke="black" stroke-opacity="0.5" stroke-width="4"/>
<line x1="87" y1="1" x2="87" y2="322" stroke="black" stroke-opacity="0.5" stroke-width="4"/>
<line x1="19.1826" y1="257.999" x2="340.183" y2="257.999" stroke="black" stroke-opacity="0.5" stroke-width="4"/>
<line x1="137" y1="1" x2="137" y2="322" stroke="black" stroke-opacity="0.5" stroke-width="4"/>
<line x1="19.3518" y1="207.999" x2="340.352" y2="207.999" stroke="black" stroke-opacity="0.5" stroke-width="4"/>
<line x1="187" y1="1" x2="187" y2="322" stroke="black" stroke-opacity="0.5" stroke-width="4"/>
<line x1="19.521" y1="157.999" x2="340.521" y2="157.999" stroke="black" stroke-opacity="0.5" stroke-width="4"/>
<line x1="237" y1="1" x2="237" y2="322" stroke="black" stroke-opacity="0.5" stroke-width="4"/>
<line x1="19.6902" y1="108" x2="340.69" y2="108" stroke="black" stroke-opacity="0.5" stroke-width="4"/>
<line x1="287" y1="1" x2="287" y2="322" stroke="black" stroke-opacity="0.5" stroke-width="4"/>
<line x1="19.8593" y1="57.9998" x2="340.859" y2="57.9998" stroke="black" stroke-opacity="0.5" stroke-width="4"/>
<line x1="337" y1="1" x2="337" y2="322" stroke="black" stroke-opacity="0.5" stroke-width="4"/>
<line x1="20.0284" y1="8" x2="341.028" y2="8" stroke="black" stroke-opacity="0.5" stroke-width="4"/>
<path d="M30.7669 341.5L36.2269 341.35L35.7919 342.85L29.7619 343.21L28.6819 339.175L29.7319 335.68L31.4269 335.395L30.3019 339.055L30.7669 341.5ZM29.8669 335.2L30.2269 333.7L36.3319 333.865L37.3219 337.525L36.3619 340.87L34.5769 341.245L35.6869 337.645L35.2819 335.365L29.8669 335.2Z" fill="white"/>
<path d="M7.76693 313.5L13.2269 313.35L12.7919 314.85L6.76193 315.21L5.68193 311.175L6.73193 307.68L8.42693 307.395L7.30193 311.055L7.76693 313.5ZM6.86693 307.2L7.22693 305.7L13.3319 305.865L14.3219 309.525L13.3619 312.87L11.5769 313.245L12.6869 309.645L12.2819 307.365L6.86693 307.2Z" fill="white"/>
<path d="M5.91973 263.3L6.38473 261.5L12.0847 261.35L11.6347 262.85L5.91973 263.3ZM8.69473 255.365L6.89473 255.815L7.49473 253.865L9.89473 253.55L10.0147 260.945L8.09473 261.305L8.69473 255.365Z" fill="white"/>
<path d="M3.90166 213.3L4.36666 211.5L12.0917 211.35L11.6417 212.85L3.90166 213.3ZM4.38166 205.2L4.72666 203.7L11.3417 203.88V208.35L6.81166 210.975L4.39666 211.35L4.59166 210.45L9.78166 207.585L9.90166 205.35L4.38166 205.2Z" fill="white"/>
<path d="M11.0596 159.895L10.3696 162.85L3.69463 163.3L4.15963 161.5L9.45463 161.395L9.55963 160.195L8.34463 159.115L9.66463 158.53L11.0596 159.895ZM8.23963 159.01L7.21963 158.02L9.64963 156.595L9.69463 155.35L4.17463 155.2L4.51963 153.7L11.1346 153.88L11.1496 157.06L8.23963 159.01Z" fill="white"/>
<path d="M9.51053 102.625V111.85L7.71053 112.3L8.31053 102.925L9.51053 102.625ZM7.59053 107.14L7.80053 108.58L1.74053 108.595L3.25553 102.925L5.08553 102.625L3.49553 107.335L7.59053 107.14Z" fill="white"/>
<path d="M8.68082 61.94L1.69082 62.3L2.15582 60.5L7.72082 60.485L7.97582 59.045L7.22582 57.68L3.65582 57.365L4.10582 56.12L8.15582 56.42L9.40082 58.925L8.68082 61.94ZM2.27582 57.47L2.65082 52.88L8.98082 52.7L9.31082 54.2L3.89582 54.35L3.49082 57.35L2.27582 57.47Z" fill="white"/>
<path d="M2.66244 11.5L8.27244 11.35L7.85244 12.85L1.65744 13.21L0.577441 9.1L3.66744 3.955L5.67744 3.625L2.22744 9.205L2.66244 11.5ZM3.30744 7.735L4.44744 6.475L8.04744 6.7L8.84244 9.505L8.45244 10.84L6.66744 11.245L7.22244 9.625L6.99744 8.2L3.30744 7.735Z" fill="white"/>
<path d="M84.9197 343.3L85.3847 341.5L91.0847 341.35L90.6347 342.85L84.9197 343.3ZM87.6947 335.365L85.8947 335.815L86.4947 333.865L88.8947 333.55L89.0147 340.945L87.0947 341.305L87.6947 335.365Z" fill="white"/>
<path d="M132.902 343.3L133.367 341.5L141.092 341.35L140.642 342.85L132.902 343.3ZM133.382 335.2L133.727 333.7L140.342 333.88V338.35L135.812 340.975L133.397 341.35L133.592 340.45L138.782 337.585L138.902 335.35L133.382 335.2Z" fill="white"/>
<path d="M190.06 339.895L189.37 342.85L182.695 343.3L183.16 341.5L188.455 341.395L188.56 340.195L187.345 339.115L188.665 338.53L190.06 339.895ZM187.24 339.01L186.22 338.02L188.65 336.595L188.695 335.35L183.175 335.2L183.52 333.7L190.135 333.88L190.15 337.06L187.24 339.01Z" fill="white"/>
<path d="M238.511 333.625V342.85L236.711 343.3L237.311 333.925L238.511 333.625ZM236.591 338.14L236.801 339.58L230.741 339.595L232.256 333.925L234.086 333.625L232.496 338.335L236.591 338.14Z" fill="white"/>
<path d="M287.681 342.94L280.691 343.3L281.156 341.5L286.721 341.485L286.976 340.045L286.226 338.68L282.656 338.365L283.106 337.12L287.156 337.42L288.401 339.925L287.681 342.94ZM281.276 338.47L281.651 333.88L287.981 333.7L288.311 335.2L282.896 335.35L282.491 338.35L281.276 338.47Z" fill="white"/>
<path d="M331.662 341.5L337.272 341.35L336.852 342.85L330.657 343.21L329.577 339.1L332.667 333.955L334.677 333.625L331.227 339.205L331.662 341.5ZM332.307 337.735L333.447 336.475L337.047 336.7L337.842 339.505L337.452 340.84L335.667 341.245L336.222 339.625L335.997 338.2L332.307 337.735Z" fill="white"/>
</svg>
