<svg width="58" height="58" viewBox="0 0 58 58" fill="none" xmlns="http://www.w3.org/2000/svg">
    <circle cx="28.8502" cy="28.8502" r="28.8502" fill="#AB479A" fill-opacity="0.4" />
    <path
        d="M47.3776 21.0554L47.0423 21.5578C46.4808 20.5328 45.1396 18.73 44.368 17.7861C43.8266 17.1217 43.2328 16.4491 42.6147 15.8577C42.5299 15.7766 42.4491 15.5984 42.3643 15.5214L42.7804 15.1041C45.1598 17.0892 45.9879 18.2682 47.3776 21.0554Z"
        fill="#222550" />
    <path
        d="M24.4843 10.7491C24.5005 10.8827 24.4762 11.0326 24.4843 11.1663C24.6338 14.4478 24.9206 17.7253 24.9852 21.0109L25.1953 21.3026C25.369 21.3431 25.4215 21.2134 25.4862 21.2175C24.6823 21.7158 25.6801 21.6064 24.9004 22.3073C24.7913 20.4396 24.6701 18.5599 24.5651 16.6922C24.4439 14.5451 24.7469 10.1981 23.1027 10.6599C22.5048 10.826 22.8926 11.5674 22.8926 11.6241C22.9169 13.4553 23.0906 15.2865 23.1431 17.1136C23.1916 18.7948 23.236 20.549 23.1431 22.2262C22.7149 19.042 22.933 15.3229 22.6422 12.2116C22.6422 12.1872 22.3836 11.8591 22.3069 11.8348C22.4402 11.6687 22.3634 11.5228 22.3917 11.4175C22.4079 11.3608 22.8603 10.5546 23.1027 10.4938C23.535 10.3885 23.846 10.6761 23.9389 10.6599C24.1813 10.6235 24.3429 9.69573 24.4803 10.745L24.4843 10.7491Z"
        fill="#4A3C54" />
    <path
        d="M42.7845 15.1041L42.3685 15.5214C40.7889 14.0954 37.6864 12.4384 35.6423 11.7497C35.5049 12.0616 35.6705 12.3695 35.6827 12.6734L35.4322 13.0096C35.4282 12.4627 35.6261 11.7983 35.517 11.2514C38.5347 12.0819 40.4173 13.1312 42.7886 15.1041H42.7845Z"
        fill="#766E88" />
    <path
        d="M24.4846 11.1663C24.4765 11.0286 24.5008 10.8787 24.4846 10.7491C25.5955 10.5546 26.7388 10.2386 27.8699 10.1616C28.3224 10.1333 33.4408 10.0279 32.8429 10.8746C32.7823 10.9597 31.1219 10.6761 30.8795 10.664C28.6779 10.5789 26.6418 10.7653 24.4886 11.1663H24.4846Z"
        fill="#BEADA4" />
    <path
        d="M35.5129 11.2514C35.626 11.7983 35.424 12.4627 35.4281 13.0096C35.4604 16.04 35.4038 19.0703 35.4281 22.1007C35.4967 22.1938 35.8078 22.1169 35.929 22.1412C36.9591 22.3599 38.1468 22.3883 39.0638 22.8096C37.9731 22.7326 35.933 22.0115 35.3473 22.3923C35.3392 22.3883 35.2544 22.4085 35.2624 22.3073C35.2745 20.4639 35.4644 11.9604 35.1776 10.9962C34.9958 10.3885 34.6807 11.7619 34.3818 11.4985C33.796 10.98 35.2503 9.98742 35.5089 11.2474L35.5129 11.2514Z"
        fill="#4A3C54" />
    <path
        d="M47.0464 21.5578C49.5713 26.164 49.64 31.929 48.5492 36.9768C48.1735 37.1105 48.0685 37.9572 47.8827 38.3583C47.5595 39.0511 47.1151 39.6831 46.7111 40.3272L46.4607 40.4123C48.1453 37.4711 48.3917 33.3267 48.2988 29.9803C48.2786 29.2997 48.2947 27.4321 47.8827 27.0877V27.0027C48.1735 27.1161 48.4644 27.1607 48.5492 26.711C48.8078 25.3862 46.8525 25.2809 46.5455 25.1593C46.1213 24.9932 45.7214 24.819 45.2932 24.657C45.2488 24.6408 44.8407 24.3693 44.457 24.2397C45.0427 23.8022 43.0875 23.7455 42.3684 22.9393C42.5704 22.2384 42.3563 21.2418 42.8693 20.8448L42.4532 19.7955C43.0188 19.2891 43.5399 18.6935 44.0409 18.1183C44.0732 18.0818 44.2994 18.0697 44.3762 17.782C45.1478 18.726 46.489 20.5247 47.0505 21.5537L47.0464 21.5578Z"
        fill="#7C9CB0" />
    <path
        d="M35.3473 47.3683C35.4362 46.9956 35.828 47.4777 35.5978 46.6998C40.603 46.0192 43.9803 44.7188 46.7111 40.3313C47.1151 39.6871 47.5595 39.0551 47.8827 38.3624C48.0685 37.9572 48.1776 37.1105 48.5492 36.9809C47.8908 40.0315 46.796 42.045 44.3277 44.022C41.7382 46.0922 38.5751 46.9024 35.3433 47.3723L35.3473 47.3683Z"
        fill="#34849D" />
    <path
        d="M28.326 47.7856C29.2107 47.7937 30.1197 47.822 31.0004 47.7856C32.0143 47.741 33.8363 47.583 34.8422 47.4493C34.8543 47.8302 34.2968 47.6965 34.0463 47.8666L28.8674 48.2029C31.3276 48.4702 34.8624 48.0935 37.3468 47.6154C37.0681 47.9436 35.5087 48.0975 34.6725 48.2029C32.9516 48.4176 31.2306 48.5229 29.4935 48.5391C26.8071 48.5634 24.7791 48.4216 22.1412 47.9517C20.8727 47.7248 20.0163 47.4939 18.8003 47.1131C22.125 47.2954 25.478 48.2191 28.8674 48.0368C28.8916 47.818 28.2654 48.1259 28.326 47.7856Z"
        fill="#5D6084" />
    <path
        d="M35.5977 46.6958C35.8279 47.4777 35.4361 46.9956 35.3472 47.3643C35.1775 47.3886 35.0119 47.425 34.8463 47.4493C33.8363 47.579 32.0184 47.741 31.0045 47.7856C30.4187 47.5182 29.9501 48.0651 30.0834 47.1171C31.2347 47.0928 32.3659 46.9672 33.5091 46.8659C34.1999 46.8052 34.9109 46.793 35.5977 46.6998V46.6958Z"
        fill="#5C8FA5" />
    <path
        d="M53.9828 28.7649C53.9222 29.7656 53.9181 30.7784 53.898 31.7831L52.6456 31.532C52.6254 30.4422 52.6699 29.3524 52.5608 28.2626C52.9042 28.3679 53.7848 28.534 53.9828 28.7649Z"
        fill="#B6AFB5" />
    <path
        d="M54.1484 33.12L53.9828 32.7028C54.007 32.1761 53.8979 31.9371 53.8979 31.7791C53.9141 30.7744 53.9222 29.7616 53.9828 28.7609C54.0434 28.8298 54.0919 28.8986 54.1484 28.9716C54.0797 30.3166 54.2413 31.7912 54.1484 33.12Z"
        fill="#222550" />
    <path
        d="M53.898 31.7791C53.898 31.933 54.003 32.1721 53.9828 32.7028C53.9747 32.8851 53.9141 33.7237 53.8576 33.7926C53.797 33.8655 52.7466 33.9181 52.686 33.8776C52.5891 33.8088 52.6497 31.848 52.6456 31.532L53.898 31.7831V31.7791Z"
        fill="#395E82" />
    <path
        d="M22.3111 11.8348C22.3838 11.8591 22.6423 12.1872 22.6464 12.2116C22.9413 15.3229 22.7191 19.042 23.1473 22.2262C22.9696 22.2343 23.0019 22.129 22.812 22.1412C20.776 22.2668 16.4655 23.3201 14.3325 23.8994C12.9792 24.2681 11.0442 25.2282 9.77974 25.1553C9.77166 25.1553 9.80398 24.9851 9.73934 24.9892C9.47272 24.9932 9.59391 25.3984 9.27881 25.1553C9.44444 24.5314 9.54543 23.8265 9.77974 23.2269C10.2605 22.0075 11.7713 20.0629 11.7835 19.2445C11.8643 19.1513 12.046 19.2891 12.1996 19.0784C12.9954 17.9805 13.8639 17.0123 14.8739 16.1048C17.0311 14.1602 19.5479 12.7058 22.3111 11.8307V11.8348Z"
        fill="#E0DCD9" />
    <path
        d="M9.77583 25.1593C9.3355 25.2687 9.76775 25.5523 9.77583 25.5766C9.85259 25.8926 9.70312 26.2289 9.94146 26.9176C9.0406 27.6468 9.38398 31.4509 9.44053 32.6987C9.48093 37.4913 10.709 40.5257 14.2882 43.5925C14.3286 43.629 14.3084 43.8234 15.0396 44.3461L14.1186 43.9693C14.6559 44.3663 14.7447 44.2286 14.7851 44.9335C14.7609 44.9294 14.7286 44.9375 14.7003 44.9335C10.7575 42.2556 9.3759 39.5251 8.76589 34.8378C8.31748 31.378 8.36596 28.5219 9.26682 25.1593C9.58192 25.4024 9.45669 24.9973 9.72735 24.9932C9.79603 24.9932 9.75967 25.1593 9.76775 25.1593H9.77583Z"
        fill="#FDFEFE" />
    <path
        d="M34.6765 22.1452C34.7169 22.4166 34.6442 22.68 34.5917 22.9433C34.6886 23.0405 34.7492 22.8177 34.7573 22.8177C34.826 22.8218 34.8866 22.9433 35.0926 22.9028C35.0805 22.9514 35.0805 23.1661 35.0926 23.1945C35.4683 24.0533 35.1774 22.8623 35.1774 22.8177C35.1653 22.5868 35.2623 22.3397 35.2623 22.3154C35.2542 22.4166 35.339 22.3923 35.3471 22.4004C35.5046 22.522 38.7365 23.0122 39.2737 23.154C39.3667 23.6361 40.1584 23.5429 40.6109 23.6563C40.8169 23.9399 40.4695 24.0858 40.7361 24.2438C40.9381 24.3612 44.3598 25.0216 45.0385 25.7508C42.8893 24.8514 40.4978 24.1789 38.187 23.8224C36.2399 23.5226 33.1616 23.6239 33.0889 22.8987C33.2464 22.8906 34.0826 22.8299 34.1352 22.8137C34.2079 22.7894 34.1675 22.6516 34.1756 22.6476C34.3412 22.5746 34.6644 22.4653 34.426 22.3113C34.4381 22.3032 34.3412 22.0844 34.6765 22.1452Z"
        fill="#B6AFB5" />
    <path
        d="M24.9005 22.3113C24.8318 22.3721 24.9732 22.4167 24.65 22.4774C24.5975 22.4855 24.5369 22.4774 24.4844 22.4774C24.8762 22.0642 24.751 20.3424 23.9834 20.8002C23.6158 21.019 23.6603 22.1412 23.8986 22.4774C23.1513 22.2992 23.6118 23.1054 23.1876 23.1459C23.1553 23.1459 22.7756 22.9757 23.228 22.9352C23.123 22.7043 23.1311 22.4653 23.1432 22.2222C23.2361 20.545 23.1917 18.7908 23.1432 17.1095C23.632 16.992 23.2967 19.1068 23.3936 20.2533C24.9207 20.1804 23.9148 17.7294 24.5652 16.6922C24.6702 18.5599 24.7914 20.4396 24.9005 22.3073V22.3113Z"
        fill="#E0DCD9" />
    <path
        d="M24.4843 22.4774C24.5368 22.4774 24.6015 22.4855 24.6499 22.4774C24.5611 22.9919 24.0682 22.5179 23.8985 22.4774C23.6562 22.1412 23.6117 21.023 23.9834 20.8002C23.9147 21.5578 23.5915 22.4247 24.4843 22.4774Z"
        fill="#4A3C54" />
    <path
        d="M35.182 11.0002C35.4689 11.9644 35.279 20.468 35.2669 22.3113C35.2669 22.3356 35.174 22.5827 35.182 22.8137C35.1901 22.919 35.1012 22.8906 35.0972 22.8987C34.8912 22.9433 34.8306 22.8218 34.7619 22.8137C35.0568 22.2181 34.6003 20.8083 33.9257 21.5983C34.0186 21.8089 34.5155 21.104 34.6771 22.1411C34.3418 22.0804 34.4387 22.3032 34.4266 22.3072C34.0024 22.5098 33.146 22.3072 34.1761 22.6435C34.1681 22.6476 34.2084 22.7893 34.1357 22.8096C34.0873 22.8258 33.251 22.8866 33.0894 22.8947C31.5058 22.9717 25.7775 21.971 24.6908 23.4821C23.5031 23.6644 22.2831 23.4335 21.0994 23.5672C20.4127 23.6442 15.2822 24.8676 14.3328 25.1593C13.2744 25.4875 12.0544 26.164 11.4929 26.083C11.2586 26.5408 10.3658 26.5854 9.94566 26.9216C9.70327 26.2329 9.85678 25.8967 9.78003 25.5807H9.86486C9.75579 26.5975 13.1613 24.8919 14.753 24.4058C16.3406 23.9237 17.9767 23.5793 19.6007 23.2309C19.6855 23.2026 19.5441 23.0689 19.5158 23.0648C19.2896 23.0284 15.6134 24.0007 15.0883 24.1546C14.0985 24.4423 10.5759 25.8318 10.3254 25.8318C10.2688 25.8318 10.2082 25.6657 10.2002 25.6657C10.9354 25.6293 10.7253 25.2606 10.9112 25.1634C12.6967 24.2397 20.3238 22.6313 22.8204 22.1452C23.0102 22.133 22.9779 22.2384 23.1557 22.2303C23.1436 22.4733 23.1355 22.7124 23.2405 22.9433C22.7881 22.9798 23.1637 23.158 23.2001 23.154C23.6243 23.1134 23.1597 22.3072 23.9111 22.4855C24.0808 22.526 24.5736 23 24.6625 22.4855C24.9857 22.4247 24.8443 22.3802 24.913 22.3194C25.6926 21.6185 24.6948 21.7279 25.4987 21.2296C27.6196 21.343 31.0494 20.9258 33.6025 21.3147C33.5863 21.4241 33.6469 21.6712 33.5621 21.732L27.0864 21.6915C27.8822 21.817 33.1258 21.736 33.3965 21.9021C33.5621 22.0034 33.247 22.449 33.3965 22.4896C33.5298 22.526 33.8004 21.4848 33.857 21.3593C33.7196 19.4147 33.9135 17.4741 33.9418 15.5336L34.6932 15.6997C34.7053 16.4897 34.5761 17.3566 34.8589 18.0899C34.9477 16.4248 34.7377 14.3708 34.8589 12.7706C34.8589 12.7585 35.1012 12.803 35.1093 12.7301C35.1941 11.7821 34.8104 10.9678 35.1942 11.0124L35.182 11.0002Z"
        fill="#E0DCD9" />
    <path
        d="M33.9258 15.5255C33.9015 17.462 33.7036 19.4066 33.8409 21.3512C33.7844 21.4767 33.5178 22.5179 33.3804 22.4815C33.2309 22.4409 33.546 21.9953 33.3804 21.894C33.1098 21.7279 27.8661 21.8089 27.0703 21.6834L33.546 21.7239C33.6309 21.6631 33.5703 21.416 33.5864 21.3066C33.7359 20.2897 33.7117 13.7064 33.6713 12.0454C33.6632 11.6808 33.3683 10.907 33.4208 10.6194C33.4531 10.4371 34.0753 9.72812 34.1722 10.2831C34.1924 10.4047 33.8652 10.6194 33.8369 10.8706C33.7884 11.3122 33.9379 14.0184 33.9217 15.5214L33.9258 15.5255Z"
        fill="#392947" />
    <path
        d="M34.8468 12.7584C34.7256 14.3587 34.9357 16.4127 34.8468 18.0777C34.564 17.3485 34.6893 16.4815 34.6812 15.6875C34.661 14.3911 34.6287 11.8915 34.8468 12.7544V12.7584Z"
        fill="#7D7B8A" />
    <path
        d="M22.8123 22.1452C20.3157 22.6313 12.6927 24.2356 10.9031 25.1634C10.7173 25.2606 10.9273 25.6293 10.1921 25.6657C10.1032 25.6374 10.0467 25.5442 9.85681 25.5807H9.77197C9.7639 25.5523 9.33164 25.2728 9.77197 25.1634C11.0364 25.2363 12.9715 24.2762 14.3248 23.9075C16.4618 23.3282 20.7682 22.2708 22.8042 22.1492L22.8123 22.1452Z"
        fill="#B6AFB5" />
    <path
        d="M9.86071 25.5807C10.0506 25.5401 10.1071 25.6374 10.196 25.6657C10.2041 25.6657 10.2647 25.8318 10.3212 25.8318C10.5717 25.8318 14.0944 24.4423 15.0841 24.1546C15.6093 24.0007 19.2895 23.0284 19.5117 23.0648C19.54 23.0689 19.6814 23.2026 19.5965 23.2309C17.9766 23.5753 16.3364 23.9237 14.7488 24.4058C13.1572 24.8879 9.75164 26.5935 9.86071 25.5807Z"
        fill="#392947" />
    <path
        d="M22.2711 22.5625C23.6406 22.4936 21.1562 23.0122 19.8069 23.1053C20.3967 22.9595 21.7742 22.5868 22.2711 22.5625Z"
        fill="#9C96A9" />
    <path
        d="M34.7619 22.8137C34.7619 22.8137 34.6932 23.0365 34.5962 22.9393C34.6488 22.68 34.7215 22.4126 34.6811 22.1412C34.5195 21.1 34.0226 21.809 33.9297 21.5983C34.6043 20.8083 35.0608 22.2181 34.7659 22.8137H34.7619Z"
        fill="#766E88" />
    <path
        d="M34.176 22.6476C33.1459 22.3113 34.0023 22.5139 34.4265 22.3113C34.6648 22.4653 34.3416 22.5746 34.176 22.6476Z"
        fill="#393C5B" />
    <path
        d="M35.097 22.8987C35.097 22.8987 35.1899 22.919 35.1818 22.8137C35.1818 22.8582 35.4727 24.0493 35.097 23.1904C35.0849 23.1621 35.0849 22.9433 35.097 22.8987Z"
        fill="#5D6084" />
    <path
        d="M14.7082 44.9376C14.7365 44.9416 14.7648 44.9335 14.793 44.9376C14.9465 44.974 16.3564 45.8369 17.6774 46.2785C18.9378 46.6998 20.582 47.0604 21.899 47.2832C24.1612 47.6721 26.0438 47.7653 28.3343 47.7856C28.2777 48.1259 28.9039 47.818 28.8756 48.0368C25.4863 48.2231 22.1292 47.2954 18.8086 47.1131C17.233 46.6229 15.9161 46.0435 14.4618 45.2698C14.4497 45.2617 14.4456 45.2252 14.2113 45.1037C14.183 44.7796 14.3365 45.1037 14.6718 45.1037C14.7405 45.1037 14.7042 44.9335 14.7122 44.9376H14.7082Z"
        fill="#393C5B" />
    <path
        d="M9.10898 23.9885C8.91103 24.6286 8.81812 25.3417 8.69289 25.998C8.0546 26.0992 7.33553 26.4882 7.27089 27.2133C7.15778 28.5583 7.8405 26.9054 8.19196 27.7157C8.26063 27.8737 8.04652 28.3153 8.35759 28.2586C8.18792 29.9965 8.13136 31.7467 8.19196 33.4968C8.24043 34.9148 9.17362 36.6811 6.8548 35.5913C6.51546 32.0222 6.59625 28.4409 6.76996 24.8636H6.60433L6.39426 36.7216C6.34983 36.7378 5.89333 36.3408 5.85294 36.2598C5.50956 35.6237 5.28737 28.1654 5.51764 27.3349C5.81658 26.2775 6.93155 26.2856 6.01857 25.9088C6.36194 25.6901 5.67115 25.0095 6.72956 24.4828C7.1699 24.264 8.48282 24.1506 9.11302 23.9804L9.10898 23.9885Z"
        fill="#CBBEB9" />
    <path
        d="M5.1826 28.1775C5.06949 30.0978 5.19876 32.0829 5.26744 34.0032C5.21896 34.1531 4.05147 34.0559 4.01511 34.0032C3.9222 33.8695 3.76869 31.1592 3.93028 30.7784C4.21306 32.48 4.39081 28.927 4.14035 28.769C4.05147 28.7123 3.92624 28.8257 3.84948 28.8541C3.84948 28.7609 3.87372 28.6799 3.76465 28.688C4.03531 28.2018 4.71803 28.3801 5.18664 28.1856L5.1826 28.1775Z"
        fill="#CBBEB9" />
    <path
        d="M6.01897 25.9129C6.93196 26.2856 5.81295 26.2775 5.51804 27.3389H5.26758C5.34837 26.7798 5.20294 26.1073 6.01897 25.9129Z"
        fill="#AF9F9F" />
    <path
        d="M8.69297 25.998C8.53946 26.8001 8.43847 27.4402 8.35767 28.2585C8.04661 28.3112 8.26072 27.8737 8.19204 27.7157C7.84462 26.9054 7.15787 28.5583 7.27098 27.2133C7.33157 26.4882 8.05469 26.0992 8.69297 25.998Z"
        fill="#E0DCD9" />
    <path
        d="M9.77574 23.2309C9.54143 23.8305 9.44044 24.5355 9.27481 25.1593C8.37394 28.5219 8.32547 31.378 8.77388 34.8378C9.38388 39.5291 10.7655 42.2556 14.7083 44.9335C14.7002 44.9335 14.7325 45.0996 14.6679 45.0996C14.3326 45.0996 14.1831 44.7755 14.2074 45.0996C13.7064 44.8363 13.0277 44.4757 12.6197 44.3461C10.6524 42.3123 9.73534 40.6473 8.73348 38.0626C6.19247 38.4839 6.91559 37.5764 6.77016 37.2645C5.04114 36.9971 5.57439 34.773 5.26737 34.4165C5.10578 34.226 4.00696 34.3395 3.84537 34.1653C3.65954 33.9627 3.59087 29.0445 3.76054 28.6758C3.86961 28.6677 3.84133 28.7488 3.84537 28.8419C3.86961 29.4901 3.82114 30.1262 3.93021 30.7703C3.76862 31.1511 3.91809 33.8614 4.01504 33.9951C4.0514 34.0478 5.21889 34.145 5.26737 33.9951C5.19869 32.0748 5.06942 30.0897 5.18253 28.1694C5.19869 27.9061 5.22697 27.5941 5.26737 27.3308H5.51783C5.28353 28.1613 5.50975 35.6197 5.85313 36.2557C5.89757 36.3367 6.35406 36.7297 6.39446 36.7176L6.60453 24.8596H6.77016C6.59241 28.4368 6.51565 32.0181 6.85499 35.5873C9.17382 36.677 8.24063 34.9107 8.19215 33.4928C8.13156 31.7426 8.19215 29.9925 8.35778 28.2545C8.43858 27.4361 8.53957 26.796 8.69308 25.9939C8.81832 25.3376 8.91527 24.6205 9.10918 23.9845C9.24249 23.551 9.54547 23.0851 9.69494 22.6435C9.67475 22.8137 9.67475 23.0689 9.77978 23.2309H9.77574Z"
        fill="#392947" />
    <path
        d="M7.06105 36.0532C8.55576 36.0127 8.78602 35.879 8.7739 37.5197C7.31151 37.621 6.55608 37.8438 7.06105 36.0532Z"
        fill="#CBBEB9" />
    <path
        d="M3.93029 30.7744C3.82122 30.1302 3.8697 29.4942 3.84546 28.846C3.92625 28.8176 4.04745 28.7042 4.13632 28.7609C4.39083 28.923 4.21308 32.4759 3.92625 30.7703L3.93029 30.7744Z"
        fill="#E0DCD9" />
    <path
        d="M42.3644 15.5255C42.4493 15.6024 42.5301 15.7807 42.6149 15.8617C42.9704 16.0319 41.7302 16.8502 41.6534 16.8664C40.995 17.0123 40.5183 16.4816 40.1506 16.3641C39.581 16.1858 38.9428 16.3681 38.563 15.7766C37.5975 16.0278 36.729 16.6679 35.7635 16.6153C35.7715 15.2945 35.7392 13.9941 35.6786 12.6774C35.6665 12.3776 35.4968 12.0698 35.6382 11.7538C37.6824 12.4425 40.7849 14.0994 42.3644 15.5255Z"
        fill="#FDFEFE" />
    <path
        d="M42.6147 15.8577C43.2369 16.4492 43.8267 17.1217 44.368 17.7861C44.2912 18.0737 44.065 18.0859 44.0327 18.1223C42.4774 18.2034 41.5684 17.6321 40.3969 18.2074C39.7344 18.252 38.9022 17.7091 38.1427 18.2925L35.6785 17.705C35.6785 17.5795 35.7593 17.2513 35.7633 16.6153C36.7288 16.6679 37.5974 16.0319 38.5629 15.7767C38.9426 16.3681 39.5809 16.1858 40.1505 16.3641C40.5221 16.4816 40.9988 17.0123 41.6533 16.8664C41.73 16.8502 42.9702 16.0319 42.6147 15.8617V15.8577Z"
        fill="#E0DCD9" />
    <path
        d="M35.7634 16.6112C35.7634 17.2472 35.6826 17.5713 35.6786 17.701C35.6745 18.3289 35.618 21.7279 35.6786 21.9345C35.7028 22.0237 35.9856 21.89 35.929 22.1452C35.8078 22.1209 35.4927 22.1979 35.4281 22.1047C35.4039 19.0744 35.4604 16.04 35.4281 13.0137L35.6786 12.6774C35.7392 13.9941 35.7674 15.2945 35.7634 16.6153V16.6112Z"
        fill="#7C88A5" />
    <path
        d="M44.0369 18.1223C43.536 18.6976 43.0149 19.2931 42.4493 19.7995C41.3465 20.7799 41.1162 20.387 39.5245 22.8177C39.4882 22.8744 39.3953 22.6476 39.2741 22.9838C39.2619 23.0122 39.266 23.1094 39.2741 23.1499C38.7327 23.0081 35.505 22.5179 35.3474 22.3964C35.9372 22.0196 37.9773 22.7408 39.064 22.8137C38.147 22.3923 36.9593 22.3599 35.9291 22.1452C35.9857 21.89 35.7029 22.0237 35.6787 21.9346C35.6181 21.732 35.6746 18.333 35.6787 17.701L38.1429 18.2884C38.9024 17.705 39.7386 18.252 40.3971 18.2034C41.5646 17.6321 42.4735 18.2034 44.0329 18.1183L44.0369 18.1223Z"
        fill="#BFC3C9" />
    <path
        d="M44.4568 24.2397C42.8328 23.6887 41.1604 23.3363 39.5283 22.8137C41.12 20.387 41.3503 20.7799 42.4531 19.7955L42.8692 20.8448C42.3562 21.2418 42.5703 22.2384 42.3683 22.9393C43.0914 23.7455 45.0426 23.7981 44.4568 24.2397Z"
        fill="#ADB3C0" />
    <path
        d="M43.952 24.657C44.9337 25.0499 45.4952 25.3862 46.3759 25.9129C46.7637 26.1438 47.6161 26.9014 47.8787 27.0027V27.0877C47.7575 26.9864 45.3942 25.8967 45.0387 25.7468C44.356 25.0175 40.9343 24.3572 40.7364 24.2397C40.4698 24.0858 40.8172 23.9359 40.6112 23.6523C40.5061 23.5105 39.5124 23.2147 39.274 23.1499C39.2659 23.1094 39.2619 23.0122 39.274 22.9838C39.4639 22.9514 41.71 23.6158 41.4878 23.7373C40.3647 23.6928 42.7805 24.1911 43.952 24.661V24.657Z"
        fill="#939AAF" />
    <path
        d="M39.5244 22.8137C41.1565 23.3322 42.8289 23.6847 44.4529 24.2397C44.8367 24.3693 45.2447 24.6408 45.2891 24.657L45.3295 24.9082C44.8569 24.8069 44.3842 24.345 43.952 24.657C42.7804 24.1911 40.3647 23.6887 41.4877 23.7333C41.7099 23.6118 39.4638 22.9474 39.2739 22.9798C39.3951 22.6395 39.488 22.8704 39.5244 22.8137Z"
        fill="#5E7495" />
    <path
        d="M45.2891 24.657C45.7173 24.819 46.1213 24.9932 46.5414 25.1593C45.9516 25.4956 46.7717 25.6333 46.3758 25.9129C45.4951 25.3862 44.9336 25.0459 43.9519 24.657C44.3842 24.345 44.8568 24.8069 45.3295 24.9082L45.2891 24.657Z"
        fill="#2D4368" />
    <path
        d="M30.0836 47.1171C29.9503 48.0651 30.4189 47.5222 31.0047 47.7856C30.124 47.822 29.2151 47.7937 28.3304 47.7856C26.0439 47.7653 24.1613 47.6721 21.895 47.2832C22.4727 46.9834 23.0019 47.741 23.0665 46.7809C25.3894 47.0726 27.7446 47.1698 30.0877 47.1171H30.0836Z"
        fill="#7C9CB0" />
    <path
        d="M14.4578 43.6816C15.3223 44.5365 16.4615 44.8038 17.5482 45.1887C20.0003 46.0557 21.8586 46.3879 24.4844 46.6148C27.5304 46.874 30.5562 46.8173 33.5941 46.5297L33.5093 46.8659C32.366 46.9672 31.2349 47.0928 30.0835 47.1171C27.7405 47.1698 25.3893 47.0766 23.0624 46.7809C20.7396 46.4892 16.9422 45.7154 15.0395 44.3501C14.3083 43.8275 14.3285 43.629 14.2881 43.5966H14.3729C14.3729 43.5966 14.3446 43.6209 14.4578 43.6816Z"
        fill="#DCE6E4" />
    <path
        d="M15.0434 44.3501C16.9461 45.7154 20.7435 46.4851 23.0663 46.7808C23.0057 47.741 22.4725 46.9834 21.8948 47.2832C20.5778 47.0563 18.9377 46.6998 17.6733 46.2785C16.3523 45.8369 14.9464 44.974 14.7889 44.9375C14.7444 44.2326 14.6596 44.3704 14.1223 43.9733L15.0434 44.3501Z"
        fill="#ADB3C0" />
    <path
        d="M40.6111 23.6523C40.1586 23.5348 39.3668 23.628 39.2739 23.1499C39.5123 23.2147 40.5061 23.5105 40.6111 23.6523Z"
        fill="#7C88A5" />
    <path
        d="M24.4846 22.4774C23.5918 22.4288 23.915 21.5578 23.9837 20.8002C24.7512 20.3424 24.8765 22.0642 24.4846 22.4774Z"
        fill="#CFCACE" />
    <path
        d="M24.5693 16.6963C23.9189 17.7334 24.9289 20.1885 23.3978 20.2573C23.3008 19.1108 23.6361 16.9961 23.1473 17.1136C23.0948 15.2864 22.9211 13.4553 22.8969 11.6241C22.8969 11.5674 22.509 10.8301 23.1069 10.6599C24.7511 10.1981 24.4481 14.5451 24.5693 16.6922V16.6963Z"
        fill="#FDFEFE" />
    <path d="M23.6079 12.3412C23.8705 14.7841 23.9876 17.2594 23.9432 19.7144L23.6079 12.3412Z"
        fill="#9F9A9E" />
    <path
        d="M23.4385 11.1663C23.8425 11.0002 23.7173 11.7862 23.6041 11.8348C23.2002 12.0171 23.2325 11.2473 23.4385 11.1663Z"
        fill="#574C5D" />
    <path
        d="M47.8824 27.0027C47.6198 26.9014 46.7634 26.1438 46.3796 25.9129C46.7755 25.6333 45.9554 25.4915 46.5452 25.1593C46.8523 25.2809 48.8075 25.3822 48.549 26.711C48.4601 27.1607 48.1692 27.1161 47.8824 27.0027Z"
        fill="#222550" />
    <path
        d="M47.5874 26.083C47.7531 26.0061 48.1974 26.3139 48.2136 26.3747C48.4843 27.266 47.0017 26.3504 47.5874 26.083Z"
        fill="#392947" />
    <path
        d="M33.0891 22.8988C33.1577 23.6239 36.2401 23.5226 38.1872 23.8224C38.1509 24.4342 37.246 24.8434 37.0157 25.6658C36.9066 25.6496 35.8321 25.2728 34.8868 25.1634C33.085 25.0864 31.3035 24.8312 29.4977 24.8271C26.5891 24.819 24.2824 25.293 21.5596 25.4956C20.1013 25.605 17.2977 24.9933 14.6678 26.5003C11.3027 26.4152 11.3875 28.1208 9.5292 29.9763C9.62212 30.8757 9.44033 31.8115 9.44437 32.6987C9.38781 31.4509 9.04443 27.6428 9.9453 26.9176C10.3614 26.5813 11.2582 26.5368 11.4925 26.079C12.0541 26.1641 13.2741 25.4835 14.3325 25.1553C15.2859 24.8636 20.4164 23.6401 21.0991 23.5632C22.2827 23.4295 23.5027 23.6644 24.6904 23.4781C25.7771 21.967 31.5014 22.9676 33.0891 22.8907V22.8988Z"
        fill="#271234" />
    <path
        d="M45.0385 25.7468C45.394 25.8967 47.7572 26.9865 47.8784 27.0878C48.2905 27.4321 48.2784 29.2957 48.2945 29.9804C48.3874 33.3267 48.141 37.4711 46.4564 40.4123C46.1817 40.8904 45.5556 41.733 45.1193 42.0895C45.2647 41.9113 46.3352 40.465 46.2908 40.3718C46.2019 40.1976 45.8989 40.5865 45.9555 40.2057C45.9676 40.1166 46.5776 39.1807 46.7917 38.6136C47.6118 36.4299 48.6379 30.661 47.2078 28.8095C46.5574 27.9628 44.6426 27.1364 43.572 27.343C42.243 26.3747 40.6473 26.2167 39.1 25.9169C38.389 25.7792 37.7063 25.7752 37.0115 25.6658C37.2377 24.8434 38.1466 24.4342 38.183 23.8225C40.4937 24.1749 42.8853 24.8515 45.0344 25.7508L45.0385 25.7468Z"
        fill="#0D142C" />
    <path
        d="M35.5976 46.6958C34.9108 46.789 34.1998 46.8011 33.509 46.8619L33.5939 46.5256C37.7346 46.1367 42.3197 45.4845 45.1233 42.0855C45.5596 41.729 46.1858 40.8904 46.4605 40.4083L46.711 40.3232C43.9801 44.7107 40.6029 46.0111 35.5976 46.6917V46.6958Z"
        fill="#82BCC2" />
    <path
        d="M21.5594 25.4956C21.6402 25.9291 22.7915 25.6171 22.8117 25.998C22.6339 25.9575 22.4925 25.9372 22.3108 25.9129C21.7977 25.8481 21.3291 25.8076 20.808 25.8278C20.3555 25.844 19.5354 25.925 19.1355 26.079C18.9214 25.9291 17.8711 26.1519 17.5075 26.2451C14.6393 27.0027 14.7483 27.7076 13.5364 30.0978C13.1163 30.9283 12.5951 31.1187 12.3649 32.6947C12.0457 34.8945 12.6557 37.7142 13.4516 39.7763C13.5526 40.0355 14.3848 41.8708 14.4979 41.9113C14.5908 41.9477 15.3301 41.656 15.3745 41.6601C15.3785 42.1787 14.5585 41.7533 14.5383 42.0369C14.5383 42.0895 14.7685 42.1422 14.9544 42.4136C13.8757 42.2394 13.4475 42.9322 14.3686 43.5885H14.2838C10.7045 40.5217 9.47645 37.4873 9.43605 32.6947C9.42797 31.8075 9.6138 30.8716 9.52088 29.9722C11.3792 28.1168 11.2943 26.4112 14.6595 26.4963C17.2893 24.9892 20.0929 25.6009 21.5513 25.4916L21.5594 25.4956Z"
        fill="#54204D" />
    <path
        d="M14.9585 42.4217C15.1726 42.7337 15.0878 42.8512 15.2494 43.0092C15.2898 42.8269 15.3827 42.8269 15.4595 42.758C16.8209 41.9234 16.6189 43.0618 16.7966 43.4264C16.5785 43.7505 15.0474 43.9855 14.4576 43.6776C14.3445 43.6169 14.3808 43.5966 14.3728 43.5925C13.4517 42.9362 13.8799 42.2475 14.9585 42.4177V42.4217Z"
        fill="#CD5966" />
    <path
        d="M17.5479 45.1887C16.4572 44.8039 15.322 44.5365 14.4575 43.6817C15.0473 43.9896 16.5784 43.7546 16.7965 43.4305C17.0995 44.0625 17.9317 45.2981 17.5479 45.1887Z"
        fill="#5F2E6C" />
    <path
        d="M16.0453 42.0895C15.71 42.2799 15.6979 42.5433 15.4596 42.758C15.3868 42.8269 15.2899 42.8269 15.2495 43.0092C15.0839 42.8512 15.1687 42.7377 14.9586 42.4217C14.7728 42.1462 14.5385 42.0976 14.5425 42.045C14.5587 41.7614 15.3828 42.1868 15.3788 41.6682C15.4192 41.6682 16.0372 42.0045 16.0453 42.0855V42.0895Z"
        fill="#E0DCD9" />
    <path
        d="M37.0197 25.6617C37.7145 25.7711 38.3972 25.7752 39.1082 25.9129C38.8254 27.2052 39.3344 28.2869 38.9426 28.8865C39.2011 29.8102 39.6536 29.7818 40.1141 29.0121C40.3727 29.0283 40.615 29.1255 40.8655 29.1782C40.7726 30.114 41.2816 30.1181 41.2816 30.2275C41.2816 30.349 39.9727 31.4266 39.8596 31.7345C40.8453 36.2193 37.6095 40.8701 33.8848 43.0902C29.9986 45.4035 26.4234 45.2455 22.2705 43.6776C22.1534 43.7668 22.7836 46.003 22.8967 46.1489C23.236 46.5905 24.2459 46.161 24.4843 46.6107C21.8625 46.3879 20.0042 46.0517 17.548 45.1847C17.9318 45.2941 17.0996 44.0544 16.7966 43.4264C16.6189 43.0578 16.8209 41.9194 15.4595 42.758C15.6978 42.5392 15.7099 42.2799 16.0452 42.0895C16.2876 41.9518 19.1962 41.1658 20.598 39.4076C25.975 36.7581 29.4532 31.5117 34.0949 27.8859C34.107 27.5293 30.1319 27.4645 29.4976 24.8272C31.3034 24.8312 33.0849 25.0864 34.8867 25.1634C35.832 25.2728 36.9106 25.6496 37.0156 25.6658L37.0197 25.6617Z"
        fill="#3A184B" />
    <path d="M19.7614 40.9997L19.9715 41.3765C19.8947 43.2198 19.5958 42.5027 19.7614 40.9997Z"
        fill="#E8E6EF" />
    <path
        d="M25.36 38.9862C25.5051 38.9862 25.5051 39.3217 25.36 39.3217C25.215 39.3217 25.215 38.9862 25.36 38.9862Z"
        fill="#FDFEFE" />
    <path
        d="M21.7691 40.5784C21.8255 40.5663 21.9827 40.837 21.8537 40.9138C21.8013 40.9461 21.6401 40.6067 21.7691 40.5784Z"
        fill="#AAA8BB" />
    <path
        d="M26.362 38.65C26.4144 38.747 26.5555 38.9652 26.4467 38.9854C26.2855 39.0137 26.2774 38.8197 26.362 38.65Z"
        fill="#9D91B9" />
    <path
        d="M36.1382 30.1869C36.2629 30.1426 36.3191 30.3078 36.2227 30.3522C36.1021 30.4046 36.0377 30.2232 36.1382 30.1869Z"
        fill="#BFC3C9" />
    <path
        d="M23.7725 40.9997C23.8971 40.9553 23.9534 41.1206 23.8569 41.165C23.7363 41.2174 23.672 41.036 23.7725 40.9997Z"
        fill="#BFC3C9" />
    <path
        d="M21.8497 40.9997C21.8497 40.9997 22.0189 41.121 21.9343 41.1654C21.7207 41.2786 21.6925 41.0159 21.8497 40.9997Z"
        fill="#67518B" />
    <path d="M35.8879 29.0971L36.0125 29.1415L35.8879 29.2665L35.8477 29.2221L35.8879 29.0971Z"
        fill="#CCD9EB" />
    <path
        d="M22.311 25.9129C23.4946 27.9223 20.6506 29.555 19.0509 29.7656C17.7582 29.9398 17.2168 29.7292 17.2976 28.3396C17.5198 27.8129 17.7582 27.2012 18.2995 26.9135C17.8026 27.8777 17.8592 28.9311 18.1743 28.923C18.3843 28.923 21.2889 26.4841 20.8082 25.8238C21.3293 25.8035 21.7979 25.84 22.311 25.9088V25.9129Z"
        fill="#D484B8" />
    <path
        d="M22.8117 25.998C26.3546 26.7799 22.9976 29.3929 21.014 30.272C20.0243 30.7136 17.3702 31.8561 16.9622 30.3571C17.6126 30.0816 18.5336 30.5394 19.0507 29.7697C20.6464 29.555 23.4904 27.9264 22.3108 25.9169C22.4926 25.9412 22.634 25.9615 22.8117 26.002V25.998Z"
        fill="#AB479A" />
    <path
        d="M14.7929 31.2767C14.9747 31.609 14.9343 31.852 14.9585 31.9452C14.7565 32.796 13.7789 34.8013 12.9548 33.5373C12.8821 33.0309 12.8579 32.8041 12.9548 32.2815C13.1528 31.2281 13.9324 29.7008 14.7929 31.2767Z"
        fill="#E8E6EF" />
    <path
        d="M20.808 25.8319C21.2928 26.4922 18.3882 28.927 18.1741 28.9311C17.859 28.9351 17.8024 27.8859 18.2993 26.9217C18.5296 26.472 18.6508 26.2694 19.1355 26.083C19.5355 25.9291 20.3555 25.8481 20.808 25.8319Z"
        fill="#FDFEFE" />
    <path
        d="M13.7062 35.0485C13.0235 34.7406 13.0437 34.1815 12.9548 33.5414C13.7789 34.8054 14.7606 32.8 14.9586 31.9493C15.3423 33.4766 15.5201 34.4772 13.7062 35.0485Z"
        fill="#DB9FC8" />
    <path
        d="M15.0435 31.1957C15.8514 32.5286 16.1423 36.1504 13.7063 35.0485C15.5242 34.4772 15.3424 33.4766 14.9586 31.9492C14.9344 31.852 14.9748 31.6089 14.793 31.2808L15.0435 31.1957Z"
        fill="#C16EAC" />
    <path
        d="M15.0432 31.1957L14.7928 31.2808C13.9323 29.7089 13.1526 31.2322 12.9547 32.2855C12.6396 32.0546 12.7406 32.719 12.3689 32.7028C12.5992 31.1268 13.1163 30.9364 13.5404 30.1059C14.4373 29.717 14.0939 30.2032 14.1262 30.2315C14.5261 30.6164 14.7039 30.6326 15.0473 31.1957H15.0432Z"
        fill="#AB479A" />
    <path
        d="M19.0509 29.7697C18.5338 30.5394 17.6128 30.0816 16.9624 30.3571C16.7119 29.4334 16.9664 29.1174 17.2977 28.3477C17.2209 29.7373 17.7582 29.9479 19.0509 29.7737V29.7697Z"
        fill="#BA5AA3" />
    <path
        d="M29.4975 24.8272C30.1317 27.4645 34.1068 27.5293 34.0947 27.8859C29.453 31.5117 25.9748 36.7581 20.5979 39.4076C19.1961 41.1658 16.2834 41.9518 16.0451 42.0895C16.037 42.0085 15.4149 41.6723 15.3785 41.6723C15.3341 41.6723 14.5948 41.9599 14.5019 41.9234C14.3928 41.8829 13.5566 40.0477 13.4556 39.7884C12.6598 37.7263 12.0498 34.9067 12.3689 32.7068C12.7406 32.719 12.6355 32.0546 12.9547 32.2896C12.8577 32.8122 12.882 33.039 12.9547 33.5454C13.0435 34.1855 13.0233 34.7446 13.7061 35.0525C16.142 36.1545 15.8512 32.5326 15.0432 31.1998C14.7039 30.6367 14.5221 30.6204 14.1222 30.2356C14.0898 30.2072 14.4373 29.7211 13.5364 30.11C14.7483 27.7157 14.6352 27.0148 17.5075 26.2572C17.8711 26.16 18.9214 25.9372 19.1355 26.0911C18.6507 26.2775 18.5295 26.4801 18.2993 26.9298C17.7579 27.2174 17.5196 27.8291 17.2974 28.3558C16.9702 29.1255 16.7116 29.4415 16.9621 30.3652C17.3701 31.8682 20.0242 30.7217 21.014 30.2801C22.9975 29.401 26.3545 26.792 22.8117 26.0061C22.7915 25.6253 21.6401 25.9372 21.5594 25.5037C24.2821 25.3012 26.5889 24.8272 29.4975 24.8353V24.8272Z"
        fill="#77297C" />
    <path
        d="M22.2696 36.8918C22.5033 37.0009 22.0601 37.397 22.0601 37.1019C22.0601 37.0858 22.2535 36.8878 22.2696 36.8918Z"
        fill="#E8E6EF" />
    <path
        d="M20.763 38.9053C20.8274 38.9659 20.8355 39.1962 20.763 39.2407C20.7428 39.2528 20.5091 39.0669 20.763 38.9053Z"
        fill="#FDFEFE" />
    <path
        d="M19.7611 36.4744C19.9384 36.3451 19.8618 36.7695 19.7611 36.725C19.6966 36.6967 19.6926 36.527 19.7611 36.4744Z"
        fill="#EBDAEB" />
    <path
        d="M18.4239 37.5643C18.6375 37.5926 18.698 37.7623 18.5086 37.73C18.4803 37.726 18.3393 37.5926 18.4239 37.5643Z"
        fill="#CFCACE" />
    <path
        d="M15.6688 38.9052C15.7934 38.8609 15.8497 39.0262 15.7532 39.0705C15.6326 39.1229 15.5683 38.9415 15.6688 38.9052Z"
        fill="#CFCACE" />
    <path d="M19.7612 39.1564L19.8457 39.2371V39.3217H19.7612V39.1564Z" fill="#E0DCD9" />
    <path d="M18.9247 35.7169L18.9689 35.8459L18.8443 35.8862L18.8 35.8459L18.9247 35.7169Z"
        fill="#A37CA8" />
    <path
        d="M45.1235 42.0895C42.3199 45.4885 37.7347 46.1408 33.594 46.5297C30.5561 46.8173 27.5344 46.8741 24.4843 46.6148C24.246 46.1691 23.2361 46.5945 22.8967 46.1529C22.7836 46.0071 22.1534 43.7667 22.2706 43.6817C26.4234 45.2495 29.9986 45.4075 33.8849 43.0942C37.6095 40.8782 40.8454 36.2274 39.8597 31.7386C39.9728 31.4266 41.2817 30.349 41.2817 30.2315C41.2817 30.1221 40.7726 30.1181 40.8656 29.1822C41.0554 29.2228 41.1241 29.3119 41.2817 29.3078C41.007 27.3308 41.1726 28.8825 40.9908 29.0161C40.7646 29.1782 39.8516 28.5867 40.1142 29.0161C39.6536 29.7859 39.2012 29.8142 38.9426 28.8906C39.3345 28.291 38.8255 27.2093 39.1083 25.9169C40.6515 26.2167 42.2472 26.3707 43.5803 27.343C44.6508 27.1364 46.5616 27.9628 47.2161 28.8095C48.6461 30.6609 47.616 36.4299 46.8 38.6136C46.5899 39.1807 45.9799 40.1166 45.9637 40.2057C45.9072 40.5865 46.2102 40.1976 46.299 40.3718C46.3475 40.465 45.2729 41.9113 45.1275 42.0895H45.1235Z"
        fill="#222550" />
    <path
        d="M40.8614 29.1823C40.6109 29.1296 40.3685 29.0324 40.11 29.0162C39.8474 28.5868 40.7604 29.1782 40.9866 29.0162C41.1684 28.8865 41.0028 27.3349 41.2775 29.3079C41.1159 29.3119 41.0513 29.2228 40.8614 29.1823Z"
        fill="#7BB5C7" />
    <path d="M31.4206 44.8525C31.5216 45.8815 31.1621 45.5736 31.255 44.8525H31.4206Z"
        fill="#8BD2D4" />
    <path
        d="M31.4208 44.8525H31.2551C31.2753 44.7067 31.34 44.573 31.3804 44.4352C31.4612 44.4474 31.4046 44.6945 31.4208 44.8525Z"
        fill="#41788B" />
    <path
        d="M44.077 30.3571C44.2016 30.3128 44.2579 30.478 44.1614 30.5224C44.0408 30.5748 43.9765 30.3934 44.077 30.3571Z"
        fill="#DBE8F1" />
    <path
        d="M39.1485 42.0895C39.2731 42.0452 39.3294 42.2105 39.2329 42.2548C39.1123 42.3072 39.048 42.1258 39.1485 42.0895Z"
        fill="#9BBBCD" />
    <path d="M39.985 40.4974L40.1096 40.5377L39.985 40.6627L39.9448 40.6224L39.985 40.4974Z"
        fill="#98A8B6" />
    <path d="M31.9615 45.0186L32.0058 45.1436L31.8811 45.1879L31.8369 45.1436L31.9615 45.0186Z"
        fill="#2F546C" />
    <path
        d="M50.8995 33.1825C50.3743 32.6113 50.0673 33.065 49.3119 32.8462C49.3321 31.4688 49.2634 30.1117 49.2271 28.7383C49.6593 28.7504 49.6593 28.1346 49.728 28.0253C50.5885 26.7086 50.8793 28.0253 50.8147 26.5587C51.0853 27.0692 50.952 32.198 50.8995 33.1784V33.1825Z"
        fill="#5E7495" />
    <path
        d="M51.3603 26.4777C51.5905 26.4088 51.8451 26.6357 51.9016 26.8544C52.0874 27.5594 52.0713 35.6983 51.5663 36.4924C50.6129 37.9913 51.1341 34.1913 51.1502 33.4742C51.1664 32.5586 50.9927 26.9071 51.1502 26.6033C51.1543 26.5911 51.3482 26.4817 51.3603 26.4777Z"
        fill="#5E7495" />
    <path
        d="M50.8996 33.1825C50.8511 34.0333 50.9077 34.8962 50.734 35.7388C48.4758 36.5248 49.2676 35.6376 49.312 32.8462C50.0674 33.065 50.3745 32.6113 50.8996 33.1825Z"
        fill="#395E82" />
    <path
        d="M50.8186 26.5628C50.8833 28.0293 50.5924 26.7086 49.7319 28.0293C49.6633 28.1346 49.6633 28.7545 49.231 28.7423C49.2108 27.9159 49.1179 27.0975 49.1462 26.2711C49.5946 26.2306 50.6207 26.1941 50.8186 26.5628Z"
        fill="#395E82" />
    <path
        d="M50.4833 36.4478C50.5196 36.6058 50.5075 37.6591 50.358 37.7037C49.9298 37.6753 49.4895 37.7401 49.0613 37.7037C49.3683 36.6139 49.0896 36.1196 50.4833 36.4478Z"
        fill="#395E82" />
    <path
        d="M49.1867 24.6344C49.8977 24.128 50.3744 25.6512 50.3582 26.1414C48.7221 26.5911 49.0857 24.7073 49.1867 24.6344Z"
        fill="#0D142C" />
    <path
        d="M50.4834 36.4478C49.0897 36.1197 49.3685 36.6139 49.0615 37.7037C48.8877 37.6875 48.6171 37.8536 48.6454 37.2419C48.6898 36.1237 50.3299 35.7469 50.4834 36.4438V36.4478Z"
        fill="#2D4368" />
</svg>