<svg width="96" height="182" viewBox="0 0 96 182" fill="none" xmlns="http://www.w3.org/2000/svg">
<path d="M79.5534 39.4095V30.9543C79.5534 26.5118 74.9676 22.7858 70.6684 22.7858H66.7991V8.1685C66.7991 3.72598 62.3566 0 57.9141 0H48.3125C43.87 0 41.2904 3.86929 41.2904 8.1685V9.88819H27.2464C25.9566 5.58898 22.2306 3.00945 17.7881 3.00945C12.3424 3.00945 0.0375977 7.41102 0.0375977 13C0.0375977 18.4457 12.3424 22.7858 17.7881 22.7858C22.2306 22.7858 26.0999 19.9197 27.2464 15.6205H41.2904V22.7858H35.5582C31.1156 22.7858 28.5361 26.6551 28.5361 30.9543V39.4095C24.2369 41.5591 12.9156 50.1575 12.9156 62.6252V171.539C12.9156 177.414 16.7849 182 22.5172 182H83.9959C89.7282 182 95.3172 177.271 95.3172 171.539V62.6252C95.3172 50.1575 82.4196 41.5591 79.5534 39.4095Z" fill="#F47160" stroke="#F47160" stroke-width="0.0748031"/>
</svg>
