<svg width="170" height="218" viewBox="0 0 170 218" fill="none" xmlns="http://www.w3.org/2000/svg">
<g clip-path="url(#clip0_207_5606)">
<path d="M140.724 189.344C143.436 193.149 148.751 195.246 151.653 199.241C145.318 201.329 142.486 201.878 135.89 202.797C134.639 197.993 131.387 195.346 128.515 191.631C132.478 191.181 136.931 190.592 140.714 189.344H140.724Z" fill="#C5C1C8"/>
<path d="M152.163 191.121C151.012 190.632 148.27 188.884 147.209 189.094C147.039 189.124 144.747 191.061 144.797 191.501C144.858 192.11 155.126 196.605 155.726 196.704V197.723C154.115 198.382 153.354 198.692 151.663 199.241C148.751 195.246 143.436 193.149 140.734 189.343C144.447 188.125 148.621 186.077 149.121 181.733C150.072 183.371 147.64 186.617 147.85 187.446C148 188.045 151.693 189.353 152.173 191.121H152.163Z" fill="#5D6084"/>
<path d="M114.033 192.14C113.733 192.769 113.983 194.977 113.392 195.186C112.492 195.506 98.0303 192.679 94.5775 191.381C92.9162 190.752 88.7729 188.854 89.6236 188.335C95.6784 191.271 107.158 191.97 114.033 192.14Z" fill="#C5C1C8"/>
<path d="M84.0292 169.048C83.5788 169.178 78.3246 170.926 77.9243 171.076C80.036 170.207 81.8174 169.617 84.0292 169.048Z" fill="#0F0F12"/>
<path d="M89.6236 188.335C88.7729 188.854 92.9162 190.752 94.5775 191.381C98.0303 192.68 112.482 195.506 113.392 195.187C113.983 194.977 113.733 192.769 114.033 192.14C118.907 192.26 123.651 192.18 128.525 191.631C131.397 195.346 134.639 197.983 135.9 202.797C116.865 205.454 88.7829 204.925 71.7093 195.436C53.8251 185.498 64.5236 176.629 77.9343 171.076C78.3346 170.926 83.5788 169.178 84.0391 169.048C86.6412 168.379 106.957 164.674 107.688 165.622C107.658 166.661 103.685 166.292 101.963 166.761C100.632 167.131 99.4714 168.369 98.911 168.539C97.8801 168.859 91.9254 170.806 91.5351 170.826C90.5343 170.866 89.2333 169.348 87.2117 169.558C81.2469 172.404 72.7101 172.724 79.3254 173.872C83.5587 174.612 84.9298 173.872 88.6028 172.224C81.6873 176.629 82.0676 184.669 89.6236 188.335Z" fill="#DCE6E3"/>
<path d="M78.8149 179.456V182.502L64.4535 184.15C63.7629 179.825 73.2005 181.483 78.8149 179.456Z" fill="#121D26"/>
<path d="M68.2665 181.733C67.3558 182.322 68.0864 182.342 68.0163 183.251C63.0824 184.379 64.8238 181.673 68.2665 181.733Z" fill="#409DB0"/>
<path d="M76.7833 180.215C76.8534 181.573 78.1144 180.724 78.5647 180.974C80.4362 182.032 73.4607 182.911 75.3822 180.594C75.6724 180.245 76.4831 180.734 76.7833 180.215Z" fill="#4FAFC3"/>
<path d="M70.4283 181.224C71.7894 180.684 71.7393 181.793 72.3398 182.622C69.9179 183.561 69.9679 181.413 70.4283 181.224Z" fill="#4FAFC3"/>
<path d="M68.0063 183.261C68.0764 182.342 67.3458 182.332 68.2565 181.743C70.4983 181.783 70.5183 182.692 68.0063 183.261Z" fill="#4FAFC3"/>
<path d="M73.9811 180.724C75.0119 180.984 74.8818 183.351 73.2205 182.502C72.4799 182.122 72.8602 180.434 73.9811 180.724Z" fill="#4FAFC3"/>
<path d="M78.3045 179.955C79.5055 180.155 77.5139 180.854 77.4138 180.335C77.4138 180.285 78.2545 179.945 78.3045 179.955Z" fill="#86C3CF"/>
<path d="M85.17 189.094C86.1107 189.014 88.5927 191.041 88.6027 191.251C88.6227 191.86 78.4046 196.645 77.7941 196.704C76.9234 196.794 73.871 195.766 73.851 194.797C73.841 194.158 84.5295 189.144 85.16 189.084L85.17 189.094Z" fill="#121D26"/>
<path d="M82.1176 191.121C82.2477 191.141 84.0491 192.869 84.0291 193.029C83.9991 193.219 81.5972 194.457 81.357 194.427C81.2269 194.407 79.4355 192.659 79.4455 192.519C79.4655 192.36 81.9675 191.101 82.1176 191.121Z" fill="#4FAFC3"/>
<path d="M85.3001 192.649C87.0815 189.423 83.6088 190.172 84.2793 192.14C81.307 190.342 85.5904 188.504 88.0924 191.251C88.1024 191.461 85.6404 192.629 85.3001 192.649Z" fill="#409DB0"/>
<path d="M79.9558 194.417C81.477 195.816 74.6516 197.084 74.6216 194.927C76.363 193.658 76.8734 195.436 77.5439 195.436C78.1244 195.436 78.6348 193.848 79.9558 194.417Z" fill="#398695"/>
<path d="M79.9558 194.417C78.6348 193.838 78.1244 195.426 77.5439 195.436C76.8734 195.436 76.363 193.658 74.6216 194.927C74.6216 194.397 79.2353 191.621 79.9558 194.417Z" fill="#4FAFC3"/>
<path d="M85.3001 192.649C84.2893 192.699 84.3694 192.19 84.2793 192.14C83.6088 190.172 87.0716 189.423 85.3001 192.649Z" fill="#86C3CF"/>
<path d="M114.914 193.409C115.054 193.309 118.106 193.249 118.346 193.788C118.446 200.76 120.358 203.756 114.533 201.908C114.613 200.67 114.303 193.848 114.914 193.409Z" fill="#121D26"/>
<path d="M115.424 193.658C118.477 192.18 118.276 197.244 117.966 197.464C117.846 197.544 115.164 197.504 115.044 197.334C113.763 195.546 117.416 196.036 117.586 195.816C118.517 194.617 112.712 194.967 115.424 193.658Z" fill="#4FAFC3"/>
<path d="M118.096 201.02C117.676 201.849 116.875 201.06 115.044 201.269C115.024 201.02 115.074 200.75 115.044 200.51C115.814 198.503 118.417 201.269 117.336 197.973C118.356 198.243 118.336 200.081 118.096 201.02Z" fill="#398695"/>
<path d="M117.336 197.973C118.426 201.269 115.814 198.503 115.044 200.51C114.784 198.583 115.024 197.354 117.336 197.973Z" fill="#4FAFC3"/>
<path d="M115.044 201.269C116.865 201.059 117.676 201.848 118.096 201.019C117.766 202.328 115.364 201.998 115.044 201.269Z" fill="#B3D7D6"/>
<path d="M155.726 197.724V196.705C157.678 197.004 157.938 195.666 159.289 194.547C159.249 194.158 153.024 191.481 152.173 191.122C151.703 189.354 148 188.045 147.85 187.446C147.64 186.627 150.072 183.371 149.121 181.733C149.962 174.492 144.567 172.964 144.798 172.474C146.239 172.544 147.47 173.962 150.012 174.122C151.633 174.222 157.177 173.433 155.856 172.604C154.155 172.544 145.738 169.298 145.178 169.308C144.397 169.308 142.065 171.076 141.875 171.086C141.475 171.086 137.712 168.789 134.249 168.549C131.777 166.072 128.545 166.621 125.352 166.012C125.132 165.363 126.293 165.483 127.384 165.503C136.471 165.672 180.646 173.853 168.697 189.733C165.824 193.559 160.03 195.976 155.726 197.724Z" fill="#5D6084"/>
<path d="M154.966 179.705C154.986 179.915 154.936 180.185 154.966 180.215C154.755 180.185 154.715 180.275 154.715 180.464C154.705 180.964 154.735 181.074 154.966 181.483C154.976 181.503 154.475 181.793 155.096 181.993C155.256 182.042 155.966 182.022 156.237 181.993L155.986 182.502C153.154 181.933 154.735 182.192 153.955 179.585C154.195 179.266 154.385 179.665 154.976 179.715L154.966 179.705Z" fill="#0F0F12"/>
<path d="M155.976 182.492L156.227 181.983C158.498 181.733 158.008 180.614 157.628 180.464C155.976 179.805 156.487 181.893 154.956 181.483C154.725 181.074 154.685 180.964 154.705 180.464C156.147 180.375 155.006 180.255 154.956 180.215C154.926 180.185 154.976 179.915 154.956 179.705C156.447 179.835 166.715 180.984 167.285 181.223C167.416 181.283 168.957 183.491 168.937 183.631C168.837 184.28 157.217 182.742 155.966 182.492H155.976Z" fill="#112A37"/>
<path d="M165.384 183.261V181.743C168.216 181.623 168.997 183.741 165.384 183.261Z" fill="#1A5D73"/>
<path d="M156.237 181.993C155.956 182.023 155.256 182.043 155.096 181.993C154.475 181.793 154.986 181.503 154.966 181.483C156.497 181.893 155.986 179.805 157.638 180.464C158.018 180.614 158.518 181.743 156.237 181.983V181.993Z" fill="#4FAFC3"/>
<path d="M165.384 181.733V183.251C163.302 182.972 163.332 181.963 164.243 181.473C164.793 181.174 165.324 181.733 165.384 181.723V181.733Z" fill="#86C3CF"/>
<path d="M159.159 180.724C160.19 180.375 160.7 182.173 159.92 182.502C158.739 183.002 158.108 181.084 159.159 180.724Z" fill="#4FAFC3"/>
<path d="M161.951 180.974C163.042 180.824 162.992 182.482 162.462 182.752C160.8 183.601 161.041 181.094 161.951 180.974Z" fill="#4FAFC3"/>
<path d="M154.705 180.465C154.705 180.275 154.745 180.185 154.956 180.215C154.996 180.265 156.137 180.375 154.705 180.465Z" fill="#86C3CF"/>
<path d="M152.163 191.121C153.014 191.481 159.239 194.158 159.279 194.547C157.928 195.666 157.668 197.004 155.716 196.705C155.116 196.615 144.848 192.11 144.788 191.501C144.738 191.061 147.039 189.124 147.199 189.094C148.27 188.884 151.013 190.632 152.153 191.121H152.163Z" fill="#0F0F12"/>
<path d="M147.46 189.603C147.72 189.583 150.362 190.762 150.382 191.001C150.402 191.241 148.591 193.468 146.189 192.14C144.317 191.111 147.26 189.623 147.46 189.603Z" fill="#4FAFC3"/>
<path d="M150.512 191.381C151.213 191.141 153.955 192.25 153.945 192.779C153.945 192.949 152.824 194.517 151.273 194.177C147.81 193.408 150.292 191.461 150.512 191.391V191.381Z" fill="#4FAFC3"/>
<path d="M154.575 192.899C154.796 192.869 158.518 194.457 158.518 194.807C158.518 194.997 157.187 196.615 155.336 196.205C151.233 195.286 154.175 192.969 154.575 192.909V192.899Z" fill="#409DB0"/>
<path d="M155.346 194.168C155.736 193.878 157.037 195.196 156.107 195.436C155.656 195.556 154.876 194.517 155.346 194.168Z" fill="#AAC9D2"/>
<path d="M137.672 207.871C138.322 208.74 137.051 208.161 136.911 208.51C136.751 208.91 137.181 209.988 136.661 210.668C135.5 210.867 133.278 211.586 132.598 211.686C130.296 211.996 126.023 212.296 123.571 212.445C121.439 212.575 120.098 211.856 120.008 212.695C107.077 212.665 92.2056 211.337 79.9658 207.112C75.3321 205.514 65.7145 200.969 62.6821 197.214C60.9107 195.027 60.2001 192.819 60.6504 189.983C61.2809 185.938 61.2009 190.472 62.4319 193.029C65.5944 199.571 80.2761 204.695 86.9614 206.353C103.374 210.418 121.039 210.638 137.682 207.871H137.672Z" fill="#DCE6E3"/>
<path d="M113.523 182.752L111.611 180.974C114.804 181.124 118.507 180.924 120.888 179.456C127.454 178.007 124.782 175.111 125.592 169.558C128.144 168.399 137.592 172.524 137.922 173.493C138.222 174.372 137.632 176.689 137.161 177.548C134.349 182.692 118.797 182.921 113.513 182.752H113.523Z" fill="#5D6084"/>
<path d="M120.888 179.456C118.507 180.934 114.804 181.134 111.611 180.974L113.523 182.752C109.499 182.622 102.063 181.953 98.6508 179.965C96.6392 178.797 94.1472 175.671 94.9678 173.243C95.3882 171.995 105.466 169.188 107.298 169.568L107.678 177.049C109.74 180.405 117.346 180.245 120.898 179.456H120.888Z" fill="#DCE6E3"/>
<path d="M103.094 205.334C107.488 205.873 110.27 206.153 114.794 206.093C114.874 206.093 114.964 206.093 115.044 206.093C116.725 206.063 118.446 206.173 120.128 206.093C120.208 206.093 120.298 206.093 120.378 206.093C120.648 207.621 120.008 208.81 121.139 209.139C107.658 209.619 94.017 208.27 81.2268 204.066C81.9974 203.536 81.8073 202.018 81.7372 201.019C83.6187 201.678 85.7604 202.068 87.712 202.537C88.6727 202.777 88.6627 203.287 88.7328 203.297C88.943 203.346 89.4033 202.867 90.254 203.047C94.4674 203.936 98.8308 204.805 103.094 205.334Z" fill="#413B5D"/>
<path d="M113.012 188.075C113.152 188.874 119.738 188.874 119.878 188.075C126.093 187.905 132.167 187.336 138.182 185.788L138.693 189.344C129.175 191.95 116.735 192.19 106.917 191.371C107.788 186.547 104.255 190.252 96.7492 187.056C95.3882 186.477 94.3974 186.347 94.9678 185.788C100.752 187.266 107.047 187.885 113.022 188.075H113.012Z" fill="#695D82"/>
<path d="M94.4473 175.65C97.7099 186.497 130.906 184.04 136.141 179.456L137.412 182.502C128.264 186.727 94.9577 187.036 91.3949 178.946L94.4473 175.65Z" fill="#413B5D"/>
<path d="M91.9053 174.122C88.993 176.549 90.5843 179.526 93.0463 181.483C97.9401 185.369 109.389 185.738 115.544 185.798C115.424 186.977 112.762 185.778 111.861 186.557C117.145 186.537 122.47 187.376 127.754 187.067C119.627 188.585 89.4934 187.696 85.3001 180.345C82.8581 176.06 87.6019 173.184 90.8945 171.595C91.1347 172.404 88.4926 173.503 88.8629 174.003C89.3633 174.692 91.2949 173.633 91.9153 174.132L91.9053 174.122Z" fill="#DCE6E3"/>
<path d="M79.9558 207.112C92.1955 211.337 107.067 212.665 119.998 212.695C120.078 211.856 121.429 212.575 123.561 212.446C126.012 212.296 130.276 211.986 132.588 211.686L133.348 213.205C115.354 215.392 96.3789 214.134 79.1952 208.381C79.6155 208.291 78.5947 207.212 79.9558 207.112Z" fill="#54668A"/>
<path d="M146.058 181.993C143.426 182.852 139.944 186.307 137.922 183.011C138.683 182.712 139.703 181.923 140.464 181.493C140.534 181.453 141.485 181.403 142.115 180.984C144.797 179.196 144.938 175.101 141.475 174.392C140.134 173.193 130.996 169.997 130.796 169.448C130.756 169.338 131.277 167.35 131.437 167.291C131.607 167.231 133.078 168.739 133.979 169.068C134.299 169.188 137.492 169.548 140.584 170.846C145.358 172.844 151.663 177.029 146.048 182.013L146.058 181.993Z" fill="#5D6084"/>
<path d="M66.7353 192.65C66.1048 193.798 67.8462 194.358 69.2773 195.187C68.6668 195.676 72.7001 198.473 73.0904 197.214C74.4214 197.873 80.6264 200.64 81.7373 201.02C81.8073 202.018 81.9975 203.537 81.2268 204.066C73.5507 201.539 60.8006 196.755 61.9015 186.937C63.4827 189.364 64.4535 190.762 66.7353 192.65Z" fill="#695D82"/>
<path d="M134.109 203.556V204.575C129.565 205.194 125.082 205.334 120.508 205.594C120.298 205.604 120.408 206.103 120.378 206.103C120.298 206.103 120.208 206.103 120.128 206.103C120.448 205.584 116.785 205.734 115.044 206.103C114.964 206.103 114.874 206.103 114.794 206.103L103.094 205.344C98.8308 204.825 94.4673 203.946 90.254 203.057C89.4033 202.877 88.9329 203.356 88.7328 203.306C88.6727 203.296 88.6827 202.777 87.712 202.547C85.7604 202.068 83.6187 201.678 81.7372 201.029C80.6363 200.64 74.4214 197.883 73.0903 197.224C71.8693 196.615 70.4582 195.876 69.2773 195.196C67.8461 194.367 66.1048 193.808 66.7353 192.659C81.8573 205.114 115.394 205.923 134.109 203.566V203.556Z" fill="#939AAF"/>
<path d="M152.674 200.51L153.184 203.556C146.299 205.903 141.295 206.872 134.119 207.871V204.575C134.95 204.465 135.85 204.445 136.661 204.325C140.664 204.525 144.777 203.007 148.61 201.788C149.811 201.409 151.733 200.89 152.674 200.52V200.51Z" fill="#413B5D"/>
<path d="M169.958 197.724C166.595 201.519 157.808 205.214 152.924 206.862L157.247 202.807C163.342 200.3 171.939 195.646 171.609 188.095C172.129 187.985 174.211 192.929 169.958 197.734V197.724Z" fill="#5D6084"/>
<path d="M167.165 192.14C166.325 193.549 165.874 192.43 166.915 196.455C162.862 200.121 158.278 201.819 153.184 203.556L152.674 200.51C156.357 199.072 160.14 197.184 163.352 194.927C164.623 194.038 165.714 192.78 167.165 192.14Z" fill="#5D6084"/>
<path d="M130.046 213.954C130.236 214.893 128.855 214.184 128.525 214.593C128.444 214.693 128.555 216.331 129.796 216.501C126.403 217.27 123.37 217.619 119.878 217.769L119.748 215.742C114.393 216.84 106.247 214.094 107.168 217.26C106.277 217.14 105.486 216.92 104.625 216.75C105.086 215.632 106.647 215.172 106.147 214.214C115.084 214.843 121.159 214.693 130.046 213.964V213.954Z" fill="#DCE6E3"/>
<path d="M134.109 204.575V207.871C129.735 208.48 125.582 208.98 121.139 209.14C120.008 208.81 120.648 207.621 120.378 206.093C120.408 206.093 120.298 205.594 120.508 205.584C125.082 205.334 129.565 205.184 134.109 204.565V204.575Z" fill="#695D82"/>
<path d="M157.247 202.797L152.924 206.852C152.674 206.932 152.414 207.022 152.163 207.102C147.049 208.75 141.935 209.759 136.651 210.658C137.171 209.979 136.741 208.9 136.901 208.5C137.041 208.161 138.312 208.73 137.662 207.861C143.827 206.832 151.483 205.144 157.237 202.787L157.247 202.797Z" fill="#C5C1C8"/>
<path d="M146.058 181.992C142.376 185.268 132.698 186.777 127.754 187.066C122.47 187.376 117.145 186.537 111.861 186.557C112.762 185.778 115.434 186.976 115.544 185.798C122.77 185.868 131.137 185.708 137.922 183.011C139.934 186.307 143.426 182.851 146.058 181.992Z" fill="#C5C1C8"/>
<path d="M152.163 207.112L152.414 209.14C147.069 210.828 138.923 212.526 133.348 213.195L132.588 211.677C133.278 211.587 135.5 210.858 136.651 210.658C141.935 209.759 147.049 208.75 152.163 207.102V207.112Z" fill="#695D82"/>
<path d="M152.424 209.14L152.173 207.112C152.424 207.032 152.684 206.942 152.934 206.862C157.818 205.224 166.605 201.529 169.968 197.723C171.879 196.515 170.328 198.792 169.717 199.631C166.555 203.896 157.458 207.561 152.434 209.15L152.424 209.14Z" fill="#413B5D"/>
<path d="M94.9577 185.798C94.3873 186.357 95.368 186.487 96.7391 187.066C96.3688 187.806 95.0378 186.637 94.7075 187.196C94.5574 187.446 94.9777 188.644 94.4573 189.354C89.4934 187.995 84.029 186.108 84.2892 179.835C86.8312 183.611 90.7544 184.719 94.9677 185.798H94.9577Z" fill="#695D82"/>
<path d="M138.693 189.344L138.182 185.788C142.356 184.719 146.289 183.871 148.611 179.825C149.011 186.168 143.747 187.956 138.693 189.344Z" fill="#413B5D"/>
<path d="M79.9558 207.112C78.5947 207.212 79.6155 208.291 79.1952 208.381C73.3705 206.433 65.164 203.496 62.1616 197.723C62.3117 197.783 62.672 197.414 62.672 197.214C65.7145 200.97 75.3221 205.514 79.9558 207.112Z" fill="#54668A"/>
<path d="M137.422 182.492L136.151 179.445C138.713 177.208 138.262 173.792 138.823 173.613C145.088 176.159 141.945 180.404 137.422 182.492Z" fill="#5D6084"/>
<path d="M96.7392 187.066C104.245 190.263 107.778 186.547 106.907 191.381C102.684 191.032 98.5306 190.462 94.4474 189.354C94.9678 188.645 94.5475 187.446 94.6976 187.196C95.0278 186.647 96.3589 187.806 96.7292 187.066H96.7392Z" fill="#413B5D"/>
<path d="M91.9053 174.122C91.2848 173.623 89.3633 174.682 88.8529 173.993C88.4826 173.493 91.1247 172.394 90.8845 171.585C93.0963 170.507 94.3273 170.267 96.479 169.558C96.459 171.126 100.672 169.598 102.324 169.049C102.704 168.919 103.715 169.178 103.975 169.049C104.385 168.839 103.535 168.279 103.975 167.78C104.215 167.51 109.599 167.231 107.538 169.049C107.298 169.258 103.515 169.288 102.454 169.558C100.542 170.037 93.2064 173.034 91.9053 174.122Z" fill="#C5C1C8"/>
<path d="M119.878 217.769C115.494 217.959 111.531 217.869 107.167 217.26C106.257 214.094 114.403 216.84 119.747 215.742L119.878 217.769Z" fill="#DCE6E3"/>
<path d="M163.352 194.927C160.14 197.184 156.357 199.072 152.674 200.51C151.733 200.879 149.801 201.399 148.61 201.778C144.627 202.537 140.674 203.706 136.661 204.315C135.85 204.435 134.94 204.455 134.119 204.565V203.546C142.105 202.537 147.029 201.499 154.585 198.722C155.076 198.542 155.306 198.992 155.346 198.972C156.026 198.712 161.501 195.516 163.352 194.917V194.927Z" fill="#54668A"/>
<path d="M106.147 214.213C106.647 215.172 105.076 215.632 104.625 216.75C102.694 216.381 100.782 216.101 98.9009 215.482C92.5358 211.776 98.1703 213.654 106.147 214.213Z" fill="#5D6084"/>
<path d="M166.915 196.455C165.874 192.43 166.325 193.548 167.165 192.14C168.276 190.292 170.208 189.004 170.848 186.817C171.799 191.431 170.088 193.588 166.905 196.455H166.915Z" fill="#413B5D"/>
<path d="M129.796 216.501C128.555 216.341 128.444 214.703 128.525 214.593C128.855 214.193 130.236 214.902 130.046 213.954C132.628 213.744 141.985 212.306 134.239 215.472C132.868 216.031 131.217 216.161 129.786 216.491L129.796 216.501Z" fill="#54668A"/>
<path d="M85.4302 170.826C85.5503 170.826 87.722 171.675 87.5919 171.965C84.2993 174.142 81.9274 173.882 78.1844 172.983C79.4655 172.674 85.0499 170.816 85.4302 170.826Z" fill="#398695"/>
<path d="M147.72 171.076C148.611 171.006 154.795 172.594 154.715 172.983C151.593 173.882 148.29 173.792 145.558 171.965C145.558 171.845 147.55 171.086 147.72 171.076Z" fill="#207386"/>
<path d="M94.4474 175.65L91.3949 178.946C89.9238 175.6 91.5551 174.831 94.3173 173.363C94.6575 173.623 94.2972 175.171 94.4474 175.65Z" fill="#413B5D"/>
<path d="M140.474 181.483C142.506 179.416 144.027 176.649 141.495 174.382C144.958 175.101 144.817 179.196 142.135 180.974C141.505 181.394 140.554 181.443 140.484 181.483H140.474Z" fill="#C5C1C8"/>
<path d="M102.334 169.049C100.682 169.598 96.4689 171.126 96.489 169.558C97.5498 169.208 98.8408 169.168 99.1611 169.049C100.512 168.569 101.593 165.862 102.344 169.049H102.334Z" fill="#C5C1C8"/>
<path d="M125.592 167.53C126.313 167.021 130.786 168.249 128.384 169.049C126.363 169.728 124.401 168.369 125.592 167.53Z" fill="#409DB0"/>
<path d="M87.2016 170.067C90.3541 169.588 92.3757 173.743 86.0607 170.706C86.0307 170.576 87.1015 170.087 87.2016 170.067Z" fill="#86C3CF"/>
<path d="M144.407 170.317C150.852 169.318 142.546 173.423 142.756 171.205C142.776 171.006 144.207 170.347 144.407 170.317Z" fill="#409DB0"/>
<path d="M119.878 188.075C119.738 188.874 113.152 188.874 113.012 188.075C115.274 188.145 117.616 188.135 119.878 188.075Z" fill="#413B5D"/>
<path d="M125.592 166.511C125.852 166.471 129.986 167.071 130.806 167.4C130.966 167.92 123.911 166.781 125.592 166.511Z" fill="#207386"/>
<path d="M107.288 166.511C109.129 166.801 102.144 167.82 102.073 167.4C102.874 167.121 107.027 166.471 107.288 166.511Z" fill="#409DB0"/>
<path d="M129.916 168.289C131.267 168.529 129.305 169.637 129.275 168.669C129.275 168.629 129.876 168.279 129.916 168.289Z" fill="#18445B"/>
<path d="M62.1617 197.723C61.7613 197.573 61.4511 197.104 61.5211 196.705C62.0716 196.635 62.0416 197.484 62.1617 197.723Z" fill="#6A8A88"/>
<path d="M102.964 168.03H103.214C104.145 168.139 102.794 168.599 102.964 168.03Z" fill="#1A5D73"/>
<path d="M114.794 206.093C110.27 206.153 107.488 205.874 103.094 205.334L114.794 206.093Z" fill="#695D82"/>
<path d="M120.128 206.093C118.447 206.173 116.725 206.063 115.044 206.093C116.785 205.724 120.448 205.574 120.128 206.093Z" fill="#54668A"/>
<path d="M73.1003 197.214C72.71 198.463 68.6768 195.676 69.2873 195.187C70.4682 195.876 71.8793 196.605 73.1003 197.214Z" fill="#54668A"/>
<path d="M148.601 201.779C144.767 202.997 140.654 204.515 136.651 204.315C140.664 203.706 144.617 202.538 148.601 201.779Z" fill="#939AAF"/>
<path d="M124.962 110.18C126.983 116.353 129.435 122.335 129.535 128.957C128.945 129.067 128.344 129.127 127.754 129.207C123.22 128.907 118.707 129.686 114.153 129.457C113.963 129.457 114.093 128.957 113.903 128.947C112.652 128.877 108.479 128.997 108.058 128.947C107.858 128.917 108.008 128.468 107.808 128.438C107.007 128.328 105.286 128.648 103.485 127.929C102.414 125.991 106.277 113.386 107.428 110.68C107.968 110.769 109.229 110.759 109.209 110.43C114.984 111.049 119.197 111.259 124.972 110.18H124.962Z" fill="#5D5D96"/>
<path d="M118.857 153.567C118.156 153.917 119.147 154.856 118.727 155.086C118.356 155.295 108.318 154.167 115.674 155.595C116.245 155.705 118.627 155.395 118.857 155.725L119.107 179.196C115.484 179.576 110.85 179.776 108.178 177.039V152.169C108.439 151.69 111.311 154.137 118.857 153.567Z" fill="#DCE6E3"/>
<path d="M129.285 129.467L130.556 133.022C124.081 134.56 130.696 140.014 131.197 140.124C131.947 140.293 134.489 139.844 135.39 139.614C136.071 140.553 134.279 139.684 134.749 140.633C137.982 141.652 141.115 140.913 141.235 142.151C126.843 145.917 111.891 146.146 97.2496 143.42C97.8201 142.89 96.7192 142.78 97.1195 142.66C99.5314 141.911 109.8 143.31 113.262 143.42C113.262 143.589 113.192 143.859 113.392 143.929C114.003 144.139 123.28 144.029 124.701 143.17C126.913 142.89 126.613 141.712 126.483 139.235C126.453 138.595 125.482 134.161 125.212 133.142C124.852 131.794 123.521 130.875 124.701 129.966C126.273 129.816 127.704 129.726 129.275 129.457L129.285 129.467Z" fill="#C5C1C8"/>
<path d="M132.338 128.448C134.079 119.669 128.935 110.999 128.775 110.05C128.665 109.391 129.966 109.361 129.285 109.161C130.246 108.832 131.777 107.733 132.718 107.134C133.529 107.134 136.961 113.756 137.422 114.874C140.794 122.975 141.735 125.971 132.338 128.448Z" fill="#333368"/>
<path d="M104.626 109.681C104.235 109.721 103.805 109.561 103.605 109.811C103.555 112.917 101.163 117.202 100.552 120.468C99.4714 126.251 101.353 127.709 99.2813 127.699C98.1103 127.329 97.0495 127.06 95.9786 126.43C97.5399 125.482 95.8785 125.601 95.9786 123.254C96.0687 121.027 99.8417 112.098 100.432 109.171C99.4314 108.602 96.5291 118.82 96.9994 114.884C97.0795 114.265 98.3605 113.986 96.489 113.486C97.5499 111.279 98.6908 109.101 100.172 107.144C100.572 107.034 103.945 109.381 104.626 109.681Z" fill="#7373A2"/>
<path d="M104.626 109.681C105.416 110.03 106.597 110.55 107.418 110.699C106.267 113.416 102.414 126.011 103.475 127.948C105.276 128.668 106.997 128.348 107.798 128.458C107.998 128.488 107.848 128.937 108.048 128.967C108.479 129.017 112.642 128.897 113.893 128.967C114.093 128.977 113.953 129.467 114.143 129.477C118.697 129.706 123.21 128.927 127.744 129.227C119.087 130.475 107.608 130.385 99.2712 127.709C101.343 127.719 99.4614 126.26 100.542 120.477C101.153 117.211 103.545 112.927 103.595 109.82C103.795 109.571 104.215 109.741 104.615 109.691L104.626 109.681Z" fill="#7373A2"/>
<path d="M135.89 127.948C136.671 128.238 134.469 128.548 134.369 128.837C134.059 129.676 146.819 138.855 148.35 139.874C145.578 140.933 144.107 141.402 141.235 142.161C141.115 140.913 137.982 141.662 134.75 140.643C134.269 139.704 136.071 140.573 135.39 139.624C142.005 137.956 137.242 132.543 132.087 132.773L130.816 129.217C132.087 128.947 134.88 128.398 135.9 127.948H135.89Z" fill="#5D6084"/>
<path d="M129.285 109.171C129.966 109.371 128.675 109.401 128.775 110.06C128.925 110.999 134.079 119.679 132.338 128.458C131.677 128.628 130.366 128.817 129.545 128.967C129.445 122.345 126.993 116.363 124.972 110.19C126.373 109.93 127.954 109.631 129.295 109.171H129.285Z" fill="#505086"/>
<path d="M127.254 145.198L127.504 148.244C120.068 148.993 112.542 148.813 105.126 147.994C105.136 147.005 104.295 145.877 105.376 145.207C112.612 145.947 120.018 145.877 127.244 145.207L127.254 145.198Z" fill="#939AAF"/>
<path d="M105.386 145.197C104.305 145.877 105.146 146.995 105.136 147.984C97.8401 147.175 90.6044 145.627 83.7789 142.91C84.7197 142.421 84.7097 141.222 84.0291 140.373C89.3934 142.431 99.6316 144.608 105.386 145.197Z" fill="#C5C1C8"/>
<path d="M137.932 146.466C137.892 145.587 138.623 145.747 138.693 145.707C140.064 144.918 142.876 143.63 142.255 142.411C147.9 140.853 158.378 137.727 160.43 132.004C163.162 140.114 143.777 145.208 137.932 146.466Z" fill="#413B5D"/>
<path d="M122.159 178.687L122.41 152.808C123.05 152.658 124.631 152.049 124.701 152.169V177.289C123.971 177.978 123.08 178.327 122.159 178.687Z" fill="#5D6084"/>
<path d="M120.638 153.318L120.889 178.946C120.138 179.116 119.838 179.126 119.107 179.196L118.857 155.725C118.627 155.405 116.255 155.705 115.674 155.595C108.308 154.167 118.346 155.295 118.727 155.085C119.147 154.856 118.156 153.907 118.857 153.567C119.517 153.517 120.018 153.398 120.638 153.318Z" fill="#C5C1C8"/>
<g filter="url(#filter0_d_207_5606)">
<path d="M120.388 104.597C120.588 105.226 120.868 105.316 120.898 105.356C120.938 105.426 121.279 106.515 121.789 106.624C122.79 106.834 127.023 104.777 127.003 103.069C127.924 104.777 123.781 106.565 122.55 106.874C111.471 109.721 98.3705 102.879 111.241 101.161C109.419 106.015 117.796 105.616 120.398 104.587L120.388 104.597Z" fill="#505086"/>
</g>
<path d="M122.16 178.687C121.769 178.837 121.289 178.847 120.889 178.937L120.638 153.308C121.559 153.188 122.019 152.898 122.42 152.798L122.17 178.677L122.16 178.687Z" fill="#5D6084"/>
<path d="M95.9786 126.42C91.7653 123.973 92.8962 120.987 96.489 113.476C98.3605 113.966 97.0695 114.245 96.9994 114.874C96.529 118.81 99.4314 108.592 100.432 109.161C99.8417 112.088 96.0787 121.007 95.9786 123.244C95.8785 125.591 97.5399 125.472 95.9786 126.42Z" fill="#7373A2"/>
<path d="M121.659 107.643L121.409 110.18C116.445 110.619 113.322 110.55 108.439 109.671C111.341 105.556 105.977 108.602 104.876 103.328L105.636 103.198C105.676 108.292 117.646 108.332 121.649 107.643H121.659Z" fill="#5D5D96"/>
<path d="M137.932 143.679L138.693 145.707C138.623 145.747 137.882 145.587 137.932 146.466C134.559 147.195 130.936 147.894 127.504 148.244L127.254 145.198C130.806 144.868 134.449 144.419 137.932 143.679Z" fill="#695D82"/>
<path d="M108.559 148.753L124.962 149.133C121.059 152.399 111.511 152.878 108.559 148.753Z" fill="#413B5D"/>
<path d="M104.876 103.328C105.977 108.602 111.341 105.556 108.439 109.671C102.654 108.632 96.7092 106.834 104.876 103.328Z" fill="#505086"/>
<path d="M106.017 148.494C106.817 148.004 109.489 151.5 113.903 152.049C122.32 153.088 125.472 148.893 126.103 148.753C128.825 148.144 125.792 151.14 123.561 152.049C119.487 153.717 112.202 153.727 108.309 151.54C107.778 151.24 105.026 149.103 106.017 148.494Z" fill="#DCE6E3"/>
<path d="M127.504 109.171C124.141 104.627 127.784 107.204 128.014 103.079C134.199 105.855 133.639 107.334 127.504 109.171Z" fill="#333368"/>
<path d="M84.0291 140.373C84.6996 141.222 84.7096 142.421 83.7789 142.91C81.5971 142.041 79.9558 141.362 77.9342 140.124C78.0843 139.165 77.724 138.316 78.6948 137.836C80.1259 138.655 82.4978 139.784 84.0291 140.373Z" fill="#413B5D"/>
<path d="M78.6849 137.837C77.7141 138.316 78.0744 139.165 77.9242 140.124C76.0728 138.985 72.5099 136.668 72.0796 134.411C71.0087 128.897 73.5608 134.171 74.7517 135.3C75.3422 135.859 77.8142 137.327 78.6949 137.837H78.6849Z" fill="#C5C1C8"/>
<path d="M126.993 103.079C127.013 104.787 122.78 106.844 121.779 106.635C121.269 106.525 120.928 105.436 120.888 105.366C122.44 104.497 124.501 103.908 125.212 102.07C125.732 102.3 126.693 102.53 126.993 103.089V103.079Z" fill="#505086"/>
<path d="M128.014 103.079C127.784 107.204 124.141 104.617 127.504 109.171C126.753 109.391 125.983 109.531 125.212 109.681C124.401 108.782 123.18 107.903 123.941 106.894C124.611 106.635 125.542 106.345 126.103 105.875C128.384 103.968 127.013 103.079 128.014 103.089V103.079Z" fill="#505086"/>
<g filter="url(#filter1_d_207_5606)">
<path d="M125.212 102.06C124.501 103.908 122.44 104.487 120.888 105.356C120.868 105.316 120.578 105.216 120.378 104.597C123.981 103.169 119.357 99.4631 125.212 102.06Z" fill="#505086"/>
</g>
<path d="M125.212 109.681C123.921 109.93 122.7 110.07 121.399 110.19L121.649 107.653C122.35 107.533 123.26 107.154 123.941 106.894C123.18 107.903 124.401 108.782 125.212 109.681Z" fill="#7373A2"/>
<path d="M138.693 145.707L137.932 143.679C139.333 143.38 140.854 142.8 142.255 142.411C142.876 143.639 140.064 144.928 138.693 145.707Z" fill="#54668A"/>
<path d="M132.077 132.763C131.627 132.783 130.997 132.913 130.556 133.012L129.285 129.457C129.816 129.367 130.276 129.317 130.806 129.207L132.077 132.763Z" fill="#5D6084"/>
<path d="M109.199 110.44C109.219 110.779 107.958 110.789 107.418 110.689C106.597 110.55 105.406 110.02 104.625 109.671C106.077 109.511 107.748 110.28 109.199 110.43V110.44Z" fill="#7373A2"/>
<path d="M124.712 129.976C123.521 130.885 124.862 131.794 125.222 133.152C125.492 134.171 126.463 138.606 126.493 139.245C126.623 141.722 126.923 142.9 124.712 143.18C121.779 143.55 116.305 143.709 113.272 143.43C109.81 143.32 99.5315 141.922 97.1295 142.671C96.7292 142.791 97.8301 142.9 97.2597 143.43C92.5559 142.551 72.3598 137.437 72.8502 131.125C73.1404 127.349 88.9831 122.445 92.5559 121.866C93.2665 121.976 91.6952 123.814 94.0771 125.921C99.3713 130.605 117.746 130.625 124.712 129.976Z" fill="#DCE6E3"/>
<path d="M124.711 143.17C123.28 144.029 114.013 144.149 113.402 143.929C113.202 143.859 113.272 143.59 113.272 143.42C116.305 143.7 121.779 143.53 124.711 143.17Z" fill="#5D6084"/>
<path d="M115.934 133.022C123.711 132.733 121.139 140.273 120.258 140.893C118.997 141.772 114.183 141.652 112.882 140.893C111.691 140.194 109.399 133.272 115.934 133.022Z" fill="#0F0F12"/>
<path d="M115.424 133.522C122.97 132.833 123.02 142.591 114.403 140.883C111.531 140.313 110.49 133.971 115.424 133.522Z" fill="#409DB0"/>
<path d="M114.153 134.54C122.049 132.443 121.769 142.171 114.663 140.373C112.402 139.804 112.071 135.09 114.153 134.54Z" fill="#0F0F12"/>
<path d="M114.663 135.05C120.578 133.671 119.918 138.835 118.226 139.364C113.252 140.913 112.322 135.599 114.663 135.05Z" fill="#207386"/>
<path d="M86.9515 127.689C89.1432 127.429 96.469 130.026 90.0039 133.781C83.809 137.367 80.8266 132.653 80.9767 131.374C81.0968 130.356 86.3009 127.769 86.9515 127.699V127.689Z" fill="#0F0F12"/>
<path d="M86.7013 128.198C89.2434 127.819 92.4359 129.746 92.1657 131.115C92.0656 131.634 86.8214 136.348 82.8883 133.781C78.745 131.075 86.0408 128.298 86.7013 128.198Z" fill="#409DB0"/>
<path d="M86.1909 128.957C91.0848 128.048 93.1865 131.894 87.4619 133.781C81.7273 135.669 80.7766 129.976 86.1909 128.957Z" fill="#0F0F12"/>
<path d="M89.2433 129.716C92.7361 129.796 87.7621 133.791 85.1801 133.522C79.6857 132.952 88.2325 129.696 89.2433 129.716Z" fill="#207386"/>
<path d="M98.6508 132.763C105.236 131.954 107.628 136.348 101.953 140.373C89.3033 139.804 95.8485 133.102 98.6508 132.763Z" fill="#0F0F12"/>
<path d="M98.1403 133.272C99.1011 133.082 103.865 133.682 104.365 134.411C105.026 135.369 104.515 140.284 98.9009 139.614C91.6752 138.745 96.2488 133.652 98.1403 133.272Z" fill="#409DB0"/>
<path d="M99.1511 134.031C99.6115 133.971 100.452 133.991 100.933 134.031C106.637 134.551 102.234 140.244 97.6299 138.855C93.7869 137.697 97.3197 134.261 99.1511 134.031Z" fill="#0F0F12"/>
<path d="M100.172 135.05C105.676 134.321 102.284 139.185 98.1403 138.346C94.4674 137.597 98.5606 135.26 100.172 135.05Z" fill="#207386"/>
<path d="M132.077 132.763C137.241 132.533 141.995 137.946 135.38 139.614C134.479 139.844 131.937 140.294 131.187 140.124C130.686 140.014 124.081 134.561 130.546 133.022C130.987 132.913 131.617 132.793 132.067 132.773L132.077 132.763Z" fill="#0F0F12"/>
<path d="M131.957 133.272C137.021 132.873 138.863 136.848 137.682 138.216C136.811 139.215 131.857 139.854 130.686 139.355C130.206 139.155 124.722 133.842 131.957 133.262V133.272Z" fill="#409DB0"/>
<path d="M131.187 134.031C136.091 133.322 138.893 137.827 135.25 138.855C131.047 140.034 126.383 134.73 131.187 134.031Z" fill="#0F0F12"/>
<path d="M130.426 134.79C131.637 134.201 139.063 137.487 134.749 138.346C131.577 138.975 128.945 135.509 130.426 134.79Z" fill="#207386"/>
<path d="M148.35 139.874C146.819 138.855 134.059 129.676 134.369 128.837C134.479 128.548 136.671 128.238 135.89 127.948C141.985 125.292 139.984 121.846 140.344 121.606C153.925 125.701 172.209 130.725 148.35 139.874Z" fill="#5D6084"/>
<path d="M148.35 135.05C157.488 133.112 147.32 124.642 141.745 128.957C136.611 125.461 140.764 129.027 141.105 122.365C144.557 123.224 160.68 127.579 159.539 132.133C159.269 133.222 151.313 138.536 150.772 138.605C149.291 138.785 148.771 136.158 148.36 135.05H148.35Z" fill="#5D6084"/>
<path d="M148.35 135.05C144.727 135.819 139.864 131.844 140.214 130.356C140.274 130.106 141.455 129.177 141.735 128.957C147.319 124.643 157.478 133.112 148.34 135.05H148.35Z" fill="#0F0F12"/>
<path d="M144.667 128.198C146.749 128.008 152.834 130.196 151.153 132.893C148.36 137.367 140.714 132.293 140.724 130.865C140.724 129.876 143.777 128.278 144.667 128.198Z" fill="#409DB0"/>
<path d="M144.918 128.708C146.509 128.618 150.452 130.775 150.642 131.624C150.962 133.112 148.34 135.18 144.417 133.272C140.364 131.304 142.225 128.867 144.928 128.708H144.918Z" fill="#0F0F12"/>
<path d="M143.647 129.716C144.327 129.626 148.821 131.604 150.132 131.874C148.37 136.218 140.264 130.166 143.647 129.716Z" fill="#207386"/>
<ellipse cx="116.754" cy="102.626" rx="6.36261" ry="3.30584" fill="#505086"/>
</g>
<path d="M68.2186 92.7468L82.087 103.816L82.1373 83.5292C95.8973 79.4803 124.654 69.192 129.6 60.4291C135.782 49.4754 122.83 24.6916 109.023 10.0003C95.2171 -4.69094 38.8004 18.3632 15.8852 36.5006C-7.02988 54.638 15.7671 78.8262 24.9788 92.7669C32.3481 103.919 56.8758 97.4004 68.2186 92.7468Z" fill="#505086"/>
<defs>
<filter id="filter0_d_207_5606" x="101.912" y="101.161" width="29.2234" height="14.3977" filterUnits="userSpaceOnUse" color-interpolation-filters="sRGB">
<feFlood flood-opacity="0" result="BackgroundImageFix"/>
<feColorMatrix in="SourceAlpha" type="matrix" values="0 0 0 0 0 0 0 0 0 0 0 0 0 0 0 0 0 0 127 0" result="hardAlpha"/>
<feOffset dy="4"/>
<feGaussianBlur stdDeviation="2"/>
<feComposite in2="hardAlpha" operator="out"/>
<feColorMatrix type="matrix" values="0 0 0 0 0 0 0 0 0 0 0 0 0 0 0 0 0 0 0.25 0"/>
<feBlend mode="normal" in2="BackgroundImageFix" result="effect1_dropShadow_207_5606"/>
<feBlend mode="normal" in="SourceGraphic" in2="effect1_dropShadow_207_5606" result="shape"/>
</filter>
<filter id="filter1_d_207_5606" x="116.378" y="101.16" width="12.8339" height="12.196" filterUnits="userSpaceOnUse" color-interpolation-filters="sRGB">
<feFlood flood-opacity="0" result="BackgroundImageFix"/>
<feColorMatrix in="SourceAlpha" type="matrix" values="0 0 0 0 0 0 0 0 0 0 0 0 0 0 0 0 0 0 127 0" result="hardAlpha"/>
<feOffset dy="4"/>
<feGaussianBlur stdDeviation="2"/>
<feComposite in2="hardAlpha" operator="out"/>
<feColorMatrix type="matrix" values="0 0 0 0 0 0 0 0 0 0 0 0 0 0 0 0 0 0 0.25 0"/>
<feBlend mode="normal" in2="BackgroundImageFix" result="effect1_dropShadow_207_5606"/>
<feBlend mode="normal" in="SourceGraphic" in2="effect1_dropShadow_207_5606" result="shape"/>
</filter>
<clipPath id="clip0_207_5606">
<rect width="113" height="148" fill="white" transform="translate(60 71.8567)"/>
</clipPath>
</defs>
</svg>
