<svg width="306" height="306" viewBox="0 0 306 306" fill="none" xmlns="http://www.w3.org/2000/svg">
<g clip-path="url(#clip0_46_6302)">
<path d="M295.84 113.484C295.28 112.818 294.388 112.536 293.55 112.75L270.847 118.623C269.913 118.864 268.938 118.487 268.404 117.689L258.536 102.894C258.421 102.72 258.285 102.563 258.122 102.432L248.811 94.5146C248.559 94.3 248.36 94.0323 248.218 93.7281L236.589 68.0474C236.536 67.9165 236.468 67.7964 236.384 67.6858L229.573 57.9548C229.557 57.9285 229.541 57.9076 229.526 57.8866L220.109 43.2895C219.795 42.7964 219.673 42.1988 219.795 41.622L220.072 40.2372C220.203 39.5768 220.623 39.0103 221.215 38.6911C221.813 38.3714 222.515 38.3349 223.139 38.5913L224.581 39.189C225.389 39.5248 226.322 39.3569 226.966 38.7592C227.607 38.1664 227.847 37.2543 227.586 36.4206L225.965 31.3346C225.725 30.5696 225.095 29.9922 224.309 29.8195L208.213 26.2383C207.872 26.1654 207.51 26.1702 207.174 26.2545L194.361 29.4573C193.983 29.5518 193.585 29.5464 193.207 29.4364L181.997 26.3011C181.583 26.1863 181.206 25.9557 180.922 25.6299L178.017 22.3584C177.613 21.9071 177.048 21.6346 176.445 21.6083L169.488 21.2575C168.333 21.2049 167.317 22.0279 167.149 23.176L166.31 28.776C166.216 29.3844 165.885 29.9295 165.388 30.2809C164.884 30.6323 164.26 30.7686 163.663 30.6586L148.883 27.864C148.075 27.7068 147.42 27.1348 147.163 26.3591L146.089 23.1341C145.79 22.243 144.966 21.6292 144.028 21.5981L132.268 21.1941C131.581 21.1732 130.946 20.8379 130.538 20.2923L126.726 15.2062C126.343 14.6976 126.196 14.0474 126.317 13.424C126.437 12.7947 126.82 12.2544 127.365 11.9245L128.366 11.3214C129.394 10.7077 129.756 9.39699 129.205 8.33794L125.466 1.19774C125.019 0.358635 124.097 -0.113514 123.154 0.022752L79.3 6.21567C79.1165 6.23658 78.9378 6.28918 78.7651 6.35731L65.9561 11.5743C65.7254 11.6735 65.4786 11.7261 65.227 11.7368L57.0164 12.1665C56.4659 12.1982 55.9525 12.4235 55.5641 12.8066L40.3065 27.5974C39.9611 27.9333 39.7298 28.3678 39.6515 28.8399L38.4454 36.0596C38.3462 36.6943 37.9738 37.2502 37.4342 37.5962L23.8698 46.1845C23.5494 46.3835 23.2823 46.6668 23.1042 46.9967L10.7775 69.2857C10.5731 69.6527 10.4739 70.0615 10.4942 70.481L11.4481 90.9394C11.4534 91.1175 11.4427 91.2908 11.4062 91.4642L9.67123 100.582C9.54513 101.248 9.72861 101.94 10.1637 102.465L43.3468 141.809C43.8978 142.459 44.768 142.742 45.6017 142.548L60.2981 138.978C60.5234 138.925 60.7541 138.904 60.9902 138.92L81.5693 140.357C81.8526 140.383 82.1406 140.341 82.4185 140.257L97.7233 135.302C98.4519 135.067 99.2485 135.219 99.8414 135.7L109.116 143.293C109.567 143.654 110.149 143.838 110.731 143.791L119.304 143.073C119.933 143.026 120.552 143.235 121.013 143.665C121.48 144.09 121.747 144.687 121.747 145.322V153.632C121.747 153.747 121.737 153.858 121.721 153.968L120.4 162.761C120.311 163.38 120.478 164.019 120.877 164.507L130.383 176.272C130.582 176.523 130.729 176.817 130.813 177.127L138.473 206.824C138.583 207.238 138.568 207.674 138.437 208.077L131.448 229.988C131.281 230.512 131.312 231.084 131.532 231.587L143.47 258.322C143.559 258.521 143.622 258.731 143.648 258.957L146.002 277.349C146.055 277.774 146.238 278.173 146.506 278.503L157.988 292.277C158.324 292.686 158.507 293.189 158.507 293.719V303.754C158.507 304.399 158.785 305.017 159.278 305.447C159.76 305.878 160.41 306.066 161.055 305.982L181.362 303.34L198.412 300.97C198.947 300.891 199.44 300.629 199.796 300.215L225.682 270.502C225.933 270.209 226.112 269.847 226.185 269.464L227.381 263.513C227.497 262.931 227.843 262.412 228.34 262.082L231.062 260.273C231.67 259.859 232.047 259.183 232.063 258.449L232.509 240.056C232.525 239.537 232.718 239.034 233.06 238.641L238.559 232.296C238.843 231.971 239.204 231.74 239.618 231.615L250.786 228.301C251.746 228.018 252.401 227.142 252.401 226.14V203.763C252.401 203.574 252.38 203.39 252.333 203.212L246.891 181.893C246.628 180.865 247.116 179.796 248.065 179.318L249.911 178.396C250.246 178.228 250.529 177.987 250.739 177.688L266.95 154.802C267.181 154.472 267.501 154.215 267.862 154.047L280.934 148.191C281.432 147.965 281.836 147.561 282.061 147.064L296.165 115.862C296.522 115.068 296.402 114.145 295.84 113.484Z" fill="#4B4B7A" stroke="#4B4B7A" stroke-width="1.5625"/>
<path d="M290.225 212.91C289.874 212.245 289.219 211.794 288.474 211.715C287.73 211.631 286.99 211.925 286.508 212.502L275.592 225.431C275.371 225.698 275.093 225.909 274.774 226.045L268.655 228.724C267.832 229.08 267.308 229.893 267.308 230.79V243.442C267.308 243.63 267.281 243.813 267.234 243.992L265.472 251.044C265.373 251.453 265.389 251.878 265.514 252.282L269.578 264.875C269.766 265.457 270.176 265.93 270.72 266.202C271.261 266.47 271.895 266.512 272.462 266.312L280.609 263.475C281.301 263.234 281.831 262.678 282.041 261.981L291.646 228.818L293.874 221.242C294.037 220.686 293.979 220.083 293.712 219.563L290.225 212.91Z" fill="#4B4B7A" stroke="#4B4B7A" stroke-width="1.5625"/>
</g>
<defs>
<clipPath id="clip0_46_6302">
<rect width="306" height="306" fill="white"/>
</clipPath>
</defs>
</svg>
