<svg width="295" height="295" viewBox="0 0 295 295" fill="none" xmlns="http://www.w3.org/2000/svg">
<path d="M282.267 90.254C271.137 63.9526 252.572 41.6016 229.199 25.8088C205.824 10.0119 177.591 0.776674 147.284 0.781252C127.079 0.781252 107.786 4.8804 90.2552 12.2964C63.9532 23.427 41.6028 41.9913 25.8099 65.365C10.0119 88.7392 0.776674 116.972 0.781252 147.279C0.781252 167.484 4.8804 186.777 12.2964 204.308C23.427 230.61 41.9868 252.96 65.3656 268.753C88.7392 284.551 116.973 293.786 147.284 293.781C167.484 293.781 186.777 289.682 204.309 282.267C230.611 271.136 252.962 252.576 268.754 229.198C284.551 205.824 293.786 177.59 293.782 147.279C293.782 127.079 289.683 107.786 282.267 90.254ZM138.933 74.1087C141.173 73.3178 144.897 75.8655 143.994 78.2702C142.492 82.2663 147.708 84.2423 149.425 86.5532C150.926 88.5687 153.765 94.9701 147.623 93.7448C144.708 93.164 143.694 96.7401 139.827 94.4962C140.784 93.1331 144.624 84.2956 141.723 84.4341C139.958 84.5193 137.191 75.8558 138.933 74.1087ZM134.584 82.2039C133.221 82.5925 135.635 81.9001 134.584 82.2039C139.448 80.8093 139.654 88.8955 137.378 90.7147C132.626 94.5014 132.426 90.527 133.234 87.304C133.596 85.883 129.546 83.6478 134.584 82.2039ZM28.5047 97.1115C31.8891 89.1192 36.0724 81.5464 40.9275 74.4657C43.0998 74.2695 44.3737 73.2771 47.3374 70.5812C50.1404 74.0142 52.9382 77.4473 55.7458 80.8803C56.6042 81.931 53.8859 83.2317 55.209 84.4249C56.8806 85.9311 58.0697 85.9986 59.8174 83.9242C60.9666 86.0026 62.1105 88.0857 63.2596 90.1647C59.8089 91.5863 56.9567 93.1955 53.2335 93.1239C47.3283 92.9992 44.4183 92.4487 39.8053 96.4002C41.7361 99.4446 43.8729 97.5218 46.4745 96.4002C45.2899 99.887 46.9975 104.894 50.9937 105.443C49.2322 107.137 47.4668 108.827 45.7099 110.521C44.9013 111.299 42.7152 108.469 45.1829 106.735C44.2844 106.047 42.416 105.269 41.312 105.01C40.9584 109.127 37.0252 106.718 35.2861 109.314C33.3907 112.14 37.0784 113.905 32.9524 115.086C26.0371 117.061 27.9994 124.173 22.7248 128.259C22.18 128.683 20.8032 129.52 19.4755 130.453C20.9949 118.773 24.0794 107.59 28.5047 97.1115ZM42.6975 158.964C42.3175 158.745 41.933 158.521 41.5484 158.298C41.2806 157.038 44.7451 157.561 45.196 157.922C46.2559 158.768 42.9831 158.911 42.6975 158.964ZM29.7877 157.1C30.3377 157.288 30.8201 157.198 31.2407 156.828C30.7039 156.394 30.1277 156.018 29.5194 155.706C29.0186 153.712 40.1492 157.235 38.5715 158.124C37.4269 158.773 27.2669 158.858 27.79 157.794C28.2993 157.155 28.97 156.922 29.7837 157.101C29.1085 156.845 29.5108 156.997 29.7877 157.1ZM18.4334 150.024C22.6802 151.226 26.8286 152.929 27.4901 153.367C27.6646 153.488 25.9261 154.189 26.484 154.377C27.0477 154.507 27.5748 154.712 28.0841 154.981C28.5848 155.396 21.178 157.077 21.6118 155.379C21.978 154.905 22.3941 154.476 22.8547 154.082C22.7695 154.199 20.6996 153.063 18.4735 152.017C18.4511 151.356 18.4511 150.685 18.4334 150.024ZM20.7494 157.534C21.5139 157.377 25.9478 158.552 24.0033 159.541C23.3463 159.447 22.6893 159.348 22.0364 159.25C20.7179 159 20.2887 158.428 20.7494 157.534ZM96.5707 209.981C93.7678 212.963 93.8753 214.214 93.4999 217.97C93.0038 222.909 92.392 232.596 86.8353 232.967C77.6893 233.575 75.0787 241.102 72.4817 248.241C72.0708 249.385 71.6056 250.373 71.1094 251.254C59.1342 242.462 48.7143 231.666 40.3913 219.342C31.4467 206.093 24.916 191.109 21.3846 174.99C22.6808 175.58 23.1992 176.885 23.2038 178.231C23.2038 178.244 23.2038 178.262 23.2038 178.28C23.2845 178.173 23.3515 178.061 23.4499 177.958C24.3398 176.841 31.4244 166.296 30.8436 173.47C34.8489 174.297 34.2989 171.226 37.2266 170.739C40.3735 170.216 41.1112 174.807 44.2089 173.824C49.6443 172.094 50.038 172.934 53.0281 177.422C56.0989 182.027 63.5687 180.141 67.6987 183.041C71.0247 185.379 71.6279 188.065 72.1063 191.977C72.3032 193.612 78.8476 193.837 80.3847 193.837C82.0254 193.837 81.7748 196.161 82.4764 197.041C83.0486 197.761 85.3777 197.497 86.124 197.595C89.8964 198.07 94.1792 199.101 97.2637 201.422C100.8 204.081 99.0561 207.331 96.5707 209.981ZM112.547 53.859C113.454 53.6667 115.032 55.419 115.551 55.0751C117.383 53.8453 116.977 53.7651 119.654 53.6135C120.383 53.5734 131.469 54.4313 128.443 57.4706C128.439 57.4751 128.439 57.4751 128.439 57.4751C128.439 57.4797 128.439 57.4797 128.434 57.4797C124.169 61.7351 120.848 60.3182 115.851 60.3182C113.7 60.3182 108.354 54.726 112.547 53.859ZM238.706 228.872C236.887 235.162 237.454 236.753 231.357 238.872C229.444 232.927 230.065 229.306 230.065 223.164C230.065 222.954 238.393 215.225 239.318 214.121C242.269 219.757 240.427 222.922 238.706 228.872ZM276.081 152.147C274.798 150.529 273.649 148.611 272.46 147.418C269.89 144.848 262.885 146.881 258.875 146.341C255.339 145.867 254.454 146.465 253.207 143.144C252.545 141.379 250.149 143.26 248.509 143.417C243.533 143.886 241.321 135.786 236.734 138.379C238.21 140.69 242.666 147.673 244.508 148.285C248.236 149.528 247.346 144.374 251.799 145.698C251.445 147.051 251.959 148.648 251.584 149.998C264.596 146.708 253.381 163.233 247.633 162.004C246.059 161.664 246.663 164.007 245 164.49C242.452 165.236 239.904 165.978 237.351 166.72C234.119 167.663 231.254 170.015 229.43 166.89C225.179 159.609 222.412 150.637 217.057 144.768C216.132 143.753 214.527 142.224 213.365 140.548C213.409 140.682 213.449 140.825 213.499 140.959C212.466 140.208 210.937 140.118 209.838 139.458C208.51 143.145 213.552 148.054 215.662 151.066C218.38 154.946 219.028 160.31 221.889 163.985C223.118 165.567 225.335 166.353 226.452 168.034C227.401 169.456 229.403 174.132 230.928 174.744C233.261 175.683 240.829 172.187 243.408 171.516C242.035 174.816 239.014 186.013 235.84 187.435C229.774 190.153 228.241 192.602 224.33 198.123C224.021 198.552 221.151 201.703 221.115 201.56C221.84 204.39 222.564 207.219 223.284 210.048C223.819 212.145 224.621 221.573 223.006 222.046C215.563 224.255 215.014 226.346 214.831 233.897C214.755 237.004 211.134 241.389 208.819 244.048C205.422 247.951 202.784 253.199 197.536 253.927C192.677 254.602 187.81 255.232 182.937 255.867C182.937 251.93 183.299 250.49 180.823 247.522C177.913 244.031 177.488 243.025 176.907 238.515C176.254 233.419 170.085 226.365 171.511 221.886C174.319 213.084 173.527 209.933 171.19 200.867C170.488 198.136 167.077 196.665 166.375 194.113C165.826 192.133 167.02 187.274 167.02 185.075C162.795 185.427 162.062 185.673 158.785 182.996C156.099 180.801 153.524 182.795 150.346 183.823C147.708 184.677 143.699 183.573 140.945 183.381C138.732 183.224 135.46 185.723 133.449 185.075C129.207 183.707 123.033 172.728 120.11 169.255C117.361 166.001 119.041 158.299 118.836 153.838C118.559 147.902 126.127 142.243 130.387 139.543C131.558 138.801 132.166 134.737 133.762 133.191C136.024 130.996 137.481 128.542 140.655 128.372C146.242 128.077 152.617 125.319 158.41 124.501C161.633 124.045 164.86 123.589 168.088 123.134C169.42 122.945 171.793 127.934 168.522 128.913C170.462 132.753 177.01 131.564 177.569 133.24C178.673 136.553 182.933 136.048 186.17 136.656C185.722 128.515 192.396 134.38 196.325 135.484C199.302 136.315 201.292 134.514 204.247 134.51C206.701 134.505 209.584 135.694 211.993 136.231C211.998 136.262 212.007 136.285 212.015 136.316C212.055 136.128 212.105 135.94 212.181 135.753C213.79 131.73 214.572 129.338 214.572 125.038C212.015 125.341 203.956 127.782 201.882 126.544C200.643 125.806 199.449 121.958 198.771 120.679C197.591 118.444 199.164 118.471 201.211 117.135C208.261 112.539 216.397 115.713 224.04 114.064C223.468 111.288 221.997 109.956 219.954 108.253C216.893 105.705 217.509 105.361 218.229 101.369C216.222 101.941 214.215 102.514 212.204 103.09C212.945 103.966 212.968 105.455 213.71 106.317C208.658 109.835 210.071 103.362 206.611 102.88C203.527 102.442 202.718 107.546 201.153 109.397C198.918 112.052 202.11 114.148 198.542 115.463C196.052 116.38 194.399 118.654 191.551 117.725C193.648 118.883 194.917 120.572 194.345 122.888C193.513 122.431 192.36 122.521 191.551 122.029C191.967 123.165 191.722 124.572 192.195 125.681C188.77 124.138 185.369 118.515 184.77 114.921C184.256 111.846 176.595 107.76 173.903 105.458C169.567 110.201 181.507 112.686 182.616 116.754C182.535 116.45 180.314 123.428 180.144 123.531C177.144 125.39 177.716 119.136 176.733 118.238C173.788 115.565 167.766 107.166 164.57 109.754C160.18 113.312 161.929 109.146 158.38 110.255C155.04 111.296 156.573 114.51 154.513 115.127C148.983 116.785 153.15 118.484 149.846 121.238C146.574 123.965 146.06 123.956 141.818 123.871C133.727 123.718 132.162 121.797 132.971 113.679C133.66 106.835 141.277 109.665 146.909 109.754C148.97 109.789 148.174 104.47 147.079 103.376C145.179 101.48 142.604 102.016 141.197 99.4326C149.497 97.9487 151.598 93.6842 158.196 89.1026C159.256 88.369 165.527 86.0542 165.478 85.3835C165.357 83.5196 163.882 76.4475 168.312 77.2658C172.442 78.0344 166.421 84.2166 169.773 84.3997C171.66 84.5073 176.649 86.9881 177.1 86.4965C179.759 83.5951 182.915 84.6859 186.782 84.7843C188.119 84.8198 189.907 78.4058 190.475 77.0512C195.212 81.8388 194.323 75.6034 193.698 72.7467C195.472 72.8136 202.052 73.8683 203.17 71.4591C205.222 67.0469 198.154 68.6561 196.174 69.2015C193.837 69.8367 189.434 70.3683 188.535 66.7253C188.244 65.5321 190.998 59.6984 192.124 59.1038C195.339 57.4008 196.483 55.6754 193.238 53.0246C189.617 50.0563 189.6 57.6377 189.184 58.1161C185.59 62.2461 176.131 64.3961 184.021 71.0304C181.513 71.5935 180.579 72.8497 180.503 75.0844C180.351 79.219 180.655 78.9374 176.596 79.6888C172.747 80.399 172.125 73.636 170.888 70.3815C168.067 73.363 162.3 78.5483 159.918 71.6737C157.728 65.3307 163.212 63.4662 167.485 61.5222C171.12 59.8729 174.722 52.4793 177.185 49.2831C178.634 47.4101 177.431 46.3549 179.608 44.5579C181.776 42.7748 183.591 42.5647 186.376 41.9387C188.718 41.411 190.484 38.7557 192.772 38.7065C196.063 38.6447 199.366 38.8902 202.651 39.0464C206.661 39.2433 203.653 41.0002 205.651 41.6525C208.637 42.6311 211.619 43.6103 214.6 44.5848C217.872 45.6578 224.765 48.5678 222.338 51.907C219.727 55.4917 212.996 51.0709 210.483 49.7255C208.44 53.3731 212.303 52.6624 214.144 54.6739C214.618 55.1924 213.241 57.383 213.711 57.9015C214.466 58.729 216.2 59.3407 217.162 59.8998C220.085 61.5897 218.923 55.2645 217.805 56.3953C219.365 54.813 220.474 54.813 222.964 56.3953C223.331 53.0607 227.117 51.8669 229.852 53.3823C229.897 51.7324 229.938 50.074 229.982 48.4202C239.239 56.1715 247.397 65.1922 254.174 75.2229C268.076 95.8033 276.18 120.554 276.185 147.28C276.184 148.911 276.143 150.534 276.081 152.147Z" fill="#4B4B7A"/>
<path d="M134.584 82.2039C133.221 82.5925 135.635 81.9001 134.584 82.2039ZM134.584 82.2039C139.448 80.8093 139.654 88.8955 137.378 90.7147C132.626 94.5014 132.426 90.527 133.234 87.304C133.596 85.883 129.546 83.6478 134.584 82.2039ZM282.267 90.254C271.137 63.9526 252.572 41.6016 229.199 25.8088C205.824 10.0119 177.591 0.776674 147.284 0.781252C127.079 0.781252 107.786 4.8804 90.2552 12.2964C63.9532 23.427 41.6028 41.9913 25.8099 65.365C10.0119 88.7392 0.776674 116.972 0.781252 147.279C0.781252 167.484 4.8804 186.777 12.2964 204.308C23.427 230.61 41.9868 252.96 65.3656 268.753C88.7392 284.551 116.973 293.786 147.284 293.781C167.484 293.781 186.777 289.682 204.309 282.267C230.61 271.136 252.962 252.576 268.754 229.198C284.551 205.824 293.786 177.591 293.782 147.279C293.782 127.079 289.683 107.786 282.267 90.254ZM138.933 74.1086C141.173 73.3178 144.897 75.8655 143.994 78.2702C142.492 82.2663 147.708 84.2423 149.425 86.5532C150.926 88.5687 153.765 94.9701 147.623 93.7448C144.708 93.164 143.694 96.7401 139.827 94.4962C140.784 93.1331 144.624 84.2956 141.723 84.4341C139.958 84.5193 137.191 75.8558 138.933 74.1086ZM28.5047 97.1115C31.8891 89.1192 36.0724 81.5464 40.9275 74.4657C43.0998 74.2695 44.3737 73.2771 47.3374 70.5812C50.1404 74.0142 52.9382 77.4473 55.7458 80.8803C56.6042 81.931 53.8859 83.2317 55.209 84.4249C56.8806 85.9311 58.0697 85.9986 59.8174 83.9242C60.9666 86.0026 62.1105 88.0857 63.2596 90.1647C59.8089 91.5863 56.9567 93.1955 53.2335 93.1239C47.3283 92.9992 44.4183 92.4487 39.8053 96.4002C41.7361 99.4446 43.8729 97.5218 46.4745 96.4002C45.2899 99.887 46.9975 104.894 50.9937 105.443C49.2322 107.137 47.4668 108.827 45.7099 110.521C44.9013 111.299 42.7152 108.469 45.1829 106.735C44.2844 106.047 42.416 105.269 41.312 105.01C40.9584 109.127 37.0252 106.718 35.2861 109.315C33.3907 112.14 37.0784 113.905 32.9524 115.086C26.0371 117.061 27.9994 124.173 22.7248 128.259C22.18 128.683 20.8032 129.52 19.4755 130.453C20.9949 118.773 24.0794 107.59 28.5047 97.1115ZM42.6975 158.964C42.3175 158.745 41.933 158.521 41.5484 158.298C41.2806 157.038 44.7451 157.561 45.196 157.922C46.2559 158.768 42.9831 158.911 42.6975 158.964ZM29.7877 157.1C30.3377 157.288 30.8201 157.198 31.2407 156.828C30.7039 156.394 30.1277 156.018 29.5193 155.706C29.0186 153.712 40.1492 157.235 38.5715 158.124C37.4269 158.773 27.2669 158.858 27.79 157.794C28.2993 157.155 28.97 156.922 29.7837 157.101C29.1085 156.845 29.5108 156.997 29.7877 157.1ZM18.4334 150.024C22.6802 151.226 26.8286 152.929 27.4901 153.367C27.6646 153.488 25.9261 154.189 26.484 154.377C27.0477 154.507 27.5748 154.712 28.0841 154.981C28.5848 155.396 21.178 157.077 21.6118 155.379C21.978 154.905 22.3941 154.476 22.8547 154.082C22.7695 154.199 20.6996 153.063 18.4735 152.017C18.4511 151.356 18.4511 150.685 18.4334 150.024ZM20.7494 157.534C21.5139 157.377 25.9478 158.552 24.0033 159.541C23.3463 159.447 22.6893 159.348 22.0364 159.25C20.7179 159 20.2887 158.428 20.7494 157.534ZM96.5707 209.981C93.7678 212.963 93.8753 214.214 93.4999 217.97C93.0038 222.909 92.392 232.596 86.8353 232.967C77.6893 233.575 75.0787 241.102 72.4817 248.241C72.0708 249.385 71.6056 250.373 71.1094 251.254C59.1342 242.462 48.7143 231.666 40.3913 219.342C31.4467 206.093 24.916 191.109 21.3846 174.99C22.6808 175.58 23.1992 176.885 23.2038 178.231C23.2038 178.244 23.2038 178.262 23.2038 178.28C23.2845 178.173 23.3515 178.061 23.4499 177.958C24.3398 176.841 31.4244 166.296 30.8436 173.47C34.8489 174.297 34.2989 171.226 37.2266 170.739C40.3735 170.216 41.1112 174.807 44.2089 173.824C49.6443 172.094 50.038 172.934 53.0281 177.422C56.0989 182.027 63.5687 180.141 67.6987 183.041C71.0247 185.379 71.6279 188.065 72.1063 191.977C72.3032 193.612 78.8476 193.837 80.3847 193.837C82.0254 193.837 81.7748 196.161 82.4764 197.041C83.0486 197.761 85.3777 197.497 86.124 197.595C89.8964 198.07 94.1792 199.101 97.2637 201.422C100.8 204.081 99.0561 207.331 96.5707 209.981ZM112.547 53.859C113.454 53.6667 115.032 55.419 115.551 55.0751C117.383 53.8453 116.977 53.7651 119.654 53.6135C120.383 53.5734 131.469 54.4313 128.443 57.4706C128.439 57.4751 128.439 57.4751 128.439 57.4751C128.439 57.4797 128.439 57.4797 128.434 57.4797C124.169 61.7351 120.848 60.3182 115.851 60.3182C113.7 60.3182 108.354 54.726 112.547 53.859ZM238.706 228.872C236.887 235.162 237.454 236.753 231.357 238.872C229.444 232.927 230.065 229.306 230.065 223.164C230.065 222.954 238.393 215.225 239.318 214.121C242.269 219.757 240.427 222.922 238.706 228.872ZM276.081 152.147C274.798 150.529 273.649 148.611 272.46 147.418C269.89 144.848 262.885 146.881 258.875 146.341C255.339 145.867 254.454 146.465 253.207 143.144C252.545 141.379 250.149 143.26 248.509 143.417C243.533 143.886 241.321 135.786 236.734 138.379C238.21 140.69 242.666 147.673 244.508 148.285C248.236 149.528 247.346 144.374 251.799 145.698C251.445 147.051 251.959 148.648 251.584 149.998C264.596 146.708 253.381 163.233 247.633 162.004C246.059 161.664 246.663 164.007 245 164.49C242.452 165.236 239.904 165.978 237.351 166.72C234.119 167.663 231.254 170.015 229.43 166.89C225.179 159.609 222.412 150.637 217.057 144.768C216.132 143.753 214.527 142.224 213.365 140.548C213.409 140.682 213.449 140.825 213.499 140.959C212.466 140.208 210.937 140.118 209.838 139.458C208.51 143.145 213.552 148.054 215.662 151.066C218.38 154.946 219.028 160.31 221.889 163.985C223.118 165.567 225.335 166.353 226.452 168.034C227.401 169.456 229.403 174.132 230.928 174.744C233.261 175.683 240.829 172.187 243.408 171.516C242.035 174.816 239.014 186.013 235.84 187.435C229.774 190.153 228.241 192.602 224.33 198.123C224.021 198.552 221.151 201.703 221.115 201.56C221.84 204.39 222.564 207.219 223.284 210.048C223.819 212.145 224.621 221.573 223.006 222.046C215.563 224.255 215.014 226.346 214.831 233.897C214.755 237.004 211.134 241.389 208.819 244.048C205.422 247.951 202.784 253.199 197.536 253.927C192.677 254.602 187.81 255.232 182.937 255.867C182.937 251.93 183.299 250.49 180.823 247.522C177.913 244.031 177.488 243.025 176.907 238.515C176.254 233.419 170.085 226.365 171.511 221.886C174.319 213.084 173.527 209.933 171.19 200.867C170.488 198.136 167.077 196.665 166.375 194.113C165.826 192.133 167.02 187.274 167.02 185.075C162.795 185.427 162.062 185.673 158.785 182.996C156.099 180.801 153.524 182.795 150.346 183.823C147.708 184.677 143.699 183.573 140.945 183.381C138.732 183.224 135.46 185.723 133.449 185.075C129.207 183.707 123.033 172.728 120.11 169.255C117.361 166.001 119.041 158.299 118.836 153.838C118.559 147.902 126.127 142.243 130.387 139.543C131.558 138.801 132.166 134.737 133.762 133.191C136.024 130.996 137.481 128.542 140.655 128.372C146.242 128.077 152.617 125.319 158.41 124.501C161.633 124.045 164.86 123.589 168.088 123.134C169.42 122.945 171.793 127.934 168.522 128.913C170.462 132.753 177.01 131.564 177.569 133.24C178.673 136.553 182.933 136.048 186.17 136.656C185.722 128.515 192.396 134.38 196.325 135.484C199.302 136.315 201.292 134.514 204.247 134.51C206.701 134.505 209.584 135.694 211.994 136.231C211.998 136.262 212.007 136.285 212.015 136.316C212.055 136.128 212.105 135.94 212.181 135.753C213.79 131.73 214.572 129.338 214.572 125.038C212.015 125.341 203.956 127.782 201.882 126.544C200.643 125.806 199.449 121.958 198.771 120.679C197.591 118.444 199.164 118.471 201.211 117.135C208.261 112.539 216.397 115.713 224.04 114.064C223.468 111.288 221.997 109.956 219.954 108.253C216.893 105.705 217.509 105.361 218.229 101.369C216.222 101.941 214.215 102.514 212.204 103.09C212.945 103.966 212.968 105.455 213.71 106.317C208.658 109.835 210.071 103.362 206.611 102.88C203.527 102.442 202.718 107.546 201.153 109.397C198.918 112.052 202.11 114.148 198.542 115.463C196.052 116.38 194.399 118.654 191.551 117.725C193.648 118.883 194.917 120.572 194.345 122.888C193.513 122.431 192.36 122.521 191.551 122.029C191.967 123.165 191.722 124.572 192.195 125.681C188.77 124.138 185.369 118.515 184.77 114.921C184.256 111.846 176.595 107.76 173.903 105.458C169.567 110.201 181.507 112.686 182.616 116.754C182.535 116.45 180.314 123.428 180.144 123.531C177.144 125.39 177.716 119.136 176.733 118.238C173.788 115.565 167.766 107.166 164.57 109.754C160.18 113.312 161.929 109.146 158.38 110.255C155.04 111.296 156.573 114.51 154.513 115.127C148.983 116.785 153.15 118.484 149.846 121.238C146.574 123.965 146.06 123.956 141.818 123.871C133.727 123.718 132.162 121.797 132.971 113.679C133.66 106.835 141.277 109.665 146.909 109.754C148.97 109.789 148.174 104.47 147.079 103.376C145.179 101.48 142.604 102.016 141.197 99.4326C149.497 97.9487 151.598 93.6842 158.196 89.1026C159.256 88.369 165.527 86.0542 165.478 85.3835C165.357 83.5196 163.882 76.4475 168.312 77.2658C172.442 78.0344 166.421 84.2166 169.773 84.3997C171.66 84.5073 176.649 86.9881 177.1 86.4965C179.759 83.5951 182.915 84.6859 186.782 84.7843C188.119 84.8198 189.907 78.4058 190.475 77.0512C195.212 81.8388 194.323 75.6034 193.698 72.7467C195.472 72.8136 202.052 73.8683 203.17 71.4591C205.222 67.0469 198.154 68.6561 196.174 69.2015C193.837 69.8367 189.434 70.3683 188.535 66.7253C188.244 65.5321 190.998 59.6984 192.124 59.1038C195.339 57.4008 196.483 55.6754 193.238 53.0246C189.617 50.0563 189.6 57.6377 189.184 58.1161C185.59 62.2461 176.131 64.3961 184.021 71.0304C181.513 71.5935 180.579 72.8497 180.503 75.0844C180.351 79.219 180.655 78.9374 176.596 79.6888C172.747 80.399 172.125 73.636 170.888 70.3815C168.067 73.363 162.3 78.5483 159.918 71.6737C157.728 65.3306 163.212 63.4662 167.485 61.5222C171.12 59.8729 174.722 52.4793 177.185 49.2831C178.634 47.4101 177.431 46.3549 179.608 44.5579C181.776 42.7748 183.591 42.5647 186.376 41.9387C188.718 41.411 190.484 38.7557 192.772 38.7065C196.063 38.6447 199.366 38.8902 202.651 39.0464C206.661 39.2433 203.653 41.0002 205.651 41.6525C208.637 42.6311 211.619 43.6103 214.6 44.5848C217.872 45.6578 224.765 48.5678 222.338 51.907C219.727 55.4917 212.996 51.0709 210.483 49.7255C208.44 53.3731 212.303 52.6624 214.144 54.6739C214.618 55.1924 213.241 57.383 213.711 57.9015C214.466 58.729 216.2 59.3407 217.162 59.8998C220.085 61.5897 218.923 55.2645 217.805 56.3953C219.365 54.813 220.474 54.813 222.964 56.3953C223.331 53.0607 227.117 51.8669 229.852 53.3823C229.897 51.7324 229.938 50.074 229.982 48.4202C239.239 56.1715 247.397 65.1922 254.174 75.2229C268.076 95.8033 276.18 120.554 276.185 147.28C276.184 148.911 276.143 150.534 276.081 152.147Z" stroke="#4B4B7A" stroke-width="1.5625"/>
<path d="M29.7878 157.1C29.7878 157.1 29.7878 157.1 29.7832 157.1C30.114 157.225 29.9801 157.171 29.7878 157.1Z" fill="#4B4B7A" stroke="#4B4B7A" stroke-width="1.5625"/>
<path d="M248.572 114.92C248.701 115.537 245.438 112.171 245.179 111.805C244.084 110.262 242.998 108.72 241.903 107.174C245.273 107.026 246.306 104.876 246.208 101.801C239.838 101.801 231.317 105.171 237.375 112.189C238.216 113.159 240.803 115.189 241.041 116.427C241.215 117.33 238.528 118.062 238.806 119.471C239.713 123.994 240.947 123.574 245.345 125.036C246.462 124.956 247.728 124.146 248.792 123.749C248.045 122.135 246.401 119.9 246.208 118.148C246.149 117.665 249.006 117.012 248.572 114.92Z" fill="#4B4B7A" stroke="#4B4B7A" stroke-width="1.5625"/>
</svg>
