<svg width="290" height="290" viewBox="0 0 290 290" fill="none" xmlns="http://www.w3.org/2000/svg">
<path d="M60.2205 157.746H94.1731V123.762H60.2205V157.746ZM78.8892 127.16H90.7747V139.05H78.8892V127.16ZM78.8892 142.453H90.7747V154.352H78.8892V142.453ZM63.6098 127.16H75.4908V139.05H63.6098V127.16ZM63.6098 142.453H75.4908V154.352H63.6098V142.453Z" fill="#4B4B7A" stroke="#4B4B7A" stroke-width="1.04317"/>
<path d="M137.465 157.746H161.231V123.762H137.465V157.746ZM151.049 127.16H157.846V139.05H151.049V127.16ZM151.049 142.453H157.846V154.352H151.049V142.453ZM140.863 127.16H147.646V139.05H140.863V127.16ZM140.863 142.453H147.646V154.352H140.863V142.453Z" fill="#4B4B7A" stroke="#4B4B7A" stroke-width="1.04317"/>
<path d="M159.658 208.904H125.71V242.893H159.658V208.904ZM140.985 239.49H129.1V227.6H140.985V239.49ZM140.985 224.202H129.1V212.302H140.985V224.202ZM156.265 239.49H144.375V227.6H156.265V239.49ZM156.265 224.202H144.375V212.302H156.265V224.202Z" fill="#4B4B7A" stroke="#4B4B7A" stroke-width="1.04317"/>
<path d="M278.237 226.01C277.947 226.1 275.849 226.721 273.846 228.153C272.854 227.449 271.778 226.872 270.643 226.436V219.72L267.937 220.491C266.367 220.962 264.884 221.686 263.547 222.634C262.213 221.687 260.735 220.963 259.169 220.491L256.464 219.72V224.759L254.004 225.448C253.718 225.543 251.616 226.159 249.613 227.596C249.083 227.226 248.529 226.891 247.955 226.594V165.59C248.294 165.821 248.575 165.966 248.938 166.22C268.821 180.026 271.608 156.677 269.433 148.435C265.291 132.684 276.719 128.846 279.868 115.737C285.455 92.4193 266.872 79.7046 272.614 57.4471C278.373 35.1941 259.396 -13.7162 234.927 21.3375C226.843 32.9239 216.925 12.121 204.142 30.0194C191.355 47.9088 197.988 63.3694 201.922 75.051C209.756 98.2691 194.064 105.796 204.355 125.235C214.645 144.665 199.86 154.031 219.24 164.869C225.561 168.399 228.787 168.281 230.976 167.026V186.017L179.061 171.657V102.519H191.79L153.591 78.1866V51.5428H157.842V43.0467H128.126V51.5428H132.376V64.6653L98.4233 43.0467L13.5303 102.519H26.2586V173.927L9.0625 187.843H26.2586V263.945H9.28453V280.937H280.475V263.945H274.671V243.428H275.509C276.95 243.427 278.331 242.854 279.349 241.835C280.368 240.816 280.941 239.435 280.942 237.995V225.248L278.237 226.01ZM262.101 90.7971C264.365 90.7971 266.537 91.6965 268.138 93.2975C269.739 94.8984 270.638 97.0698 270.638 99.3339C270.638 101.598 269.739 103.769 268.138 105.37C266.537 106.971 264.365 107.871 262.101 107.871C257.38 107.871 264.788 104.042 264.788 99.3339C264.788 94.6169 257.38 90.7971 262.101 90.7971ZM254.715 44.968C255.471 44.968 256.219 45.1168 256.917 45.406C257.616 45.6952 258.25 46.1191 258.784 46.6535C259.319 47.1879 259.743 47.8223 260.032 48.5205C260.321 49.2186 260.47 49.967 260.47 50.7227C260.47 51.4784 260.321 52.2267 260.032 52.9249C259.743 53.6231 259.319 54.2575 258.784 54.7919C258.25 55.3262 257.616 55.7501 256.917 56.0393C256.219 56.3285 255.471 56.4774 254.715 56.4774C251.543 56.4774 256.269 53.9036 256.269 50.7227C256.269 47.5417 251.543 44.968 254.715 44.968ZM254.643 138.629C256.332 138.629 257.953 139.3 259.148 140.495C260.342 141.69 261.014 143.31 261.014 145C261.014 146.69 260.342 148.31 259.148 149.505C257.953 150.7 256.332 151.371 254.643 151.371C251.117 151.371 254.643 148.53 254.643 145C254.643 141.479 251.117 138.629 254.643 138.629ZM128.135 102.519H170.57V170.488H128.135V102.519ZM34.7547 102.519H119.639V170.488H34.7547V102.519ZM87.9697 239.889C87.3093 239.889 86.676 239.626 86.209 239.16C85.7421 238.693 85.4798 238.059 85.4798 237.399C85.4798 236.739 85.7421 236.105 86.209 235.638C86.676 235.171 87.3093 234.909 87.9697 234.909C88.6301 234.909 89.2634 235.171 89.7303 235.638C90.1973 236.105 90.4596 236.739 90.4596 237.399C90.4596 238.059 90.1973 238.693 89.7303 239.16C89.2634 239.626 88.6301 239.889 87.9697 239.889ZM174.231 263.945H93.7697V217.482H97.0911V210.843H57.2977V217.482H60.6055V263.945H34.7547V187.843H174.231V263.945ZM204.146 239.49H199.978V227.6H203.73V237.437C203.73 238.167 203.884 238.856 204.146 239.49ZM199.978 224.202V212.303H206.77V224.202H199.978ZM205.855 227.496C205.855 227.496 208.859 228.352 210.816 230.387C212.783 228.357 215.787 227.496 215.787 227.496V237.437C215.788 237.873 215.703 238.304 215.536 238.707C215.37 239.11 215.126 239.476 214.819 239.784C214.511 240.093 214.146 240.337 213.744 240.505C213.342 240.672 212.91 240.758 212.475 240.759H209.167C208.732 240.758 208.301 240.672 207.899 240.504C207.498 240.337 207.133 240.092 206.826 239.784C206.519 239.475 206.276 239.109 206.111 238.706C205.946 238.304 205.862 237.873 205.864 237.437V227.496H205.855ZM209.987 263.945H182.727V187.843H213.821V225.955C212.759 226.383 211.75 226.934 210.816 227.596C210.599 227.441 210.377 227.319 210.155 227.188V208.9H186.388V242.888H209.987V263.945ZM189.787 224.202V212.303H196.575V224.202H189.787ZM196.575 227.6V239.49H189.787V227.6H196.575ZM213.821 263.945H211.646V250.537C212.153 251.448 212.896 252.187 213.821 252.685V263.945ZM218.896 263.945H217.246V253.374H218.896V263.945ZM219.639 251.249H216.322C215.887 251.249 215.456 251.164 215.055 250.998C214.653 250.832 214.288 250.589 213.98 250.281C213.672 249.974 213.428 249.609 213.262 249.208C213.095 248.806 213.01 248.376 213.01 247.941V242.771C213.845 242.688 214.648 242.408 215.354 241.954C216.06 241.501 216.648 240.886 217.07 240.161C217.378 240.401 217.704 240.596 217.98 240.881C219.938 238.851 222.947 238.004 222.947 238.004V247.936C222.947 248.371 222.862 248.802 222.696 249.204C222.53 249.605 222.287 249.971 221.979 250.278C221.672 250.586 221.307 250.83 220.906 250.996C220.504 251.163 220.074 251.249 219.639 251.249ZM223.921 263.945H222.317V252.558C222.96 252.187 223.486 251.706 223.921 251.126V263.945ZM223.015 235.77C222.151 235.751 221.33 235.395 220.725 234.779C220.121 234.163 219.781 233.334 219.779 232.471V222.525C219.779 222.525 222.788 223.377 224.75 225.416C226.712 223.381 229.721 222.525 229.721 222.525V232.471C229.721 232.906 229.635 233.337 229.469 233.739C229.302 234.141 229.058 234.506 228.751 234.813C228.443 235.121 228.078 235.365 227.676 235.531C227.274 235.698 226.843 235.783 226.408 235.783H225.076V235.185L223.015 235.77ZM230.985 263.945H225.575V237.913H226.408C227.763 237.913 228.964 237.365 229.92 236.54V237.99C229.92 239.155 230.364 240.17 230.985 241.053V263.945ZM230.985 219.969L229.136 220.491C227.567 220.962 226.086 221.686 224.75 222.634C223.986 222.094 223.171 221.63 222.317 221.247V187.843H230.985V219.969ZM256.713 237.437V233.676C257.026 235.027 257.805 236.151 258.92 236.898C258.206 237.239 257.522 237.641 256.877 238.099C256.786 238.04 256.7 237.995 256.609 237.931C256.632 237.768 256.713 237.614 256.713 237.437ZM232.503 83.9503C232.503 87.4757 236.015 90.3213 232.503 90.3213C230.813 90.3213 229.193 89.6501 227.998 88.4553C226.803 87.2605 226.132 85.64 226.132 83.9503C226.132 82.2607 226.803 80.6402 227.998 79.4454C229.193 78.2506 230.813 77.5794 232.503 77.5794C236.015 77.5794 232.503 80.4341 232.503 83.9503ZM232.326 36.336C237.084 36.336 230.006 40.2057 230.006 44.968C230.006 49.7303 237.084 53.5955 232.326 53.5955C231.176 53.6218 230.033 53.4181 228.963 52.9963C227.893 52.5744 226.918 51.943 226.095 51.139C225.272 50.3351 224.619 49.3748 224.173 48.3147C223.726 47.2546 223.496 46.116 223.496 44.9657C223.496 43.8155 223.726 42.6769 224.173 41.6168C224.619 40.5566 225.272 39.5964 226.095 38.7924C226.918 37.9885 227.893 37.357 228.963 36.9352C230.033 36.5133 231.176 36.3096 232.326 36.336ZM212.275 66.8449C212.275 63.3286 215.135 60.4739 218.646 60.4739C222.154 60.4739 217.586 63.3286 217.586 66.8449C217.586 70.3747 222.158 73.2203 218.646 73.2203C217.809 73.2203 216.981 73.0554 216.207 72.735C215.434 72.4145 214.732 71.9448 214.14 71.3527C213.548 70.7607 213.079 70.0578 212.759 69.2843C212.439 68.5108 212.275 67.6819 212.275 66.8449ZM228.534 126.463C225.153 126.463 221.911 125.12 219.521 122.729C217.13 120.339 215.787 117.097 215.787 113.716C215.787 110.336 217.13 107.093 219.521 104.703C221.911 102.313 225.153 100.97 228.534 100.97C235.571 100.97 225.756 106.679 225.756 113.716C225.756 120.753 235.566 126.463 228.534 126.463ZM237.528 263.945H235.879V243.428H237.528V263.945ZM241.973 237.99C241.973 239.825 240.492 241.298 238.665 241.298H235.358C234.923 241.299 234.492 241.214 234.09 241.048C233.689 240.882 233.323 240.638 233.016 240.331C232.708 240.024 232.464 239.659 232.298 239.257C232.131 238.855 232.045 238.425 232.045 237.99V228.058C232.045 228.058 235.05 228.905 237.016 230.94C238.974 228.905 241.982 228.058 241.982 228.058V237.99H241.973ZM244.656 237.437V227.496C244.656 227.496 247.66 228.352 249.622 230.391C251.584 228.357 254.593 227.496 254.593 227.496V237.437C254.593 237.873 254.508 238.304 254.342 238.707C254.176 239.11 253.932 239.476 253.625 239.784C253.317 240.093 252.952 240.337 252.549 240.505C252.147 240.672 251.716 240.758 251.28 240.759H247.977C247.541 240.759 247.109 240.674 246.705 240.507C246.302 240.34 245.936 240.096 245.627 239.787C245.319 239.479 245.074 239.112 244.907 238.709C244.741 238.306 244.655 237.874 244.656 237.437ZM248.802 263.945H247.959V242.888H248.802V263.945ZM256.047 263.945H250.456V250.41C250.901 251.297 251.582 252.043 252.423 252.568C253.265 253.092 254.235 253.374 255.227 253.383H256.052L256.047 263.945ZM255.223 251.258C254.343 251.257 253.499 250.906 252.877 250.283C252.255 249.661 251.906 248.816 251.906 247.936V242.753C253.632 242.549 255.069 241.556 255.907 240.129C256.233 240.383 256.582 240.573 256.881 240.881C258.843 238.851 261.852 237.99 261.852 237.99V247.932C261.852 248.367 261.767 248.799 261.601 249.201C261.435 249.604 261.191 249.97 260.884 250.278C260.576 250.587 260.211 250.832 259.809 250.999C259.406 251.166 258.975 251.253 258.54 251.253L255.223 251.258ZM262.726 263.945H257.701V253.383H258.535C260.261 253.383 261.734 252.517 262.731 251.258L262.726 263.945ZM261.897 235.788C261.463 235.788 261.032 235.702 260.631 235.536C260.23 235.369 259.865 235.125 259.558 234.817C259.251 234.51 259.008 234.144 258.843 233.743C258.677 233.341 258.593 232.91 258.594 232.476V222.53C258.594 222.53 261.589 223.381 263.551 225.416C265.513 223.386 268.522 222.53 268.522 222.53V232.476C268.522 232.911 268.437 233.342 268.271 233.744C268.105 234.146 267.861 234.511 267.553 234.819C267.245 235.127 266.88 235.371 266.478 235.537C266.076 235.703 265.645 235.789 265.21 235.788H261.897ZM273.017 263.945H264.38V237.913H265.21C265.758 237.913 266.256 237.759 266.759 237.605V237.995C266.76 239.436 267.334 240.818 268.353 241.837C269.373 242.855 270.755 243.428 272.197 243.428H273.021L273.017 263.945ZM278.812 237.99C278.812 239.825 277.331 241.298 275.505 241.298H272.192C271.757 241.299 271.327 241.214 270.925 241.048C270.523 240.882 270.158 240.638 269.85 240.331C269.543 240.024 269.299 239.659 269.132 239.257C268.966 238.855 268.88 238.425 268.88 237.99V236.431C269.949 235.43 270.647 234.044 270.647 232.471V228.756C271.837 229.284 272.922 230.023 273.851 230.935C275.808 228.901 278.817 228.053 278.817 228.053V237.99H278.812Z" fill="#4B4B7A" stroke="#4B4B7A" stroke-width="2.08633"/>
</svg>
