<svg width="166" height="166" viewBox="0 0 166 166" fill="none" xmlns="http://www.w3.org/2000/svg">
<g clip-path="url(#clip0_48_3861)">
<path d="M120.523 34.4408C97.9809 34.4408 78.0727 45.7084 66.1139 62.9159C68.548 61.8518 71.0229 60.8042 73.5398 59.7788C96.7446 50.325 118.807 44.4857 135.56 42.7266C126.888 31.4253 114.655 23.0028 100.537 19.1348C111.175 22.0546 120.741 27.5649 128.524 34.9388C125.899 34.6226 123.233 34.4408 120.523 34.4408Z" fill="#9191DA"/>
<path d="M29.8315 122.464C29.6401 122.206 29.4527 121.946 29.265 121.686C29.4521 121.946 29.6405 122.206 29.8315 122.464Z" fill="#9191DA"/>
<path d="M94.4214 17.7673C94.8194 17.8365 95.2157 17.911 95.6113 17.9875C95.2157 17.9114 94.8194 17.8365 94.4214 17.7673Z" fill="#9191DA"/>
<path d="M95.983 18.0587C96.4072 18.1431 96.8293 18.2325 97.2501 18.3252C96.829 18.2329 96.4072 18.1431 95.983 18.0587Z" fill="#9191DA"/>
<path d="M146.403 63.9262C146.409 63.9209 146.414 63.9156 146.419 63.91C145.206 59.8757 143.62 56.004 141.699 52.3346C128.91 52.3667 104.449 58.762 77.5846 69.7066C70.7603 72.4868 64.2541 75.3689 58.1913 78.2675C55.6786 85.2614 54.3063 92.7989 54.3063 100.658C54.3063 119.589 62.2633 136.651 74.9998 148.719C56.5852 146.499 40.4961 136.727 29.9261 122.59C30.0639 122.775 30.2006 122.96 30.3403 123.143C42.4389 138.99 61.5236 149.217 83.0002 149.217C119.571 149.217 149.217 119.571 149.217 83.0001C149.217 80.315 149.053 77.6686 148.742 75.0673C148.74 75.0692 148.738 75.0712 148.735 75.0732C148.277 71.2459 147.486 67.5238 146.403 63.9262Z" fill="#9191DA"/>
<path d="M23.0933 111.237C23.2624 111.596 23.4349 111.952 23.6104 112.307C23.4349 111.952 23.2624 111.595 23.0933 111.237Z" fill="#9191DA"/>
<path d="M21.8627 108.47C22.0083 108.82 22.1587 109.167 22.3103 109.513C22.1587 109.167 22.0083 108.82 21.8627 108.47Z" fill="#9191DA"/>
<path d="M28.7936 121.025C28.7681 120.988 28.7433 120.952 28.7178 120.916C28.7433 120.952 28.7684 120.988 28.7936 121.025Z" fill="#9191DA"/>
<path d="M19.5814 102.088L19.5811 102.088C19.9178 103.208 20.2823 104.317 20.676 105.411C20.282 104.317 19.9184 103.208 19.5814 102.088Z" fill="#9191DA"/>
<path d="M97.5226 18.3845C97.9735 18.4855 98.4228 18.5918 98.8704 18.702C98.4228 18.5918 97.9739 18.4855 97.5226 18.3845Z" fill="#9191DA"/>
<path d="M87.9917 16.9694C88.287 16.9915 88.581 17.0194 88.8754 17.0452C88.581 17.0194 88.2874 16.9912 87.9917 16.9694Z" fill="#9191DA"/>
<path d="M84.6781 16.8042C84.8877 16.8095 85.0956 16.8201 85.3045 16.8274C85.0953 16.8201 84.8873 16.8092 84.6781 16.8042Z" fill="#9191DA"/>
<path d="M91.2416 17.2928C91.5902 17.3362 91.9369 17.3849 92.2838 17.4339C91.9369 17.3852 91.5902 17.3362 91.2416 17.2928Z" fill="#9191DA"/>
<path d="M89.6249 17.1118C89.948 17.1439 90.2698 17.1817 90.5916 17.2188C90.2695 17.182 89.948 17.1439 89.6249 17.1118Z" fill="#9191DA"/>
<path d="M74.9998 148.719C62.2633 136.651 54.3063 119.589 54.3063 100.658C54.3063 92.7989 55.6787 85.2614 58.1913 78.2676C40.3852 86.7808 26.421 95.4377 19.5814 102.088C19.9185 103.208 20.282 104.317 20.676 105.412C20.6998 105.478 20.722 105.544 20.7458 105.61C20.8793 105.977 21.018 106.341 21.1577 106.705C21.2021 106.82 21.2445 106.936 21.2892 107.051C21.4266 107.404 21.5689 107.754 21.7126 108.103C21.7626 108.225 21.8116 108.348 21.8626 108.47C22.0086 108.82 22.1586 109.167 22.3102 109.513C22.3619 109.631 22.4125 109.749 22.4645 109.866C22.6208 110.218 22.781 110.568 22.9433 110.916C22.9933 111.023 23.0429 111.13 23.0932 111.237C23.2624 111.596 23.4349 111.952 23.6104 112.306C23.6554 112.397 23.7001 112.488 23.7455 112.579C23.9272 112.942 24.1123 113.304 24.3007 113.664C24.314 113.664 24.3262 113.664 24.3391 113.664C25.6549 116.176 27.1106 118.602 28.7177 120.916C28.7432 120.952 28.7681 120.989 28.7935 121.025C28.9485 121.247 29.1074 121.466 29.265 121.686C29.4527 121.947 29.6401 122.207 29.8315 122.464C29.8629 122.507 29.8947 122.549 29.9262 122.591C40.4961 136.727 56.5852 146.499 74.9998 148.719Z" fill="#6A6AB1"/>
<path d="M66.1139 62.9158C78.0727 45.7083 97.9806 34.4408 120.524 34.4408C123.233 34.4408 125.899 34.6226 128.524 34.9391C120.742 27.5651 111.175 22.0549 100.537 19.135C100.516 19.1291 100.494 19.1235 100.473 19.1175C99.9979 18.9877 99.5208 18.8632 99.0417 18.7437C98.9847 18.7295 98.9278 18.7162 98.8712 18.702C98.4236 18.5917 97.9746 18.4855 97.5233 18.3845C97.4326 18.3639 97.3416 18.3451 97.2508 18.3252C96.8297 18.2325 96.4076 18.1431 95.9838 18.0587C95.8603 18.0342 95.7358 18.0113 95.612 17.9875C95.2163 17.911 94.82 17.8365 94.4221 17.7673C94.2681 17.7405 94.1128 17.7163 93.9585 17.6905C93.5871 17.6286 93.2152 17.5674 92.8414 17.5117C92.6564 17.4842 92.4703 17.4601 92.2846 17.4339C91.9379 17.3853 91.5909 17.3363 91.2423 17.2929C91.0261 17.2661 90.8089 17.2432 90.592 17.2184C90.2702 17.1816 89.9487 17.1439 89.6253 17.1114C89.3763 17.0866 89.1257 17.0668 88.876 17.0449C88.5817 17.0191 88.2877 16.9913 87.9924 16.9691C87.7047 16.9476 87.4156 16.932 87.1269 16.9141C86.8657 16.8979 86.6048 16.879 86.3426 16.8661C85.9979 16.8489 85.6513 16.8386 85.3049 16.8267C85.096 16.8198 84.8881 16.8088 84.6785 16.8035C84.121 16.7896 83.5618 16.7823 83.0009 16.7823C46.4302 16.7823 16.7838 46.4287 16.7838 82.9995C16.7838 83.5504 16.7911 84.0997 16.8047 84.6476C16.809 84.8307 16.8179 85.0128 16.8239 85.1959C16.8358 85.5601 16.8477 85.9243 16.8653 86.2868C16.8759 86.5043 16.8908 86.7209 16.9033 86.9377C16.9225 87.2638 16.9414 87.59 16.9652 87.9148C16.9825 88.1468 17.003 88.3783 17.0225 88.6097C17.0484 88.9173 17.0742 89.2245 17.1043 89.5308C17.1278 89.7711 17.1543 90.0105 17.1805 90.2502C17.205 90.476 17.2278 90.7022 17.2546 90.9273C29.0343 81.6102 46.1031 71.6644 66.1139 62.9158Z" fill="#6A6AB1"/>
<path d="M165.452 49.4085C162.89 43.1189 151.684 41.0334 135.561 42.7265C118.807 44.4856 96.7449 50.325 73.5401 59.7788C71.0232 60.8041 68.5483 61.8517 66.1142 62.9158C46.1034 71.6644 29.0346 81.6102 17.2546 90.9276C4.54253 100.982 -2.01329 110.303 0.548648 116.591C3.11026 122.879 14.3195 124.958 30.4341 123.268C30.4026 123.227 30.3722 123.185 30.3407 123.143C30.201 122.96 30.0643 122.775 29.9265 122.59C29.8951 122.548 29.863 122.506 29.8318 122.464C29.6408 122.206 29.4524 121.947 29.2654 121.686C29.1078 121.466 28.9488 121.247 28.7939 121.025C28.7687 120.989 28.7436 120.952 28.7181 120.916C27.111 118.602 25.6552 116.175 24.3395 113.663C24.3262 113.663 24.314 113.663 24.3011 113.663C19.2636 113.675 16.0332 112.702 15.1879 110.627C14.3427 108.552 15.969 105.6 19.5811 102.088L19.5814 102.087C26.421 95.4374 40.3852 86.7805 58.1913 78.2673C64.2541 75.3686 70.7603 72.4865 77.5846 69.7064C104.449 58.7617 128.911 52.3664 141.699 52.3343C146.739 52.3217 149.967 53.2968 150.813 55.3724C151.658 57.4469 150.029 60.3989 146.419 63.9097C146.414 63.915 146.409 63.9203 146.403 63.926C147.486 67.5235 148.277 71.2456 148.735 75.0726C148.738 75.0706 148.74 75.0686 148.743 75.0667C161.449 65.0152 168.014 55.6955 165.452 49.4085Z" fill="#AFC4E9"/>
</g>
<defs>
<clipPath id="clip0_48_3861">
<rect width="166" height="166" fill="white"/>
</clipPath>
</defs>
</svg>
