<svg width="99" height="99" viewBox="0 0 99 99" fill="none" xmlns="http://www.w3.org/2000/svg">
<g clip-path="url(#clip0_48_3803)">
<path d="M71.0377 49.5C71.0377 48.5578 71.8024 47.7931 72.7446 47.7931H98.9574C98.773 42.3635 97.725 37.154 95.9276 32.3047C95.733 32.3815 95.5248 32.431 95.3046 32.431H53.3628C52.4206 32.431 51.6559 31.6663 51.6559 30.7241C51.6559 29.7819 52.4206 29.0172 53.3628 29.0172H94.5604C93.3331 26.3203 91.8737 23.7515 90.201 21.3396C89.904 21.838 89.3817 22.1897 88.7587 22.1897H71.6897C70.7475 22.1897 69.9828 21.425 69.9828 20.4828C69.9828 19.5406 70.7475 18.7759 71.6897 18.7759H88.2961C79.2291 7.34136 65.2257 0 49.5 0C29.4696 0 12.2317 11.9039 4.43969 29.0172H42.0938C43.036 29.0172 43.8007 29.7819 43.8007 30.7241C43.8007 31.6663 43.036 32.431 42.0938 32.431H3.69719C3.47529 32.431 3.26705 32.3815 3.07417 32.3047C1.27681 37.154 0.227069 42.3635 0.0427246 47.7931H14.9132C15.8554 47.7931 16.6201 48.5578 16.6201 49.5C16.6201 50.4422 15.8554 51.2069 14.9132 51.2069H0.0427246C0.249259 57.2886 1.54479 63.0903 3.75352 68.4244C3.96517 68.3305 4.1939 68.2759 4.43969 68.2759H39.1614C40.1036 68.2759 40.8683 69.0406 40.8683 69.9828C40.8683 70.925 40.1036 71.6897 39.1614 71.6897H5.25559C8.37067 77.8891 12.7403 83.3495 18.0454 87.7208C18.356 87.3231 18.8203 87.0517 19.3648 87.0517H55.9965C56.9387 87.0517 57.7034 87.8164 57.7034 88.7586C57.7034 89.7008 56.9387 90.4655 55.9965 90.4655H21.7101C29.6335 95.8508 39.1972 99 49.5 99C59.8029 99 69.3666 95.8508 77.29 90.4655H66.9172C65.975 90.4655 65.2103 89.7008 65.2103 88.7586C65.2103 87.8164 65.975 87.0517 66.9172 87.0517H79.637C80.1815 87.0517 80.6458 87.3231 80.9581 87.7208C86.2632 83.3495 90.6311 77.8891 93.7462 71.6897H49.7971C48.8548 71.6897 48.0902 70.925 48.0902 69.9828C48.0902 69.0406 48.8548 68.2759 49.7971 68.2759H94.5604C94.8045 68.2759 95.0349 68.3305 95.2449 68.4227C97.4536 63.0903 98.7491 57.2869 98.9557 51.2069H72.7446C71.8007 51.2069 71.0377 50.4422 71.0377 49.5Z" fill="#367280"/>
<path d="M40.1121 78.5172C59.4373 78.5172 75.1035 62.851 75.1035 43.5258C75.1035 24.2006 59.4373 8.53442 40.1121 8.53442C20.7869 8.53442 5.12073 24.2006 5.12073 43.5258C5.12073 62.851 20.7869 78.5172 40.1121 78.5172Z" fill="#5694A1"/>
<path d="M35.8448 61.4483C47.1571 61.4483 56.3276 52.2779 56.3276 40.9655C56.3276 29.6532 47.1571 20.4828 35.8448 20.4828C24.5325 20.4828 15.3621 29.6532 15.3621 40.9655C15.3621 52.2779 24.5325 61.4483 35.8448 61.4483Z" fill="#7AABB5"/>
<path d="M49.797 68.2759C48.8548 68.2759 48.0901 69.0406 48.0901 69.9828C48.0901 70.925 48.8548 71.6897 49.797 71.6897H93.7444C94.2821 70.6212 94.7857 69.5339 95.2448 68.4227C95.0349 68.3305 94.8061 68.2759 94.5603 68.2759H49.797Z" fill="#3B6771"/>
<path d="M40.8682 69.9828C40.8682 69.0406 40.1035 68.2759 39.1613 68.2759H4.43959C4.19551 68.2759 3.96508 68.3305 3.75513 68.4244C4.21428 69.5339 4.71782 70.6212 5.25549 71.6897H39.1613C40.1035 71.6897 40.8682 70.925 40.8682 69.9828Z" fill="#5B8088"/>
<path d="M16.6201 49.5C16.6201 48.5578 15.8554 47.7931 14.9132 47.7931H0.0426724C0.0238966 48.3615 0 48.9282 0 49.5C0 50.0718 0.0238966 50.6385 0.0426724 51.2069H14.9132C15.8571 51.2069 16.6201 50.4422 16.6201 49.5Z" fill="#86C3CF"/>
<path d="M69.9828 20.4828C69.9828 21.425 70.7475 22.1897 71.6897 22.1897H88.7586C89.3817 22.1897 89.904 21.8381 90.201 21.3396C89.5933 20.464 88.9567 19.6106 88.2944 18.7759H71.6897C70.7475 18.7759 69.9828 19.5406 69.9828 20.4828Z" fill="#4B97A8"/>
<path d="M98.9573 47.7931H72.7445C71.8023 47.7931 71.0376 48.5578 71.0376 49.5C71.0376 50.4422 71.8023 51.2069 72.7445 51.2069H98.9573C98.9761 50.6385 99 50.0718 99 49.5C99 48.9282 98.9761 48.3615 98.9573 47.7931Z" fill="#7AABB5"/>
<path d="M57.7033 88.7587C57.7033 87.8164 56.9386 87.0518 55.9964 87.0518H19.3647C18.8202 87.0518 18.3559 87.3232 18.0436 87.7209C19.2213 88.6904 20.4452 89.6053 21.71 90.4656H55.9964C56.9386 90.4656 57.7033 89.7009 57.7033 88.7587Z" fill="#3B6771"/>
<path d="M79.6353 87.0518H66.9155C65.9733 87.0518 65.2086 87.8164 65.2086 88.7587C65.2086 89.7009 65.9733 90.4656 66.9155 90.4656H77.2883C78.5531 89.6053 79.7787 88.6904 80.9547 87.7209C80.6441 87.3232 80.1815 87.0518 79.6353 87.0518Z" fill="#5B8088"/>
<path d="M51.6558 30.7241C51.6558 31.6663 52.4205 32.431 53.3627 32.431H95.3045C95.5247 32.431 95.7329 32.3815 95.9275 32.3047C95.5128 31.1867 95.0519 30.0943 94.5603 29.0172H53.3627C52.4187 29.0172 51.6558 29.7819 51.6558 30.7241Z" fill="#3B6771"/>
<path d="M42.0938 32.431C43.036 32.431 43.8006 31.6663 43.8006 30.7241C43.8006 29.7819 43.036 29.0172 42.0938 29.0172H4.43961C3.94973 30.0943 3.48716 31.1884 3.07239 32.3047C3.26697 32.3815 3.47522 32.431 3.69711 32.431H42.0938Z" fill="#86C3CF"/>
<path d="M6.82762 8.53452C7.77032 8.53452 8.53452 7.77032 8.53452 6.82762C8.53452 5.88493 7.77032 5.12073 6.82762 5.12073C5.88493 5.12073 5.12073 5.88493 5.12073 6.82762C5.12073 7.77032 5.88493 8.53452 6.82762 8.53452Z" fill="#86C3CF"/>
<path d="M11.9482 95.5862C12.8909 95.5862 13.6551 94.822 13.6551 93.8793C13.6551 92.9366 12.8909 92.1724 11.9482 92.1724C11.0055 92.1724 10.2413 92.9366 10.2413 93.8793C10.2413 94.822 11.0055 95.5862 11.9482 95.5862Z" fill="#86C3CF"/>
<path d="M3.41381 83.6379C4.3565 83.6379 5.1207 82.8737 5.1207 81.931C5.1207 80.9883 4.3565 80.2241 3.41381 80.2241C2.47111 80.2241 1.70691 80.9883 1.70691 81.931C1.70691 82.8737 2.47111 83.6379 3.41381 83.6379Z" fill="#86C3CF"/>
<path d="M22.1897 3.41379C23.1324 3.41379 23.8966 2.64959 23.8966 1.7069C23.8966 0.764203 23.1324 0 22.1897 0C21.247 0 20.4828 0.764203 20.4828 1.7069C20.4828 2.64959 21.247 3.41379 22.1897 3.41379Z" fill="#86C3CF"/>
<path d="M90.4656 8.53452C91.4083 8.53452 92.1725 7.77032 92.1725 6.82762C92.1725 5.88493 91.4083 5.12073 90.4656 5.12073C89.5229 5.12073 88.7587 5.88493 88.7587 6.82762C88.7587 7.77032 89.5229 8.53452 90.4656 8.53452Z" fill="#86C3CF"/>
<path d="M60.8082 47.7931H26.1992C25.257 47.7931 24.4923 48.5578 24.4923 49.5C24.4923 50.4422 25.257 51.2069 26.1992 51.2069H60.8099C61.7522 51.2069 62.5168 50.4422 62.5168 49.5C62.5168 48.5578 61.7522 47.7931 60.8082 47.7931Z" fill="#86C3CF"/>
<path d="M71.6897 58.0344H37.079C36.1368 58.0344 35.3721 58.7991 35.3721 59.7413C35.3721 60.6835 36.1368 61.4482 37.079 61.4482H71.6897C72.6319 61.4482 73.3966 60.6835 73.3966 59.7413C73.3966 58.7991 72.6319 58.0344 71.6897 58.0344Z" fill="#7AABB5"/>
<path d="M61.921 80.2241H27.3103C26.3681 80.2241 25.6034 79.4594 25.6034 78.5172C25.6034 77.575 26.3681 76.8103 27.3103 76.8103H61.921C62.8632 76.8103 63.6279 77.575 63.6279 78.5172C63.6279 79.4594 62.8632 80.2241 61.921 80.2241Z" fill="#3B6771"/>
<path d="M58.0345 40.9656H40.9656C40.0234 40.9656 39.2587 40.2009 39.2587 39.2587C39.2587 38.3164 40.0234 37.5518 40.9656 37.5518H58.0345C58.9767 37.5518 59.7414 38.3164 59.7414 39.2587C59.7414 40.2009 58.9767 40.9656 58.0345 40.9656Z" fill="#86C3CF"/>
<path d="M25.6035 37.5518H8.53453C7.59233 37.5518 6.82764 38.3164 6.82764 39.2587C6.82764 40.2009 7.59233 40.9656 8.53453 40.9656H25.6035C26.5457 40.9656 27.3104 40.2009 27.3104 39.2587C27.3104 38.3164 26.5457 37.5518 25.6035 37.5518Z" fill="#7AABB5"/>
<path d="M56.3276 22.1897H39.2587C38.3164 22.1897 37.5518 21.425 37.5518 20.4828C37.5518 19.5406 38.3164 18.7759 39.2587 18.7759H56.3276C57.2698 18.7759 58.0345 19.5406 58.0345 20.4828C58.0345 21.425 57.2698 22.1897 56.3276 22.1897Z" fill="#86C3CF"/>
<path d="M45.4427 11.9482H27.662C26.7198 11.9482 25.9551 11.1835 25.9551 10.2413C25.9551 9.29911 26.7198 8.53442 27.662 8.53442H45.4427C46.3849 8.53442 47.1496 9.29911 47.1496 10.2413C47.1496 11.1835 46.3849 11.9482 45.4427 11.9482Z" fill="#86C3CF"/>
<path d="M71.519 11.9482H57.2954C56.3532 11.9482 55.5885 11.1835 55.5885 10.2413C55.5885 9.29911 56.3532 8.53442 57.2954 8.53442H71.519C72.4612 8.53442 73.2259 9.29911 73.2259 10.2413C73.2259 11.1835 72.4629 11.9482 71.519 11.9482Z" fill="#86C3CF"/>
</g>
<defs>
<clipPath id="clip0_48_3803">
<rect width="99" height="99" fill="white"/>
</clipPath>
</defs>
</svg>
