<svg width="279" height="273" viewBox="0 0 279 273" fill="none" xmlns="http://www.w3.org/2000/svg">
<g clip-path="url(#clip0_48_3757)">
<path d="M14.3836 195.241C14.014 194.493 13.6501 193.742 13.2932 192.987C13.6495 193.742 14.014 194.493 14.3836 195.241Z" fill="#AB479A"/>
<path d="M12.9776 192.311C12.6358 191.577 12.2987 190.84 11.9691 190.1C12.2981 190.841 12.6358 191.577 12.9776 192.311Z" fill="#AB479A"/>
<path d="M11.643 189.355C11.3239 188.626 11.0077 187.895 10.7008 187.159C11.0077 187.895 11.3239 188.625 11.643 189.355Z" fill="#AB479A"/>
<path d="M176.445 -1.0448C198.856 5.10657 219.01 16.7147 235.405 32.2498C229.876 31.5831 224.259 31.2 218.55 31.2C146.318 31.2 86.9091 86.0979 79.7696 156.446C79.7679 156.465 79.7662 156.484 79.7644 156.502C79.7638 156.511 79.7632 156.519 79.7621 156.527C98.1819 159.717 118.722 161.4 139.5 161.4C163.831 161.4 187.621 159.12 208.301 154.806C216.461 153.099 224.113 151.083 231.052 148.803C233.49 147.995 236.115 149.33 236.919 151.773C237.718 154.211 236.392 156.836 233.949 157.64C229.428 159.124 224.599 160.486 219.566 161.743C219.507 161.791 219.479 161.862 219.418 161.909L210.318 168.734L219.786 171.345C221.825 171.908 223.228 173.77 223.201 175.881C223.173 177.998 221.729 179.827 219.677 180.336C196.213 186.203 168.485 189.3 139.5 189.3C137.452 189.3 135.645 187.96 135.05 185.999C134.455 184.037 135.218 181.916 136.921 180.781C138.411 179.786 138.356 178.31 138.265 177.724C138.175 177.134 137.775 175.708 136.049 175.218L110.597 169.591C110.559 169.582 110.532 169.555 110.494 169.546C99.6606 168.734 89.1033 167.519 79.1436 165.847C79.0884 167.458 79.0506 169.074 79.0506 170.699C79.0506 202.206 89.5195 231.25 107.142 254.597C117.939 249.68 129.046 244.691 139.696 245.104C156.448 245.84 165.008 241.113 165.09 241.063C167.315 239.823 170.153 240.586 171.42 242.797C172.687 245.013 171.951 247.828 169.744 249.114C169.318 249.368 159.104 255.244 139.306 254.395C131.493 253.996 122.287 257.932 113.187 262.064L113.188 262.066C113.188 262.066 113.187 262.066 113.186 262.067C116.178 265.512 119.335 268.812 122.646 271.95C115.172 271.049 107.881 269.555 100.818 267.521L100.816 267.522C100.796 267.517 100.775 267.51 100.755 267.504C99.5879 267.167 98.4272 266.814 97.2722 266.448C96.5538 266.222 95.8418 265.983 95.1286 265.746C94.8531 265.654 94.577 265.564 94.3026 265.47C91.1755 264.411 88.092 263.259 85.0735 261.98C85.1055 261.981 85.1404 261.978 85.1729 261.978C56.4156 249.811 32.5861 228.283 17.5166 201.208C41.3322 244.025 87.0289 273 139.5 273C216.544 273 279 210.544 279 133.5C279 69.2475 235.557 15.1506 176.445 -1.0448ZM158.1 128.85C157.95 128.859 157.705 128.845 157.505 128.845C150.862 128.845 146.77 130.934 142.048 133.345C137.03 135.906 131.481 138.74 122.939 138.74C120.677 138.74 118.212 138.54 115.487 138.086C112.954 137.664 111.241 135.266 111.664 132.737C112.082 130.203 114.47 128.464 117.013 128.913C127.017 130.571 132.017 128.024 137.82 125.063C143.015 122.406 148.714 119.282 158.177 119.55C160.743 119.591 162.791 121.707 162.75 124.277C162.709 126.816 160.634 128.85 158.1 128.85ZM194.306 122.424C190.132 127.738 179.965 128.682 176.95 128.845C176.863 128.85 176.782 128.85 176.695 128.85C174.243 128.85 172.195 126.934 172.059 124.454C171.918 121.893 173.88 119.699 176.441 119.559C180.9 119.304 186.027 117.906 186.994 116.675C188.579 114.659 191.499 114.3 193.524 115.894C195.541 117.479 195.895 120.404 194.306 122.424ZM119.552 187.906C118.666 188.787 117.458 189.299 116.25 189.299C115.042 189.299 113.83 188.786 112.949 187.951C112.109 187.066 111.6 185.857 111.6 184.649C111.6 183.442 112.109 182.229 112.949 181.348C114.67 179.627 117.785 179.627 119.551 181.348C120.432 182.229 120.899 183.442 120.899 184.649C120.899 185.857 120.432 187.066 119.552 187.906ZM180.001 211.156C179.116 212.037 177.907 212.549 176.699 212.549C175.492 212.549 174.279 212.036 173.398 211.201C172.558 210.316 172.049 209.107 172.049 207.899C172.049 206.692 172.558 205.479 173.398 204.598C175.119 202.877 178.234 202.877 180 204.598C180.882 205.479 181.349 206.692 181.349 207.899C181.349 209.107 180.882 210.316 180.001 211.156ZM217.201 108.798C216.316 109.679 215.107 110.192 213.899 110.192C212.692 110.192 211.479 109.679 210.598 108.843C209.758 107.958 209.249 106.75 209.249 105.542C209.249 104.334 209.758 103.122 210.598 102.24C212.319 100.519 215.434 100.519 217.2 102.24C218.082 103.122 218.549 104.334 218.549 105.542C218.549 106.75 218.082 107.958 217.201 108.798ZM235.801 127.456C234.916 128.337 233.707 128.849 232.499 128.849C231.292 128.849 230.079 128.336 229.198 127.501C228.358 126.616 227.849 125.407 227.849 124.199C227.849 122.992 228.358 121.779 229.198 120.898C230.919 119.177 234.034 119.177 235.8 120.898C236.682 121.779 237.149 122.992 237.149 124.199C237.149 125.407 236.682 126.616 235.801 127.456ZM214.931 69.8712C214.581 69.9531 214.236 69.9892 213.891 69.9892C211.77 69.9892 209.854 68.5314 209.363 66.3744C208.791 63.8721 210.353 61.3791 212.86 60.8072C227.28 57.5103 239.788 53.4445 250.29 48.7677C252.217 51.2834 254.064 53.8612 255.819 56.5071C244.424 61.7604 230.709 66.2674 214.931 69.8712Z" fill="#C386B9"/>
<path d="M15.8582 198.139C15.4536 197.368 15.0572 196.591 14.6666 195.812C15.0572 196.592 15.4542 197.368 15.8582 198.139Z" fill="#AB479A"/>
<path d="M17.3986 200.999C16.9504 200.19 16.5122 199.377 16.0797 198.559C16.5116 199.377 16.951 200.19 17.3986 200.999Z" fill="#AB479A"/>
<path d="M0.084877 138.135C0.0720895 137.747 0.0534895 137.361 0.0441895 136.972C0.0534895 137.36 0.0720895 137.747 0.084877 138.135Z" fill="#AB479A"/>
<path d="M1.24912 152.185C1.17995 151.67 1.11194 151.155 1.04858 150.639C1.11252 151.155 1.18053 151.67 1.24912 152.185Z" fill="#AB479A"/>
<path d="M0.503346 145.323C0.462078 144.833 0.418484 144.344 0.382446 143.853C0.418484 144.344 0.462659 144.833 0.503346 145.323Z" fill="#AB479A"/>
<path d="M9.21513 183.439C8.92101 182.673 8.62864 181.905 8.3479 181.133C8.62864 181.905 8.92101 182.672 9.21513 183.439Z" fill="#AB479A"/>
<path d="M3.69035 165.489C3.56305 164.948 3.4439 164.404 3.323 163.86C3.4439 164.404 3.56364 164.948 3.69035 165.489Z" fill="#AB479A"/>
<path d="M2.96438 162.211C2.85278 161.677 2.74641 161.141 2.64062 160.605C2.74641 161.141 2.8522 161.677 2.96438 162.211Z" fill="#AB479A"/>
<path d="M2.31395 158.901C2.21688 158.373 2.12388 157.844 2.0332 157.315C2.12446 157.844 2.21746 158.373 2.31395 158.901Z" fill="#AB479A"/>
<path d="M85.1717 261.978C85.1397 261.978 85.1043 261.981 85.0723 261.979C88.0908 263.26 91.1749 264.411 94.3014 265.47C94.5758 265.564 94.8524 265.654 95.1274 265.746C95.8406 265.983 96.5526 266.222 97.271 266.448C98.4254 266.814 99.5861 267.167 100.754 267.504C100.774 267.509 100.795 267.516 100.815 267.522L100.817 267.521C107.879 269.555 115.171 271.049 122.645 271.95C119.334 268.812 116.177 265.512 113.184 262.067C112.336 262.452 111.487 262.837 110.642 263.223C107.314 264.737 104.044 266.221 100.867 267.501C100.423 267.373 99.9791 267.247 99.5367 267.115C97.9679 266.648 96.416 266.145 94.8693 265.628C93.8736 265.292 92.8704 264.971 91.8846 264.613C90.8034 264.224 89.745 263.788 88.6767 263.373C87.506 262.914 86.3319 262.463 85.1769 261.974C90.5663 262.107 98.7852 258.4 106.786 254.759C106.914 254.701 107.042 254.642 107.171 254.584C109.101 257.141 111.088 259.65 113.186 262.065C122.286 257.933 131.492 253.997 139.305 254.395C159.104 255.245 169.316 249.369 169.743 249.114C171.95 247.829 172.686 245.013 171.419 242.798C170.152 240.586 167.313 239.823 165.088 241.063C165.006 241.113 156.447 245.84 139.695 245.105C129.044 244.691 117.937 249.681 107.141 254.597C89.5189 231.251 79.05 202.207 79.05 170.7C79.05 169.075 79.0878 167.46 79.143 165.848C89.1033 167.521 99.66 168.735 110.493 169.546C110.531 169.556 110.558 169.583 110.596 169.592L136.049 175.218C137.774 175.709 138.174 177.134 138.265 177.725C138.356 178.311 138.41 179.787 136.92 180.781C135.217 181.916 134.455 184.037 135.049 185.999C135.644 187.961 137.452 189.3 139.5 189.3C168.485 189.3 196.213 186.203 219.676 180.336C221.728 179.827 223.173 177.998 223.2 175.881C223.227 173.77 221.824 171.908 219.785 171.345L210.317 168.734L219.417 161.909C219.479 161.862 219.506 161.792 219.565 161.743C224.597 160.486 229.427 159.124 233.948 157.64C236.391 156.836 237.717 154.212 236.918 151.773C236.114 149.33 233.49 147.995 231.051 148.803C224.112 151.083 216.46 153.099 208.3 154.806C187.621 159.12 163.831 161.4 139.5 161.4C118.722 161.4 98.1818 159.717 79.762 156.527C79.7626 156.519 79.7632 156.511 79.7644 156.502C79.454 159.578 79.2813 162.693 79.1732 165.825C77.283 165.508 75.3765 165.202 73.5322 164.851C71.0072 164.37 69.3501 161.935 69.8314 159.415C70.308 156.89 72.7423 155.237 75.2672 155.714C76.7221 155.991 78.2857 156.188 79.769 156.446C86.9091 86.0979 146.318 31.2 218.55 31.2C224.259 31.2 229.876 31.583 235.405 32.2497C219.009 16.7147 198.856 5.10652 176.445 -1.04484C176.399 -1.05763 176.353 -1.06984 176.307 -1.08204C175.308 -1.35523 174.303 -1.61738 173.295 -1.86848C173.174 -1.8987 173.052 -1.92776 172.931 -1.95741C171.989 -2.18933 171.044 -2.41253 170.095 -2.62526C169.904 -2.66828 169.712 -2.70838 169.522 -2.75023C168.633 -2.94553 167.743 -3.13386 166.848 -3.3123C166.59 -3.36345 166.331 -3.41111 166.073 -3.4611C165.238 -3.62269 164.401 -3.77963 163.561 -3.9261C163.236 -3.98248 162.91 -4.03363 162.585 -4.08769C161.802 -4.21847 161.018 -4.34693 160.231 -4.46434C159.842 -4.52246 159.451 -4.57303 159.061 -4.62825C158.329 -4.73113 157.598 -4.83401 156.863 -4.92527C156.408 -4.98165 155.95 -5.02931 155.494 -5.08163C154.816 -5.15951 154.138 -5.23914 153.456 -5.30657C152.933 -5.35888 152.406 -5.40015 151.881 -5.44665C151.26 -5.50129 150.639 -5.55999 150.015 -5.60708C149.413 -5.65183 148.807 -5.68496 148.202 -5.72216C147.649 -5.75646 147.096 -5.79656 146.54 -5.82388C145.817 -5.85992 145.09 -5.88143 144.364 -5.90642C143.921 -5.92153 143.479 -5.9442 143.035 -5.95524C141.859 -5.98431 140.682 -6 139.5 -6C78.4606 -6 26.5858 33.2071 7.66436 87.8079C7.93348 87.0198 8.21016 86.2351 8.49613 85.455C8.59843 85.5463 8.72747 85.5858 8.82337 85.6875C16.2616 93.6344 29.7984 100.991 47.9671 106.958C50.4101 107.762 51.7359 110.386 50.9367 112.825C50.2921 114.787 48.4757 116.026 46.518 116.026C46.0367 116.026 45.5508 115.954 45.0695 115.795C27.7582 110.112 14.1633 103.059 5.35273 95.2526C6.05953 92.7695 6.81167 90.3061 7.63995 87.8777C2.69409 102.174 0 117.521 0 133.5C0 134.661 0.0156937 135.817 0.044175 136.972C0.053475 137.361 0.0726562 137.747 0.0848625 138.135C0.109856 138.899 0.13485 139.662 0.17205 140.423C0.194719 140.885 0.226106 141.345 0.253425 141.805C0.293531 142.489 0.333056 143.172 0.383044 143.853C0.419081 144.344 0.462675 144.833 0.503944 145.323C0.558581 145.969 0.612637 146.615 0.675994 147.258C0.7254 147.765 0.7812 148.27 0.836419 148.775C0.904425 149.397 0.973594 150.019 1.04974 150.639C1.11309 151.156 1.1811 151.671 1.25027 152.185C1.33106 152.788 1.41418 153.39 1.50253 153.99C1.57984 154.515 1.66005 155.038 1.74317 155.56C1.83617 156.146 1.93324 156.731 2.03379 157.315C2.12505 157.844 2.21747 158.373 2.31454 158.901C2.41916 159.47 2.5296 160.038 2.6412 160.605C2.74699 161.141 2.85277 161.677 2.96496 162.211C3.08004 162.762 3.20211 163.312 3.32417 163.86C3.44507 164.404 3.56422 164.948 3.69152 165.489C3.81532 166.016 3.94669 166.541 4.07631 167.066C4.21406 167.625 4.35007 168.184 4.49481 168.739C4.62094 169.224 4.75521 169.704 4.88657 170.186C5.04757 170.777 5.20451 171.37 5.37308 171.957C5.48061 172.333 5.59627 172.705 5.70671 173.078C6.46815 175.655 7.29817 178.202 8.20202 180.714C8.25201 180.853 8.29909 180.993 8.34966 181.132C8.6304 181.905 8.92277 182.672 9.21688 183.438C9.30988 183.681 9.39997 183.926 9.49414 184.168C9.7836 184.909 10.0835 185.646 10.3852 186.382C10.4916 186.64 10.595 186.9 10.7026 187.158C11.0095 187.894 11.3257 188.625 11.6448 189.353C11.7535 189.602 11.8604 189.851 11.9708 190.099C12.3004 190.84 12.6375 191.576 12.9793 192.31C13.0845 192.536 13.1886 192.761 13.2949 192.986C13.6518 193.741 14.0157 194.493 14.3854 195.24C14.4795 195.43 14.5737 195.621 14.669 195.811C15.059 196.591 15.456 197.367 15.8606 198.138C15.9338 198.278 16.0082 198.417 16.082 198.558C16.5145 199.375 16.9533 200.19 17.4009 200.998C17.4398 201.067 17.4788 201.137 17.5177 201.206C32.5855 228.283 56.415 249.81 85.1717 261.978ZM98.9985 37.1985C100.72 35.4774 103.834 35.4774 105.601 37.1985C106.482 38.0797 106.949 39.2922 106.949 40.5C106.949 41.7078 106.482 42.9157 105.601 43.7562C104.716 44.6367 103.508 45.15 102.3 45.15C101.092 45.15 99.8797 44.6368 98.9985 43.8015C98.1586 42.9157 97.65 41.7078 97.65 40.5C97.65 39.2922 98.1586 38.0797 98.9985 37.1985ZM60.9353 55.6288C64.5368 49.9691 70.9695 47.6168 75.3027 50.3743C79.6359 53.1317 80.2293 59.955 76.6279 65.6146C73.0265 71.2743 66.5944 73.6266 62.2606 70.8691C57.9268 68.1117 57.3339 61.2884 60.9353 55.6288ZM32.3378 153.738C31.1858 148.408 33.5602 143.372 37.6412 142.49C41.7221 141.607 45.9647 145.213 47.1167 150.543C48.2687 155.873 45.8943 160.909 41.8134 161.792C37.7324 162.674 33.4899 159.067 32.3378 153.738Z" fill="#AF62A3"/>
<path d="M158.177 119.55C148.714 119.282 143.015 122.406 137.82 125.063C132.017 128.024 127.017 130.571 117.013 128.913C114.47 128.464 112.082 130.203 111.664 132.737C111.241 135.266 112.954 137.664 115.487 138.086C118.212 138.54 120.678 138.74 122.939 138.74C131.48 138.74 137.03 135.906 142.048 133.345C146.77 130.934 150.862 128.845 157.505 128.845C157.705 128.845 157.951 128.859 158.1 128.85C160.634 128.85 162.709 126.816 162.75 124.277C162.791 121.707 160.743 119.591 158.177 119.55Z" fill="#AB479A"/>
<path d="M193.524 115.895C191.499 114.301 188.579 114.659 186.994 116.676C186.027 117.906 180.901 119.305 176.441 119.559C173.88 119.7 171.919 121.894 172.059 124.455C172.195 126.934 174.244 128.851 176.696 128.851C176.782 128.851 176.864 128.851 176.95 128.846C179.965 128.683 190.133 127.738 194.306 122.425C195.895 120.404 195.541 117.479 193.524 115.895Z" fill="#AB479A"/>
<path d="M60.9308 55.6294C57.3291 61.2891 57.9224 68.1128 62.2558 70.8704C66.5893 73.6281 73.022 71.2755 76.6236 65.6157C80.2253 59.9559 79.6321 53.1323 75.2986 50.3746C70.9652 47.617 64.5325 49.9696 60.9308 55.6294Z" fill="#8D277D"/>
<path d="M41.8147 161.786C45.8955 160.904 48.2695 155.868 47.1173 150.538C45.965 145.208 41.7228 141.603 37.6421 142.485C33.5613 143.367 31.1872 148.403 32.3395 153.733C33.4917 159.063 37.7339 162.668 41.8147 161.786Z" fill="#8D277D"/>
<path d="M102.3 45.15C103.508 45.15 104.716 44.6368 105.602 43.7562C106.482 42.9157 106.95 41.7079 106.95 40.5C106.95 39.2922 106.482 38.0797 105.602 37.1985C103.835 35.4774 100.72 35.4774 98.9991 37.1985C98.1586 38.0797 97.65 39.2922 97.65 40.5C97.65 41.7079 98.1586 42.9157 98.9985 43.8015C99.8797 44.6368 101.092 45.15 102.3 45.15Z" fill="#8D277D"/>
<path d="M210.599 102.241C209.759 103.122 209.25 104.335 209.25 105.543C209.25 106.75 209.759 107.958 210.599 108.844C211.48 109.68 212.692 110.193 213.9 110.193C215.108 110.193 216.316 109.679 217.201 108.799C218.083 107.959 218.55 106.751 218.55 105.543C218.55 104.334 218.082 103.122 217.201 102.241C215.434 100.52 212.32 100.52 210.599 102.241Z" fill="#AB479A"/>
<path d="M229.198 120.898C228.359 121.78 227.85 122.992 227.85 124.2C227.85 125.408 228.359 126.616 229.198 127.501C230.08 128.337 231.292 128.85 232.5 128.85C233.708 128.85 234.916 128.337 235.801 127.456C236.683 126.616 237.15 125.408 237.15 124.2C237.15 122.992 236.682 121.78 235.801 120.898C234.034 119.177 230.92 119.177 229.198 120.898Z" fill="#AB479A"/>
<path d="M112.948 181.349C112.109 182.23 111.6 183.442 111.6 184.65C111.6 185.858 112.109 187.066 112.948 187.952C113.83 188.787 115.042 189.3 116.25 189.3C117.458 189.3 118.666 188.787 119.551 187.906C120.433 187.066 120.9 185.858 120.9 184.65C120.9 183.442 120.432 182.23 119.551 181.349C117.785 179.627 114.67 179.627 112.948 181.349Z" fill="#AB479A"/>
<path d="M173.399 204.599C172.559 205.48 172.05 206.692 172.05 207.9C172.05 209.108 172.559 210.316 173.399 211.202C174.28 212.037 175.492 212.55 176.7 212.55C177.908 212.55 179.116 212.037 180.002 211.156C180.883 210.316 181.35 209.108 181.35 207.9C181.35 206.692 180.882 205.48 180.002 204.599C178.235 202.877 175.12 202.877 173.399 204.599Z" fill="#AB479A"/>
<path d="M69.8319 159.416C69.3506 161.936 71.0078 164.37 73.5327 164.852C75.3771 165.203 77.2835 165.508 79.1738 165.826C79.2813 162.694 79.4539 159.579 79.7649 156.503C79.7666 156.484 79.7678 156.465 79.7701 156.447C78.2868 156.189 76.7226 155.992 75.2684 155.715C72.7422 155.238 70.3085 156.891 69.8319 159.416Z" fill="#8D277D"/>
<path d="M45.0696 115.795C45.5509 115.953 46.0368 116.026 46.5181 116.026C48.4751 116.026 50.2915 114.786 50.9367 112.824C51.7359 110.386 50.4101 107.761 47.9671 106.957C29.7984 100.99 16.2617 93.6338 8.82343 85.687C8.7281 85.5852 8.59848 85.5457 8.49618 85.4545C8.21021 86.2345 7.93353 87.0192 7.66441 87.8074C7.65628 87.8306 7.64814 87.8533 7.64 87.8765C6.81172 90.305 6.05958 92.7689 5.35278 95.2514C14.1634 103.058 27.7582 110.111 45.0696 115.795Z" fill="#8D277D"/>
<path d="M107.171 254.584C107.043 254.642 106.914 254.7 106.786 254.759C98.7852 258.4 90.5669 262.107 85.177 261.974C86.3319 262.463 87.5061 262.915 88.6767 263.373C89.745 263.788 90.8035 264.224 91.8846 264.613C92.8704 264.971 93.8731 265.292 94.8693 265.628C96.4161 266.145 97.968 266.648 99.5368 267.115C99.9785 267.247 100.423 267.373 100.867 267.501C104.044 266.221 107.314 264.738 110.642 263.223C111.487 262.837 112.336 262.452 113.185 262.067C113.185 262.067 113.186 262.066 113.187 262.065L113.186 262.065C111.089 259.65 109.101 257.141 107.171 254.584Z" fill="#8D277D"/>
<path d="M250.29 48.7677C239.788 53.445 227.28 57.5103 212.86 60.8071C210.353 61.3791 208.791 63.8721 209.363 66.3743C209.854 68.5314 211.77 69.9891 213.891 69.9891C214.236 69.9891 214.581 69.9525 214.931 69.8711C230.709 66.2674 244.424 61.7604 255.819 56.507C254.063 53.8612 252.217 51.2833 250.29 48.7677Z" fill="#AB479A"/>
</g>
<defs>
<clipPath id="clip0_48_3757">
<rect width="279" height="279" fill="white" transform="translate(0 -6)"/>
</clipPath>
</defs>
</svg>
