<svg width="855" height="855" viewBox="0 0 855 855" fill="none" xmlns="http://www.w3.org/2000/svg">
<g clip-path="url(#clip0_259_5494)">
<path d="M44.0788 616.706C42.9459 614.416 41.8309 612.112 40.7372 609.799C41.8291 612.114 42.9459 614.416 44.0788 616.706Z" fill="#AB479A"/>
<path d="M39.77 607.727C38.7227 605.477 37.6895 603.22 36.6796 600.951C37.6878 603.222 38.7227 605.477 39.77 607.727Z" fill="#AB479A"/>
<path d="M35.6803 598.667C34.7023 596.434 33.7333 594.193 32.7928 591.94C33.7333 594.193 34.7023 596.432 35.6803 598.667Z" fill="#AB479A"/>
<path d="M540.718 15.1852C609.398 34.0361 671.159 69.6095 721.403 117.217C704.458 115.174 687.246 114 669.75 114C448.394 114 266.334 282.236 244.455 497.818C244.45 497.875 244.445 497.934 244.439 497.991C244.437 498.016 244.436 498.041 244.432 498.066C300.88 507.843 363.826 513 427.5 513C502.061 513 574.968 506.014 638.341 492.794C663.348 487.56 686.797 481.383 708.061 474.397C715.534 471.919 723.578 476.011 726.041 483.497C728.49 490.97 724.427 499.014 716.941 501.477C703.086 506.026 688.286 510.2 672.862 514.051C672.682 514.199 672.598 514.416 672.41 514.559L644.522 535.474L673.537 543.475C679.786 545.201 684.086 550.907 684.002 557.378C683.918 563.864 679.494 569.471 673.202 571.03C601.297 589.01 516.326 598.5 427.5 598.5C421.225 598.5 415.685 594.394 413.863 588.383C412.041 582.371 414.378 575.873 419.597 572.392C424.162 569.345 423.995 564.822 423.717 563.026C423.439 561.217 422.213 556.847 416.925 555.344L338.926 538.101C338.81 538.075 338.726 537.991 338.61 537.962C305.411 535.476 273.059 531.753 242.537 526.628C242.368 531.566 242.252 536.518 242.252 541.498C242.252 638.051 274.334 727.056 328.34 798.602C361.425 783.536 395.463 768.246 428.1 769.512C479.436 771.768 505.668 757.281 505.92 757.127C512.738 753.328 521.436 755.667 525.319 762.443C529.202 769.235 526.947 777.861 520.184 781.8C518.876 782.58 487.578 800.586 426.905 797.984C402.963 796.762 374.75 808.825 346.863 821.488L346.866 821.491C346.866 821.491 346.863 821.493 346.859 821.495C356.029 832.054 365.703 842.166 375.851 851.781C352.946 849.02 330.604 844.443 308.96 838.21L308.953 838.214C308.89 838.196 308.828 838.174 308.766 838.157C305.189 837.125 301.632 836.044 298.092 834.922C295.891 834.229 293.709 833.495 291.523 832.77C290.679 832.487 289.833 832.211 288.992 831.924C279.409 828.679 269.959 825.15 260.709 821.228C260.807 821.231 260.914 821.222 261.014 821.224C172.886 783.935 99.8605 717.963 53.6798 634.991C126.663 766.206 266.701 855 427.5 855C663.601 855 855 663.601 855 427.5C855 230.597 721.868 64.8162 540.718 15.1852ZM484.5 413.25C484.041 413.279 483.289 413.236 482.678 413.236C462.318 413.236 449.78 419.638 435.307 427.026C419.93 434.874 402.924 443.558 376.749 443.558C369.818 443.558 362.262 442.945 353.913 441.554C346.149 440.259 340.901 432.911 342.196 425.161C343.477 417.397 350.796 412.065 358.589 413.444C389.246 418.524 404.568 410.717 422.352 401.643C438.273 393.503 455.736 383.929 484.737 384.75C492.599 384.875 498.877 391.36 498.75 399.237C498.625 407.016 492.265 413.25 484.5 413.25ZM595.452 393.558C582.663 409.841 551.505 412.735 542.266 413.236C542.001 413.25 541.751 413.25 541.486 413.25C533.971 413.25 527.695 407.377 527.277 399.778C526.846 391.93 532.857 385.208 540.706 384.777C554.371 383.997 570.082 379.711 573.046 375.94C577.904 369.761 586.851 368.662 593.057 373.546C599.238 378.403 600.322 387.367 595.452 393.558ZM366.368 594.227C363.655 596.927 359.952 598.498 356.25 598.498C352.549 598.498 348.833 596.925 346.133 594.366C343.559 591.653 342 587.95 342 584.248C342 580.547 343.559 576.831 346.133 574.131C351.407 568.856 360.953 568.856 366.366 574.131C369.066 576.831 370.498 580.547 370.498 584.248C370.498 587.95 369.066 591.653 366.368 594.227ZM551.616 665.477C548.903 668.177 545.2 669.748 541.498 669.748C537.797 669.748 534.081 668.175 531.381 665.616C528.807 662.903 527.248 659.2 527.248 655.498C527.248 651.797 528.807 648.081 531.381 645.381C536.655 640.106 546.201 640.106 551.614 645.381C554.314 648.081 555.747 651.797 555.747 655.498C555.747 659.2 554.316 662.903 551.616 665.477ZM665.616 351.8C662.903 354.501 659.2 356.072 655.498 356.072C651.797 356.072 648.081 354.499 645.381 351.939C642.807 349.227 641.248 345.523 641.248 341.822C641.248 338.12 642.807 334.405 645.381 331.704C650.655 326.43 660.201 326.43 665.614 331.704C668.314 334.405 669.747 338.12 669.747 341.822C669.747 345.523 668.316 349.227 665.616 351.8ZM722.616 408.977C719.903 411.677 716.2 413.248 712.498 413.248C708.797 413.248 705.081 411.675 702.381 409.116C699.807 406.403 698.248 402.7 698.248 398.998C698.248 395.297 699.807 391.581 702.381 388.881C707.655 383.606 717.201 383.606 722.614 388.881C725.314 391.581 726.747 395.297 726.747 398.998C726.747 402.7 725.316 406.403 722.616 408.977ZM658.658 232.508C657.586 232.76 656.53 232.87 655.472 232.87C648.974 232.87 643.101 228.403 641.597 221.792C639.845 214.124 644.631 206.484 652.313 204.732C696.503 194.628 734.835 182.168 767.019 167.837C772.924 175.546 778.583 183.446 783.96 191.554C749.042 207.653 707.012 221.465 658.658 232.508Z" fill="#C386B9"/>
<path d="M48.5979 625.587C47.3581 623.224 46.1433 620.844 44.9463 618.455C46.1433 620.846 47.3599 623.224 48.5979 625.587Z" fill="#AB479A"/>
<path d="M53.3181 634.351C51.9448 631.874 50.6017 629.38 49.2765 626.874C50.6 629.38 51.9466 631.874 53.3181 634.351Z" fill="#AB479A"/>
<path d="M491.028 4.70435C493.442 5.06416 495.843 5.45781 498.242 5.8586C495.841 5.4596 493.44 5.06416 491.028 4.70435Z" fill="#AB479A"/>
<path d="M501.233 6.35547C503.809 6.80434 506.372 7.28528 508.932 7.78047C506.372 7.28706 503.809 6.80256 501.233 6.35547Z" fill="#AB479A"/>
<path d="M0.260063 441.704C0.220876 440.516 0.163876 439.331 0.135376 438.139C0.163876 439.329 0.220876 440.514 0.260063 441.704Z" fill="#AB479A"/>
<path d="M449.071 0.539673C450.774 0.625173 452.468 0.746298 454.165 0.851392C452.468 0.748079 450.776 0.625173 449.071 0.539673Z" fill="#AB479A"/>
<path d="M511.31 8.23474C514.051 8.7798 516.78 9.35871 519.502 9.95721C516.778 9.36049 514.049 8.7798 511.31 8.23474Z" fill="#AB479A"/>
<path d="M521.256 10.3402C524.165 10.9921 527.061 11.6761 529.947 12.3869C527.061 11.6779 524.167 10.9904 521.256 10.3402Z" fill="#AB479A"/>
<path d="M3.82791 484.762C3.61594 483.184 3.40754 481.605 3.21338 480.024C3.40932 481.605 3.61772 483.184 3.82791 484.762Z" fill="#AB479A"/>
<path d="M1.54262 463.731C1.41615 462.229 1.28256 460.731 1.17212 459.226C1.28256 460.731 1.41793 462.231 1.54262 463.731Z" fill="#AB479A"/>
<path d="M28.2399 580.538C27.3386 578.19 26.4426 575.839 25.5823 573.472C26.4426 575.839 27.3386 578.188 28.2399 580.538Z" fill="#AB479A"/>
<path d="M11.3092 525.531C10.9191 523.873 10.554 522.206 10.1835 520.54C10.554 522.206 10.9209 523.873 11.3092 525.531Z" fill="#AB479A"/>
<path d="M9.08444 515.487C8.74244 513.85 8.41647 512.206 8.09229 510.563C8.41647 512.207 8.74066 513.85 9.08444 515.487Z" fill="#AB479A"/>
<path d="M7.09118 505.341C6.79371 503.725 6.50871 502.104 6.23083 500.481C6.51049 502.104 6.79549 503.723 7.09118 505.341Z" fill="#AB479A"/>
<path d="M261.01 821.224C260.912 821.222 260.803 821.231 260.706 821.227C269.956 825.152 279.407 828.678 288.988 831.924C289.829 832.212 290.677 832.488 291.519 832.77C293.705 833.495 295.887 834.229 298.089 834.922C301.626 836.044 305.183 837.123 308.762 838.156C308.824 838.174 308.887 838.196 308.949 838.213L308.956 838.21C330.598 844.442 352.942 849.02 375.847 851.781C365.7 842.166 356.026 832.054 346.856 821.495C344.255 822.676 341.653 823.857 339.063 825.038C328.865 829.679 318.846 834.225 309.107 838.148C307.748 837.757 306.387 837.369 305.032 836.967C300.224 835.534 295.468 833.992 290.728 832.408C287.677 831.379 284.603 830.394 281.582 829.297C278.269 828.107 275.025 826.771 271.751 825.497C268.164 824.092 264.565 822.709 261.026 821.211C277.542 821.618 302.729 810.259 327.248 799.099C327.64 798.921 328.033 798.743 328.427 798.565C334.341 806.399 340.432 814.088 346.859 821.489C374.746 808.826 402.96 796.764 426.901 797.986C487.576 800.588 518.873 782.581 520.18 781.801C526.944 777.863 529.199 769.235 525.316 762.444C521.432 755.667 512.735 753.33 505.916 757.129C505.665 757.282 479.434 771.769 428.097 769.514C395.459 768.248 361.421 783.538 328.336 798.604C274.332 727.058 242.25 638.053 242.25 541.5C242.25 536.52 242.366 531.57 242.535 526.63C273.058 531.757 305.41 535.479 338.608 537.964C338.724 537.993 338.806 538.076 338.924 538.103L416.923 555.346C422.211 556.849 423.435 561.218 423.715 563.028C423.993 564.824 424.16 569.346 419.595 572.394C414.376 575.873 412.039 582.373 413.861 588.384C415.683 594.396 421.223 598.5 427.5 598.5C516.326 598.5 601.297 589.009 673.2 571.03C679.49 569.471 683.916 563.864 684 557.378C684.084 550.907 679.784 545.201 673.535 543.475L644.52 535.474L672.408 514.559C672.596 514.416 672.68 514.201 672.86 514.051C688.282 510.2 703.084 506.026 716.939 501.477C724.425 499.014 728.488 490.971 726.039 483.497C723.576 476.011 715.533 471.919 708.059 474.397C686.795 481.383 663.346 487.562 638.339 492.793C574.968 506.014 502.061 513 427.5 513C363.826 513 300.88 507.843 244.432 498.066C244.434 498.041 244.436 498.016 244.439 497.991C243.488 507.418 242.959 516.963 242.628 526.561C236.835 525.588 230.992 524.651 225.341 523.575C217.603 522.1 212.524 514.64 213.999 506.917C215.46 499.179 222.92 494.113 230.658 495.576C235.116 496.425 239.908 497.029 244.453 497.818C266.334 282.235 448.394 114 669.75 114C687.245 114 704.458 115.174 721.403 117.217C671.157 69.6095 609.398 34.0361 540.718 15.1852C540.577 15.146 540.437 15.1086 540.296 15.0712C537.234 14.234 534.156 13.4306 531.065 12.6611C530.695 12.5685 530.321 12.4794 529.949 12.3886C527.063 11.6779 524.167 10.9939 521.258 10.3419C520.674 10.2101 520.086 10.0872 519.502 9.95897C516.78 9.36047 514.051 8.78334 511.31 8.2365C510.519 8.07975 509.724 7.93369 508.933 7.7805C506.374 7.28531 503.81 6.80437 501.235 6.3555C500.241 6.18272 499.24 6.02597 498.244 5.86031C495.845 5.45953 493.442 5.06587 491.03 4.70606C489.838 4.52794 488.64 4.37297 487.444 4.20375C485.202 3.88847 482.961 3.57319 480.708 3.29353C479.315 3.12075 477.911 2.97469 476.515 2.81437C474.436 2.57569 472.359 2.33166 470.27 2.12503C468.665 1.96472 467.051 1.83825 465.442 1.69575C463.538 1.52831 461.636 1.34841 459.725 1.20412C457.879 1.06697 456.021 0.965437 454.169 0.851437C452.471 0.746344 450.777 0.623437 449.074 0.539719C446.859 0.429281 444.632 0.363375 442.407 0.286781C441.048 0.240469 439.694 0.171 438.332 0.137156C434.73 0.0480937 431.121 0 427.5 0C240.444 0 81.4726 120.151 23.4876 287.476C24.3123 285.061 25.1602 282.656 26.0365 280.265C26.35 280.545 26.7455 280.666 27.0394 280.978C49.834 305.331 91.3176 327.875 146.996 346.161C154.482 348.624 158.545 356.667 156.096 364.141C154.121 370.153 148.554 373.952 142.555 373.952C141.08 373.952 139.591 373.729 138.116 373.243C85.0654 355.826 43.4037 334.212 16.4035 310.29C18.5695 302.681 20.8745 295.132 23.4127 287.69C8.25609 331.499 0 378.533 0 427.5C0 431.057 0.0480937 434.602 0.135375 438.139C0.163875 439.331 0.222656 440.516 0.260062 441.704C0.336656 444.044 0.41325 446.385 0.52725 448.716C0.596719 450.133 0.692906 451.54 0.776625 452.952C0.899531 455.047 1.02066 457.14 1.17384 459.226C1.28428 460.731 1.41787 462.229 1.54434 463.731C1.71178 465.711 1.87744 467.69 2.07159 469.662C2.223 471.215 2.394 472.762 2.56322 474.309C2.77162 476.217 2.98359 478.123 3.21694 480.024C3.41109 481.607 3.6195 483.185 3.83147 484.762C4.07906 486.609 4.33378 488.453 4.60453 490.293C4.84144 491.899 5.08725 493.502 5.34197 495.102C5.62697 496.899 5.92444 498.691 6.23259 500.481C6.51225 502.104 6.79547 503.725 7.09294 505.341C7.41356 507.086 7.752 508.825 8.094 510.563C8.41819 512.207 8.74237 513.85 9.08616 515.487C9.43884 517.175 9.81291 518.858 10.187 520.54C10.5575 522.205 10.9226 523.873 11.3127 525.531C11.6921 527.147 12.0947 528.755 12.4919 530.364C12.9141 532.075 13.3309 533.789 13.7744 535.492C14.1609 536.976 14.5724 538.449 14.975 539.925C15.4684 541.737 15.9493 543.552 16.4659 545.353C16.7954 546.503 17.1499 547.644 17.4883 548.789C19.8217 556.685 22.3654 564.491 25.1352 572.187C25.2884 572.613 25.4327 573.044 25.5877 573.47C26.448 575.837 27.344 578.188 28.2453 580.536C28.5303 581.281 28.8064 582.031 29.0949 582.772C29.982 585.044 30.9011 587.303 31.8256 589.556C32.1516 590.349 32.4686 591.145 32.7982 591.936C33.7387 594.191 34.7077 596.43 35.6856 598.664C36.0187 599.424 36.3464 600.189 36.6848 600.949C37.6948 603.218 38.7279 605.475 39.7753 607.725C40.0977 608.416 40.4166 609.107 40.7425 609.797C41.8362 612.111 42.9513 614.414 44.0842 616.704C44.3727 617.287 44.6613 617.871 44.9534 618.452C46.1486 620.842 47.3652 623.22 48.605 625.584C48.8294 626.013 49.0574 626.441 49.2836 626.87C50.6089 629.376 51.9537 631.872 53.3253 634.348C53.4446 634.561 53.564 634.773 53.6833 634.987C99.8587 717.965 172.885 783.935 261.01 821.224ZM303.382 132.382C308.657 127.108 318.202 127.108 323.616 132.382C326.316 135.083 327.748 138.799 327.748 142.5C327.748 146.201 326.314 149.903 323.616 152.479C320.903 155.177 317.201 156.75 313.5 156.75C309.799 156.75 306.083 155.177 303.382 152.617C300.809 149.903 299.25 146.201 299.25 142.5C299.25 138.799 300.809 135.083 303.382 132.382ZM186.737 188.862C197.774 171.518 217.487 164.31 230.766 172.76C244.045 181.21 245.864 202.12 234.828 219.464C223.791 236.808 204.08 244.017 190.799 235.567C177.518 227.116 175.701 206.206 186.737 188.862ZM99.0998 489.52C95.5694 473.185 102.846 457.753 115.352 455.049C127.858 452.345 140.859 463.396 144.39 479.73C147.92 496.064 140.644 511.497 128.138 514.201C115.632 516.903 102.63 505.852 99.0998 489.52Z" fill="#AF62A3"/>
<path d="M484.737 384.75C455.736 383.929 438.271 393.503 422.352 401.643C404.568 410.717 389.246 418.524 358.589 413.444C350.796 412.067 343.477 417.397 342.196 425.161C340.901 432.913 346.148 440.261 353.913 441.554C362.263 442.945 369.82 443.558 376.749 443.558C402.924 443.558 419.93 434.874 435.307 427.026C449.78 419.638 462.318 413.236 482.678 413.236C483.29 413.236 484.042 413.277 484.5 413.25C492.264 413.25 498.625 407.016 498.75 399.237C498.875 391.36 492.599 384.875 484.737 384.75Z" fill="#AB479A"/>
<path d="M593.058 373.548C586.852 368.663 577.903 369.762 573.048 375.942C570.084 379.713 554.373 383.998 540.707 384.778C532.859 385.209 526.847 391.932 527.278 399.78C527.695 407.379 533.972 413.252 541.488 413.252C541.751 413.252 542.002 413.252 542.268 413.237C551.507 412.737 582.666 409.842 595.454 393.56C600.322 387.367 599.237 378.403 593.058 373.548Z" fill="#AB479A"/>
<path d="M186.724 188.864C175.686 206.209 177.504 227.12 190.784 235.571C204.064 244.022 223.777 236.812 234.815 219.468C245.852 202.123 244.034 181.212 230.754 172.761C217.474 164.31 197.761 171.52 186.724 188.864Z" fill="#8D277D"/>
<path d="M128.142 514.184C140.647 511.48 147.923 496.047 144.392 479.714C140.861 463.381 127.86 452.331 115.355 455.035C102.849 457.739 95.5739 473.171 99.105 489.504C102.636 505.838 115.636 516.887 128.142 514.184Z" fill="#8D277D"/>
<path d="M313.5 156.75C317.201 156.75 320.903 155.177 323.617 152.479C326.316 149.903 327.75 146.201 327.75 142.5C327.75 138.799 326.316 135.083 323.617 132.382C318.204 127.108 308.659 127.108 303.384 132.382C300.809 135.083 299.25 138.799 299.25 142.5C299.25 146.201 300.809 149.903 303.383 152.617C306.083 155.177 309.799 156.75 313.5 156.75Z" fill="#8D277D"/>
<path d="M645.383 331.706C642.809 334.407 641.25 338.122 641.25 341.824C641.25 345.525 642.809 349.227 645.383 351.941C648.083 354.503 651.799 356.074 655.5 356.074C659.201 356.074 662.903 354.501 665.617 351.802C668.318 349.228 669.75 345.527 669.75 341.824C669.75 338.12 668.316 334.407 665.617 331.706C660.202 326.432 650.657 326.432 645.383 331.706Z" fill="#AB479A"/>
<path d="M702.382 388.882C699.808 391.583 698.25 395.299 698.25 399C698.25 402.701 699.808 406.403 702.382 409.117C705.083 411.679 708.798 413.25 712.5 413.25C716.201 413.25 719.903 411.677 722.617 408.979C725.318 406.405 726.75 402.703 726.75 399C726.75 395.297 725.316 391.583 722.617 388.882C717.202 383.608 707.657 383.608 702.382 388.882Z" fill="#AB479A"/>
<path d="M346.133 574.132C343.559 576.833 342 580.549 342 584.25C342 587.951 343.559 591.653 346.133 594.367C348.833 596.929 352.549 598.5 356.25 598.5C359.951 598.5 363.653 596.927 366.367 594.228C369.068 591.655 370.5 587.953 370.5 584.25C370.5 580.547 369.066 576.833 366.367 574.132C360.954 568.858 351.407 568.858 346.133 574.132Z" fill="#AB479A"/>
<path d="M531.383 645.382C528.809 648.083 527.25 651.799 527.25 655.5C527.25 659.201 528.809 662.903 531.383 665.617C534.083 668.179 537.799 669.75 541.5 669.75C545.201 669.75 548.903 668.177 551.617 665.478C554.318 662.905 555.75 659.203 555.75 655.5C555.75 651.797 554.316 648.083 551.617 645.382C546.202 640.108 536.657 640.108 531.383 645.382Z" fill="#AB479A"/>
<path d="M214.001 506.919C212.526 514.642 217.605 522.1 225.342 523.577C230.994 524.653 236.837 525.59 242.629 526.562C242.959 516.965 243.488 507.419 244.441 497.993C244.446 497.936 244.45 497.877 244.457 497.82C239.911 497.031 235.118 496.427 230.661 495.578C222.92 494.115 215.462 499.181 214.001 506.919Z" fill="#8D277D"/>
<path d="M138.116 373.241C139.591 373.728 141.08 373.95 142.555 373.95C148.553 373.95 154.119 370.151 156.096 364.139C158.546 356.667 154.482 348.623 146.996 346.159C91.3176 327.873 49.8341 305.329 27.0394 280.976C26.7473 280.664 26.3501 280.543 26.0366 280.264C25.1602 282.654 24.3123 285.059 23.4876 287.474C23.4627 287.545 23.4377 287.615 23.4128 287.686C20.8745 295.128 18.5696 302.679 16.4036 310.287C43.4037 334.211 85.0654 355.824 138.116 373.241Z" fill="#8D277D"/>
<path d="M328.427 798.564C328.035 798.743 327.64 798.921 327.248 799.099C302.729 810.258 277.544 821.617 261.026 821.211C264.566 822.709 268.164 824.093 271.751 825.497C275.025 826.769 278.269 828.105 281.582 829.296C284.603 830.394 287.676 831.379 290.729 832.408C295.469 833.992 300.224 835.534 305.032 836.966C306.386 837.371 307.747 837.757 309.108 838.147C318.846 834.225 328.865 829.679 339.063 825.037C341.653 823.856 344.255 822.675 346.856 821.495C346.856 821.495 346.859 821.493 346.863 821.491L346.861 821.489C340.434 814.088 334.341 806.398 328.427 798.564Z" fill="#8D277D"/>
<path d="M767.019 167.836C734.835 182.17 696.503 194.628 652.313 204.731C644.631 206.484 639.845 214.124 641.597 221.792C643.101 228.402 648.974 232.87 655.472 232.87C656.53 232.87 657.588 232.758 658.658 232.508C707.012 221.465 749.042 207.653 783.96 191.554C778.581 183.446 772.924 175.546 767.019 167.836Z" fill="#AB479A"/>
</g>
<defs>
<clipPath id="clip0_259_5494">
<rect width="855" height="855" fill="white"/>
</clipPath>
</defs>
</svg>
