<svg width="166" height="166" viewBox="0 0 166 166" fill="none" xmlns="http://www.w3.org/2000/svg">
<g clip-path="url(#clip0_48_3831)">
<path d="M10.7929 88.7241C21.019 88.7241 30.9733 85.925 39.5738 80.6302C46.1766 76.5632 54.2648 74.4138 62.9655 74.4138C71.6662 74.4138 79.7544 76.5632 86.3601 80.6302C94.9606 85.925 104.915 88.7241 115.141 88.7241H165.556C165.634 88.7241 165.699 88.7614 165.777 88.7699C165.908 86.8609 166 84.9405 166 83C166 81.0595 165.908 79.1391 165.777 77.2301C165.702 77.2358 165.637 77.2759 165.559 77.2759H111.621C110.038 77.2759 108.759 75.9937 108.759 74.4138C108.759 72.8339 110.038 71.5517 111.621 71.5517H165.196C164.655 67.6364 163.839 63.8127 162.774 60.0949C162.514 60.1721 162.256 60.258 161.973 60.258H77.2759C75.6931 60.258 74.4138 58.9758 74.4138 57.3959C74.4138 55.8161 75.6931 54.5339 77.2759 54.5339H160.986C159.483 50.4211 157.651 46.4657 155.548 42.6878C155.127 42.931 154.666 43.1056 154.145 43.1056H137.379C135.797 43.1056 134.517 41.8234 134.517 40.2436C134.517 38.6637 135.797 37.3815 137.379 37.3815H152.328C137.482 14.8656 111.984 0 83 0C60.8619 0 40.7616 8.68638 25.8817 22.8136H48.8355C50.4182 22.8136 51.6975 24.0958 51.6975 25.6756C51.6975 27.2555 50.4182 28.5377 48.8355 28.5377H22.9796C22.2354 28.5377 21.5714 28.2372 21.062 27.7707C18.3745 30.7844 15.9045 33.9957 13.6721 37.3786H28.6207C30.2034 37.3786 31.4828 38.6608 31.4828 40.2407C31.4828 41.8206 30.2034 43.1028 28.6207 43.1028H11.8547C11.3338 43.1028 10.873 42.9253 10.4523 42.6849C8.86669 45.5298 7.44424 48.4777 6.19638 51.5172H22.4901C24.0729 51.5172 25.3522 52.7994 25.3522 54.3793C25.3522 55.9592 24.0729 57.2414 22.4901 57.2414H5.72414C5.17462 57.2414 4.68807 57.0439 4.25303 56.7749C3.25417 59.78 2.40414 62.851 1.74872 65.9965H40.069C41.6517 65.9965 42.931 67.2787 42.931 68.8585C42.931 70.4384 41.6517 71.7206 40.069 71.7206H1.20207C1.0561 71.7206 0.933034 71.6576 0.792793 71.6376C0.283345 75.3554 0 79.1448 0 83C0 84.9405 0.0915862 86.8609 0.223241 88.7699C0.297655 88.7614 0.363483 88.7241 0.440759 88.7241H10.7929Z" fill="#6E4F7E"/>
<path d="M86.36 125.439C79.7544 129.506 71.6662 131.655 62.9655 131.655C54.2648 131.655 46.1766 129.506 39.5709 125.439C30.9704 120.144 21.019 117.345 10.7928 117.345H7.44421C9.41332 121.669 11.7259 125.802 14.379 129.692C14.9514 129.285 15.6669 129.074 16.4197 129.177C22.0379 129.949 27.3041 131.827 32.0723 134.763C40.9304 140.219 51.6117 143.103 62.9655 143.103C74.3193 143.103 85.0005 140.219 93.8615 134.763C100.207 130.857 107.562 128.793 115.138 128.793H150.224C150.842 128.793 151.383 129.031 151.85 129.363C154.409 125.57 156.641 121.546 158.553 117.345H115.141C104.915 117.345 94.9606 120.144 86.36 125.439Z" fill="#6A4D78"/>
<path d="M83.3577 85.5043C77.6593 81.9926 70.6072 80.1379 62.9655 80.1379C55.3237 80.1379 48.2716 81.9926 42.5732 85.5043C33.0683 91.3544 22.078 94.4483 10.7928 94.4483H0.804199C1.63706 100.473 3.09958 106.292 5.15168 111.832C5.47796 111.704 5.82713 111.621 6.19634 111.621H10.79C22.0751 111.621 33.0654 114.715 42.5704 120.565C48.2716 124.076 55.3237 125.931 62.9655 125.931C70.6072 125.931 77.6593 124.076 83.3577 120.565C92.8626 114.715 103.853 111.621 115.141 111.621H159.801C160.17 111.621 160.519 111.704 160.845 111.832C162.897 106.294 164.36 100.473 165.193 94.4483H115.141C103.853 94.4483 92.8626 91.3544 83.3577 85.5043Z" fill="#A07CB2"/>
<path d="M62.9655 128.793C92.9984 128.793 117.345 104.447 117.345 74.4137C117.345 44.3809 92.9984 20.0344 62.9655 20.0344C32.9326 20.0344 8.58618 44.3809 8.58618 74.4137C8.58618 104.447 32.9326 128.793 62.9655 128.793Z" fill="#A07CB2"/>
<path d="M96.8639 139.637C87.1014 145.651 75.3784 148.828 62.9656 148.828C50.5528 148.828 38.8298 145.651 29.0672 139.637C25.8474 137.654 22.35 136.254 18.655 135.419C33.8755 154.079 57.044 166 83.0001 166C98.3493 166 112.717 161.816 125.05 154.552H97.3104C95.7277 154.552 94.4483 153.269 94.4483 151.69C94.4483 150.11 95.7277 148.828 97.3104 148.828H129.211C130.256 148.828 131.126 149.414 131.627 150.247C137.797 145.777 143.324 140.482 148.052 134.517H115.138C108.621 134.517 102.302 136.289 96.8639 139.637Z" fill="#6E4F7E"/>
<path d="M54.3793 100.172C73.3474 100.172 88.7241 84.7957 88.7241 65.8276C88.7241 46.8595 73.3474 31.4828 54.3793 31.4828C35.4111 31.4828 20.0344 46.8595 20.0344 65.8276C20.0344 84.7957 35.4111 100.172 54.3793 100.172Z" fill="#DFBDF0"/>
<path d="M115.138 128.793C107.562 128.793 100.204 130.857 93.8587 134.763C85.0006 140.218 74.3194 143.103 62.9656 143.103C51.6117 143.103 40.9305 140.218 32.0695 134.763C27.3013 131.827 22.0351 129.947 16.4169 129.177C15.6642 129.071 14.9486 129.283 14.3762 129.692C15.7214 131.664 17.1496 133.573 18.655 135.419C22.3499 136.257 25.8445 137.654 29.0672 139.637C38.8297 145.651 50.5528 148.828 62.9656 148.828C75.3784 148.828 87.1014 145.651 96.8639 139.637C102.302 136.289 108.621 134.517 115.141 134.517H148.052C149.377 132.846 150.656 131.137 151.853 129.363C151.383 129.031 150.843 128.793 150.224 128.793H115.138Z" fill="#553466"/>
<path d="M165.559 88.7242H115.141C104.915 88.7242 94.9577 85.9251 86.3572 80.6302C79.7544 76.5632 71.6662 74.4138 62.9655 74.4138C54.2648 74.4138 46.1766 76.5632 39.5709 80.6302C30.9704 85.9251 21.019 88.7242 10.7928 88.7242H0.440716C0.36344 88.7242 0.297613 88.7614 0.220337 88.77C0.351992 90.6818 0.543751 92.5765 0.804199 94.4483H10.79C22.0751 94.4483 33.0654 91.3544 42.5704 85.5043C48.2716 81.9926 55.3237 80.138 62.9655 80.138C70.6072 80.138 77.6593 81.9926 83.3577 85.5043C92.8626 91.3544 103.853 94.4483 115.141 94.4483H165.193C165.45 92.5736 165.645 90.679 165.777 88.77C165.702 88.7614 165.636 88.7242 165.559 88.7242Z" fill="#553466"/>
<path d="M115.141 111.621C103.853 111.621 92.8627 114.715 83.3578 120.565C77.6594 124.076 70.6073 125.931 62.9655 125.931C55.3238 125.931 48.2717 124.076 42.5733 120.565C33.0684 114.715 22.078 111.621 10.7929 111.621H6.19639C5.82432 111.621 5.47801 111.704 5.15173 111.833C5.84722 113.704 6.61998 115.539 7.44425 117.345H10.7929C21.019 117.345 30.9733 120.144 39.5738 125.439C46.1766 129.506 54.2648 131.655 62.9655 131.655C71.6662 131.655 79.7544 129.506 86.3601 125.439C94.9606 120.144 104.915 117.345 115.141 117.345H158.556C159.377 115.539 160.153 113.704 160.848 111.833C160.522 111.704 160.173 111.621 159.804 111.621H115.141Z" fill="#553466"/>
<path d="M129.211 148.828H97.3103C95.7276 148.828 94.4482 150.11 94.4482 151.69C94.4482 153.27 95.7276 154.552 97.3103 154.552H125.049C127.313 153.218 129.506 151.781 131.624 150.247C131.126 149.414 130.253 148.828 129.211 148.828Z" fill="#553466"/>
<path d="M108.759 74.4138C108.759 75.9937 110.038 77.2759 111.621 77.2759H165.559C165.637 77.2759 165.702 77.2387 165.78 77.2301C165.648 75.3182 165.456 73.4236 165.196 71.5518H111.621C110.038 71.5518 108.759 72.8311 108.759 74.4138Z" fill="#553466"/>
<path d="M74.4138 57.3931C74.4138 58.9729 75.6932 60.2551 77.2759 60.2551H161.97C162.254 60.2551 162.514 60.1693 162.772 60.092C162.234 58.2116 161.653 56.3513 160.986 54.531H77.2759C75.6932 54.531 74.4138 55.8104 74.4138 57.3931Z" fill="#553466"/>
<path d="M40.069 71.7234C41.6517 71.7234 42.9311 70.4412 42.9311 68.8613C42.9311 67.2815 41.6517 65.9993 40.069 65.9993H1.74878C1.3624 67.8568 1.05329 69.74 0.792847 71.6404C0.933088 71.6604 1.05616 71.7234 1.20212 71.7234H40.069Z" fill="#553466"/>
<path d="M134.517 40.2407C134.517 41.8206 135.797 43.1028 137.379 43.1028H154.145C154.666 43.1028 155.127 42.9253 155.548 42.6849C154.54 40.8732 153.464 39.1045 152.325 37.3787H137.379C135.797 37.3787 134.517 38.658 134.517 40.2407Z" fill="#553466"/>
<path d="M28.6207 43.1028C30.2035 43.1028 31.4828 41.8206 31.4828 40.2407C31.4828 38.6609 30.2035 37.3787 28.6207 37.3787H13.6722C12.5359 39.1045 11.4598 40.8732 10.4495 42.6849C10.8702 42.9282 11.331 43.1028 11.8519 43.1028H28.6207Z" fill="#553466"/>
<path d="M22.4902 57.2413C24.0729 57.2413 25.3522 55.9591 25.3522 54.3793C25.3522 52.7994 24.0729 51.5172 22.4902 51.5172H6.1964C5.48947 53.2402 4.8455 54.9975 4.25305 56.7748C4.68809 57.0439 5.17464 57.2413 5.72416 57.2413H22.4902Z" fill="#553466"/>
<path d="M48.8327 28.5377C50.4154 28.5377 51.6947 27.2555 51.6947 25.6757C51.6947 24.0958 50.4154 22.8136 48.8327 22.8136H25.8789C24.2074 24.3992 22.5961 26.0506 21.062 27.7707C21.5715 28.2372 22.2355 28.5377 22.9796 28.5377H48.8327Z" fill="#553466"/>
<path d="M118.47 28.6206H112.044C111.881 28.6206 111.833 28.3859 111.987 28.3344C114.551 27.4873 116.315 24.8742 115.837 21.9348C115.379 19.1214 112.734 17.1724 109.883 17.1724H95.8793C92.7654 17.1724 90.2325 19.6595 90.1581 22.7563C90.1552 22.8335 90.0951 22.8965 90.0178 22.8965H81.8752C79.0246 22.8965 76.3801 24.8456 75.9221 27.659C75.4442 30.5983 77.2072 33.2114 79.7716 34.0586C79.9262 34.1101 79.8775 34.3448 79.7144 34.3448H70.4269C67.5763 34.3448 64.9318 36.2938 64.4738 39.1073C63.89 42.6934 66.6433 45.7931 70.1207 45.7931H98.7414C101.855 45.7931 104.388 43.3059 104.463 40.2092C104.466 40.1319 104.526 40.0689 104.603 40.0689H118.776C122.253 40.0689 125.007 36.9693 124.423 33.3831C123.965 30.5697 121.32 28.6206 118.47 28.6206Z" fill="#6A4D78"/>
<path d="M62.9655 117.345C50.5527 117.345 40.069 110.791 40.069 103.034C40.069 95.2783 50.5527 88.7241 62.9655 88.7241C75.3783 88.7241 85.8621 95.2783 85.8621 103.034C85.8621 110.791 75.3783 117.345 62.9655 117.345Z" fill="#6A4D78"/>
<path d="M11.4483 14.3103C13.0289 14.3103 14.3103 13.0289 14.3103 11.4483C14.3103 9.86757 13.0289 8.58618 11.4483 8.58618C9.86757 8.58618 8.58618 9.86757 8.58618 11.4483C8.58618 13.0289 9.86757 14.3103 11.4483 14.3103Z" fill="#997EA7"/>
<path d="M51.5172 57.2413C53.0979 57.2413 54.3793 55.96 54.3793 54.3793C54.3793 52.7986 53.0979 51.5172 51.5172 51.5172C49.9365 51.5172 48.6552 52.7986 48.6552 54.3793C48.6552 55.96 49.9365 57.2413 51.5172 57.2413Z" fill="#997EA7"/>
<path d="M60.1034 68.6896C61.6841 68.6896 62.9655 67.4082 62.9655 65.8275C62.9655 64.2468 61.6841 62.9655 60.1034 62.9655C58.5227 62.9655 57.2413 64.2468 57.2413 65.8275C57.2413 67.4082 58.5227 68.6896 60.1034 68.6896Z" fill="#997EA7"/>
<path d="M114.483 105.897C116.063 105.897 117.345 104.615 117.345 103.034C117.345 101.454 116.063 100.172 114.483 100.172C112.902 100.172 111.621 101.454 111.621 103.034C111.621 104.615 112.902 105.897 114.483 105.897Z" fill="#997EA7"/>
<path d="M20.0344 160.276C21.6151 160.276 22.8965 158.995 22.8965 157.414C22.8965 155.833 21.6151 154.552 20.0344 154.552C18.4538 154.552 17.1724 155.833 17.1724 157.414C17.1724 158.995 18.4538 160.276 20.0344 160.276Z" fill="#997EA7"/>
<path d="M5.72413 140.241C7.30481 140.241 8.5862 138.96 8.5862 137.379C8.5862 135.799 7.30481 134.517 5.72413 134.517C4.14345 134.517 2.86206 135.799 2.86206 137.379C2.86206 138.96 4.14345 140.241 5.72413 140.241Z" fill="#997EA7"/>
<path d="M37.2069 5.72414C38.7876 5.72414 40.069 4.44275 40.069 2.86207C40.069 1.28139 38.7876 0 37.2069 0C35.6262 0 34.3448 1.28139 34.3448 2.86207C34.3448 4.44275 35.6262 5.72414 37.2069 5.72414Z" fill="#997EA7"/>
<path d="M134.517 34.3449C136.098 34.3449 137.379 33.0635 137.379 31.4828C137.379 29.9021 136.098 28.6207 134.517 28.6207C132.937 28.6207 131.655 29.9021 131.655 31.4828C131.655 33.0635 132.937 34.3449 134.517 34.3449Z" fill="#997EA7"/>
<path d="M157.414 157.414C158.995 157.414 160.276 156.132 160.276 154.552C160.276 152.971 158.995 151.69 157.414 151.69C155.833 151.69 154.552 152.971 154.552 154.552C154.552 156.132 155.833 157.414 157.414 157.414Z" fill="#997EA7"/>
</g>
<defs>
<clipPath id="clip0_48_3831">
<rect width="166" height="166" fill="white"/>
</clipPath>
</defs>
</svg>
